<?xml version="1.0" standalone="no"?>
<!DOCTYPE svg PUBLIC "-//W3C//DTD SVG 1.1//EN" "http://www.w3.org/Graphics/SVG/1.1/DTD/svg11.dtd" >
<svg xmlns="http://www.w3.org/2000/svg">
<metadata>
Created by FontPrep 20130207 at Sun Mar 20 07:46:26 2016
 By eli
Copyright (c) 2009 by Hannes von Doehren. All rights reserved.
</metadata>
<defs>
<font id="db83a1450782399269807c88b8666559" horiz-adv-x='1024' >
  <font-face 
    font-family="BrandonGrotesque-BlackItalic"
    font-weight="500"
    font-style="italic"
    font-stretch="normal"
    units-per-em="2048"
    panose-1="2 11 10 3 2 2 3 13 2 2"
    ascent="1434"
    descent="-614"
    x-height="819"
    cap-height="1434"
    bbox="-374.314 -797.818 2212.46 2185.82"
    underline-thickness="102"
    underline-position="-102"
    slope="-8"
    unicode-range="U+0020-FB02"
  />
<missing-glyph horiz-adv-x="1226" 
d="M502 319q0 -41 30 -69t69 -29q40 0 70 29q29 30 29 70t-29 69q-30 29 -70 29q-39 0 -69 -29t-30 -70zM537 643q0 -25 28 -25h74q31 0 31 27v53q0 57 107 124q40 26 74 75t34 109q0 98 -73 162t-193 65q-120 0 -213 -80q-22 -18 -41 -44t-3 -38l46 -45q24 -18 70 33
q45 51 120 51q74 0 108 -31t34 -75t-32 -80q-32 -37 -70 -62q-38 -24 -70 -66t-31 -94v-59zM102 61v1311q0 61 62 62h899q61 0 61 -62v-1311q0 -61 -61 -61h-899q-62 0 -62 61z" />
    <glyph glyph-name="fi" unicode="fi" horiz-adv-x="1112" 
d="M90 559q-14 0 -23 11t-8 28l27 182q4 39 39 39h65l27 191q29 208 162 326t334 118q73 0 153 -28t125 -60q29 -23 8 -55l-98 -162q-20 -35 -57 -14q-70 37 -140 37t-116 -45q-47 -44 -58 -121l-26 -187h500q35 0 30 -39l-104 -741q-8 -39 -41 -39h-232q-33 0 -28 39
l73 520h-235l-154 -1134q-2 -15 -14 -27t-27 -12h-243q-14 0 -23 11q-8 11 -6 28l154 1134h-64z" />
    <glyph glyph-name="fl" unicode="fl" horiz-adv-x="1165" 
d="M86 559q-14 0 -23 11q-8 11 -6 28l27 182q4 39 39 39h70l26 191q31 220 149 332t291 112q88 0 166 -32t113 -62l33 -33l43 84q14 23 35 23h96q14 0 22 -12t7 -27l-191 -1356q-2 -15 -14 -27t-27 -12h-235q-14 0 -23 11q-8 11 -6 28l149 1061q-12 20 -54 46t-97 26
t-95 -45q-40 -44 -51 -119l-26 -189h104q14 0 24 -11t7 -28l-27 -182q-2 -14 -14 -26t-25 -13h-106l-154 -1134q-2 -15 -14 -27t-27 -12h-243q-14 0 -23 11q-8 11 -6 28l156 1134h-70z" />
    <glyph glyph-name="f_f" unicode="ff" horiz-adv-x="1292" 
d="M704 1157q-74 0 -120 -51q-45 -51 -56 -129l-20 -158h272l27 189l14 86q-43 63 -117 63zM92 559q-14 0 -23 11t-8 28l27 182q2 16 13 28t26 11h63l23 158q29 215 159 336t305 121t275 -101q106 121 297 121q76 0 144 -24q130 -47 90 -101l-99 -160q-18 -29 -51 -10
t-88 19q-98 0 -123 -170l-26 -189h159q35 0 31 -39l-26 -182q-2 -16 -14 -28t-27 -11h-158l-154 -1134q-8 -39 -41 -39h-245q-14 0 -24 11q-9 11 -7 28l153 1134h-272l-154 -1134q-2 -15 -14 -27t-27 -12h-245q-14 0 -24 11q-9 11 -7 28l154 1134h-62z" />
    <glyph glyph-name="f_f_i" unicode="ffi" horiz-adv-x="1703" 
d="M508 819h270l27 189q2 14 8 44l8 40q-43 66 -119 66t-118 -52q-43 -51 -54 -129zM90 559q-14 0 -23 11t-6 28l25 182q6 39 41 39h63l25 158q35 217 161 337t301 120t275 -101q127 121 322 121q147 0 287 -84q33 -18 8 -55l-109 -170q-18 -31 -47 -15q-74 41 -158 41
q-109 0 -133 -163l-26 -189h499q35 0 31 -39l-104 -741q-8 -39 -41 -39h-234q-14 0 -23 11t-5 28l71 520h-231l-150 -1134q-8 -39 -41 -39h-247q-14 0 -23 12q-8 12 -6 27l149 1134h-270l-152 -1134q-2 -15 -13 -27t-25 -12h-248q-14 0 -23 12q-8 12 -6 27l150 1134h-64z
" />
    <glyph glyph-name="f_f_l" unicode="ffl" horiz-adv-x="1759" 
d="M508 819h272l27 189q8 67 14 84q-43 66 -117 66t-120 -52q-45 -51 -56 -129zM92 559q-14 0 -23 11t-8 28l27 182q2 16 13 28t26 11h63l23 158q29 209 159 333t303 124t277 -101q111 121 301 121q88 0 166 -32t113 -62l33 -33l43 84q14 23 34 23h97q14 0 22 -12t6 -27
l-190 -1356q-2 -15 -14 -27t-27 -12h-236q-14 0 -22 11t-6 28l149 1061q-12 20 -54 46t-97 26t-95 -45q-40 -44 -51 -119l-28 -189h102q14 0 24 -11t7 -28l-27 -180q-2 -14 -14 -26t-27 -13h-100l-154 -1136q-8 -39 -41 -39h-245q-14 0 -24 11q-9 11 -7 28l153 1134h-272
l-154 -1134q-2 -15 -14 -27t-27 -12h-245q-14 0 -24 11q-9 11 -7 28l154 1134h-62z" />
    <glyph glyph-name="f_f_h" unicode="ffh" horiz-adv-x="2254" 
d="M508 819h272l27 189q8 67 14 84q-43 66 -117 66t-120 -52q-45 -51 -56 -129zM92 559q-14 0 -23 11t-8 28l27 182q2 16 13 28t26 11h63l23 158q29 215 153 336t303 121t283 -101q111 121 301 121q88 0 166 -32t113 -62l33 -33l43 84q14 23 34 23h97q14 0 22 -12t6 -27
l-86 -602q72 47 162 47q160 0 246 -128t61 -302l-51 -371q-8 -39 -41 -39h-227q-33 0 -29 39l51 371q9 70 -19 116t-85 45q-100 0 -121 -161l-51 -371q-6 -39 -47 -39h-232q-14 0 -22 12t-6 27l151 1061q-12 20 -54 46t-97 26t-95 -45q-40 -44 -51 -119l-28 -189h102
q14 0 24 -11t7 -28l-27 -182q-2 -14 -14 -26t-27 -13h-100l-154 -1134q-8 -39 -41 -39h-245q-14 0 -24 11q-9 11 -7 28l153 1134h-272l-154 -1134q-2 -15 -14 -27t-27 -12h-245q-14 0 -24 11q-9 11 -7 28l154 1134h-62z" />
    <glyph glyph-name="f_k" unicode="fk" horiz-adv-x="1626" 
d="M86 559q-14 0 -23 11q-8 11 -6 28l27 182q4 39 39 39h70l26 191q31 220 149 332t291 112q88 0 166 -32t113 -62l33 -33l35 68q20 39 55 39h84q14 0 22 -12t7 -27l-125 -887l229 287q20 25 49 24h258q25 0 33 -20t-10 -43l-293 -344l198 -351q12 -21 -1 -41t-35 -20h-252
q-18 0 -25 16l-170 357l-47 -334q-8 -39 -41 -39h-235q-14 0 -23 12q-8 12 -6 27l149 1061q-12 20 -54 46t-97 26t-95 -45q-40 -44 -51 -119l-26 -189h104q14 0 24 -11t7 -28l-27 -182q-2 -14 -14 -26t-25 -13h-106l-154 -1134q-2 -15 -14 -27t-27 -12h-243q-14 0 -23 11
q-8 11 -6 28l156 1134h-70z" />
    <glyph glyph-name="f_j" unicode="fj" horiz-adv-x="1196" 
d="M90 559q-14 0 -23 11t-8 28l27 182q4 39 39 39h65l27 191q29 212 161 328t355 116q88 0 171 -28t128 -60q29 -23 8 -55l-98 -162q-18 -33 -57 -14q-74 37 -157 37t-135 -45q-52 -44 -63 -121l-26 -187h581q37 0 31 -39l-133 -968q-61 -446 -491 -447q-25 0 -37 7t-11 32
l27 219q3 37 61 37t97 47t49 117l106 735h-317l-154 -1134q-2 -15 -14 -27t-27 -12h-243q-14 0 -23 11q-8 11 -6 28l154 1134h-64z" />
    <glyph glyph-name="f_f_j" unicode="ffj" horiz-adv-x="1804" 
d="M508 819h270l29 195q4 28 14 78q-43 66 -119 66t-118 -52q-43 -51 -54 -129zM90 559q-14 0 -23 11t-6 28l25 182q6 39 41 39h63l25 158q35 217 162 337t302 120t275 -101q128 121 308 121t299 -84q29 -23 8 -55l-111 -170q-18 -31 -47 -15q-78 41 -166 41
q-98 0 -123 -163l-26 -189h598q37 0 30 -39l-133 -968q-61 -446 -491 -447q-25 0 -37 7t-10 32l26 219q3 37 61 37t97 47t49 117l107 735h-334l-150 -1134q-8 -39 -41 -39h-247q-14 0 -23 12q-8 12 -6 27l149 1134h-270l-152 -1134q-2 -15 -13 -27t-25 -12h-248
q-14 0 -23 12q-8 12 -6 27l150 1134h-64z" />
    <glyph glyph-name="f_b" unicode="fb" horiz-adv-x="1624" 
d="M1150 571q-56 0 -105 -56q-48 -57 -48 -123t33 -106t87 -40t103 55q48 55 48 123t-31 107q-31 40 -87 40zM86 559q-14 0 -23 11q-8 11 -6 28l27 182q4 39 39 39h70l26 191q31 220 148 332t292 112q88 0 166 -32t113 -62l33 -33l35 68q20 39 55 39h84q14 0 22 -12t7 -27
l-84 -588q59 33 127 33q143 0 239 -110t96 -265q0 -199 -127 -342t-307 -143q-98 0 -156 46q-57 42 -79 83q-9 -11 -23 -45t-26 -49t-31 -15h-96q-14 0 -23 12q-8 12 -6 27l149 1061q-12 20 -54 46t-97 26t-95 -45q-40 -44 -51 -119l-26 -189h104q14 0 24 -11t7 -28
l-27 -182q-2 -14 -14 -26t-25 -13h-106l-154 -1134q-2 -15 -14 -27t-27 -12h-243q-14 0 -23 11q-8 11 -6 28l156 1134h-70z" />
    <glyph glyph-name="f_f_k" unicode="ffk" horiz-adv-x="2217" 
d="M508 819h272l27 189q8 67 14 84q-43 66 -117 66t-120 -52q-45 -51 -56 -129zM92 559q-14 0 -23 11t-8 28l27 182q2 16 13 28t26 11h63l23 158q29 209 159 333t303 124t277 -101q111 121 301 121q88 0 166 -32t113 -62l33 -33l43 84q14 23 34 23h97q14 0 22 -12t6 -27
l-125 -885l228 285q20 25 49 24h258q25 0 33 -20t-10 -43l-293 -344l198 -351q12 -21 -1 -41t-36 -20h-251q-18 0 -25 16l-170 353l-45 -330q-8 -39 -41 -39h-236q-14 0 -22 12t-6 27l149 1061q-12 20 -54 46t-97 26t-95 -45q-40 -44 -51 -119l-28 -189h102q14 0 24 -11
t7 -28l-27 -180q-2 -14 -14 -26t-27 -13h-100l-154 -1136q-8 -39 -41 -39h-245q-14 0 -24 11q-9 11 -7 28l153 1134h-272l-154 -1134q-2 -15 -14 -27t-27 -12h-245q-14 0 -24 11q-9 11 -7 28l154 1134h-62z" />
    <glyph glyph-name="f_h" unicode="fh" horiz-adv-x="1662" 
d="M86 559q-14 0 -23 11q-8 11 -6 28l27 182q4 39 39 39h70l26 191q31 220 149 332t291 112q88 0 166 -32t113 -62l33 -33l35 68q20 39 55 39h84q14 0 22 -12t7 -27l-87 -602q72 47 162 47q164 0 248 -127t59 -303l-51 -371q-8 -39 -41 -39h-227q-33 0 -29 39l52 371
q10 70 -19 116t-76 45q-47 0 -84 -39t-47 -122l-51 -371q-6 -39 -47 -39h-231q-14 0 -23 12q-8 12 -6 27l151 1061q-12 20 -54 46t-97 26t-95 -45q-40 -44 -51 -119l-26 -189h104q14 0 24 -11t7 -28l-27 -182q-2 -14 -14 -26t-25 -13h-106l-154 -1134q-2 -15 -14 -27
t-27 -12h-243q-14 0 -23 11q-8 11 -6 28l156 1134h-70z" />
    <glyph glyph-name="f_f_b" unicode="ffb" horiz-adv-x="2217" 
d="M1591 392q0 -66 33 -106t87 -40t103 55q48 55 48 123t-31 107q-31 40 -87 40t-105 -56q-48 -57 -48 -123zM508 819h272l27 189q8 67 14 84q-43 66 -117 66t-120 -52q-45 -51 -56 -129zM92 559q-14 0 -23 11t-8 28l27 182q2 16 13 28t26 11h63l23 158q29 211 157 334
t303 123t279 -101q111 121 301 121q88 0 166 -32t113 -62l33 -33l43 84q14 23 34 23h97q14 0 22 -12t6 -27l-84 -588q59 33 127 33q144 0 240 -110t96 -265q0 -199 -125 -342t-309 -143q-118 0 -201 83q-20 20 -34 46q-9 -11 -23 -45t-26 -49t-31 -15h-97q-14 0 -22 12
t-6 27l149 1061q-12 20 -54 46t-97 26t-95 -45q-40 -44 -51 -119l-28 -189h102q14 0 24 -11t7 -28l-27 -180q-2 -14 -14 -26t-27 -13h-100l-154 -1136q-8 -39 -41 -39h-245q-14 0 -24 11q-9 11 -7 28l153 1134h-272l-154 -1134q-2 -15 -14 -27t-27 -12h-245q-14 0 -24 11
q-9 11 -7 28l154 1134h-62z" />
    <glyph glyph-name=".notdef" horiz-adv-x="1226" 
d="M502 319q0 -41 30 -69t69 -29q40 0 70 29q29 30 29 70t-29 69q-30 29 -70 29q-39 0 -69 -29t-30 -70zM537 643q0 -25 28 -25h74q31 0 31 27v53q0 57 107 124q40 26 74 75t34 109q0 98 -73 162t-193 65q-120 0 -213 -80q-22 -18 -41 -44t-3 -38l46 -45q24 -18 70 33
q45 51 120 51q74 0 108 -31t34 -75t-32 -80q-32 -37 -70 -62q-38 -24 -70 -66t-31 -94v-59zM102 61v1311q0 61 62 62h899q61 0 61 -62v-1311q0 -61 -61 -61h-899q-62 0 -62 61z" />
    <glyph glyph-name=".null" horiz-adv-x="0" 
 />
    <glyph glyph-name="nonmarkingreturn" horiz-adv-x="681" 
 />
    <glyph glyph-name="space" unicode=" " horiz-adv-x="458" 
 />
    <glyph glyph-name="exclam" unicode="!" horiz-adv-x="636" 
d="M72 158q0 78 66 144t144 67q77 1 125 -51t48 -130t-68 -144q-68 -64 -145 -64q-78 0 -124 50t-46 128zM272 557q-12 0 -21 10t-9 23l-21 571l33 234q2 14 13 26t26 13h293q14 0 23 -12t7 -27l-32 -230l-185 -575q-8 -33 -39 -33h-88z" />
    <glyph glyph-name="quotedbl" unicode="&#x22;" horiz-adv-x="720" 
d="M160 1026q-14 0 -23 11q-8 11 -6 28l47 330q2 14 13 26t26 13h219q16 0 26 -16t1 -36l-141 -325q-14 -31 -39 -31h-123zM504 1026q-14 0 -23 11q-8 11 -6 28l47 330q2 14 14 26t25 13h219q18 0 26 -14t1 -38l-141 -325q-12 -31 -39 -31h-123z" />
    <glyph glyph-name="numbersign" unicode="#" horiz-adv-x="1009" 
d="M338 492h301l86 329h-299zM72 379q-33 0 -29 39l4 35q4 39 41 39h143l91 329h-136q-14 -1 -22 11t-6 28l4 35q2 15 14 27t27 12h147l125 467q8 33 37 33h37q14 0 22 -14t4 -31l-118 -455h299l123 467q8 33 39 33h34q16 0 24 -14t5 -31l-119 -455h107q33 0 28 -39l-4 -35
q-2 -14 -14 -26t-27 -13h-123l-86 -329h111q33 0 29 -39l-4 -35q-1 -14 -15 -26t-28 -13h-125l-90 -346q-8 -33 -39 -33h-33q-16 0 -25 13q-8 13 -4 32l88 334h-303l-88 -346q-8 -33 -39 -33h-33q-38 0 -28 45l86 334h-131z" />
    <glyph glyph-name="dollar" unicode="$" horiz-adv-x="1009" 
d="M592 399q0 66 -62 131l-36 -272q98 31 98 141zM502 942l35 240q-96 -20 -97 -115q1 -70 62 -125zM129 1022q0 170 115 295t327 135l11 66q2 16 15 27t30 11h18q37 0 31 -38l-10 -68q178 -16 338 -145q16 -12 20 -34t-8 -36l-125 -152q-13 -14 -33 -17t-33 7
q-86 72 -198 98l-41 -274q224 -149 284 -248t62 -211q0 -182 -125 -315t-350 -141l-29 -213q-2 -13 -14 -25t-29 -12h-18q-16 0 -27 11q-10 11 -8 26l30 213q-190 16 -337 155q-20 29 0 58l108 155q12 18 35 20t31 -8q96 -84 204 -94l46 316q-5 4 -57 43t-66 52t-57 50
q-42 37 -57 63t-49 78q-34 53 -34 152z" />
    <glyph glyph-name="percent" unicode="%" 
d="M817 242q0 -63 45 -64q27 0 43 25t17 63q0 66 -45 66q-27 0 -43 -26t-17 -64zM849 -20q-105 0 -168 70t-63 184t84 205t207 91q88 0 151 -68q62 -68 62 -184t-84 -207t-189 -91zM367 1102q27 0 43 24t16 64q0 66 -45 65q-27 1 -43 -25t-16 -65q0 -63 45 -63zM1098 1434
q20 0 27 -18t-5 -38l-827 -1358q-14 -20 -33 -20h-121q-20 0 -28 18t4 37l827 1358q10 20 35 21h121zM354 903q-106 0 -169 70q-62 71 -62 185t84 205t207 91q88 0 150 -69t62 -184t-83 -207t-189 -91z" />
    <glyph glyph-name="ampersand" unicode="&#x26;" horiz-adv-x="1357" 
d="M552 240q73 0 129 26t79 49l22 27l-209 285q-16 -7 -43 -19t-74 -62t-57 -127t35 -128t118 -51zM702 1225q-58 0 -95 -32q-38 -32 -38 -78q-1 -45 17 -73q44 -69 51 -73l37 -45q14 6 38 18t64 56t48 96q7 52 -28 92q-36 39 -94 39zM729 1454q154 0 250 -88t96 -229
t-89 -239t-155 -134l-26 -16l160 -195q53 74 78 135t38 77q13 17 25 14t33 -7l131 -67q23 -14 25 -24q8 -33 -1 -50q-10 -18 -24 -51t-56 -99q-41 -66 -67 -100l-29 -35l139 -158q15 -16 19 -24q13 -24 -37 -70l-102 -90q-45 -41 -86 6l-107 123q-204 -153 -450 -153
q-178 2 -289 115q-110 114 -90 274q10 81 49 155t85 120q100 100 167 130l30 14v7l-34 43q-106 137 -102 275q4 137 110 239q104 102 309 102z" />
    <glyph glyph-name="quotesingle" unicode="'" horiz-adv-x="374" 
d="M160 1026q-14 0 -23 11q-8 11 -6 28l47 330q2 14 13 26t26 13h217q16 0 26 -16t1 -36l-142 -325q-16 -31 -38 -31h-121z" />
    <glyph glyph-name="parenleft" unicode="(" horiz-adv-x="673" 
d="M82 422q0 997 610 1030q14 2 24 -9t7 -28l-16 -174q-4 -31 -31 -39q-287 -104 -287 -768q0 -291 131 -346q23 -10 19 -39l-31 -172q-6 -39 -43 -39q-119 8 -211 86q-172 145 -172 498z" />
    <glyph glyph-name="parenright" unicode=")" horiz-adv-x="677" 
d="M-8 51q4 29 31 37q287 109 286 764q0 303 -131 352q-27 8 -20 39l32 172q4 15 18 27t28 10q146 -12 256 -134q124 -143 124 -464q-2 -781 -375 -956q-104 -50 -233 -60q-16 0 -26 11t-9 26z" />
    <glyph glyph-name="asterisk" unicode="*" horiz-adv-x="706" 
d="M328 711q-14 0 -24 12q-9 12 -7 27l31 184l-154 -105q-27 -20 -45 11l-37 71q-18 35 14 56l181 104l-148 107q-10 8 -12 24t8 31l62 72q20 25 45 8l125 -105l22 187q2 14 13 26t26 13h86q14 0 24 -12t7 -27l-29 -187l156 105q29 18 45 -10l39 -70q8 -13 2 -31t-21 -26
l-176 -105l146 -106q12 -7 13 -25t-9 -29l-64 -71q-27 -27 -47 -11l-123 103l-24 -182q-1 -16 -13 -28t-26 -11h-86z" />
    <glyph glyph-name="plus" unicode="+" horiz-adv-x="1036" 
d="M150 600q-14 0 -23 11q-8 11 -6 28l20 143q1 16 13 28t26 11h260l43 301q3 14 15 26t26 11h158q33 0 29 -37l-43 -301h260q14 0 22 -11t6 -28l-20 -143q-2 -15 -13 -27t-26 -12h-260l-41 -299q-8 -37 -41 -37h-158q-14 0 -22 12t-6 25l41 299h-260z" />
    <glyph glyph-name="comma" unicode="," horiz-adv-x="559" 
d="M162 -20q-68 0 -114 48t-46 128q0 79 70 144t157 65q87 -1 148 -63t61 -180q0 -344 -307 -546q-43 -25 -59 2l-35 55q-14 25 16 50q195 139 221 319q-44 -22 -112 -22z" />
    <glyph glyph-name="hyphen" unicode="-" horiz-adv-x="690" 
d="M100 365q-33 0 -28 36l24 187q4 39 41 39h430q33 0 29 -39l-25 -187q-4 -37 -41 -36h-430z" />
    <glyph glyph-name="period" unicode="." horiz-adv-x="495" 
d="M2 158q0 78 67 144t143 67t125 -51q48 -52 48 -130t-68 -144q-69 -64 -145 -64t-123 50t-47 128z" />
    <glyph glyph-name="slash" unicode="/" horiz-adv-x="724" 
d="M2 0q-18 0 -26 14q-7 14 1 37l551 1356q12 27 39 27h209q20 0 28 -14t-3 -38l-549 -1355q-12 -27 -39 -27h-211z" />
    <glyph glyph-name="zero" unicode="0" horiz-adv-x="1181" 
d="M551 293q100 0 161 164q60 165 60 405t-100 240t-162 -164t-61 -397q0 -115 26 -182q27 -66 76 -66zM514 -20q-180 0 -288 150t-107 396q0 406 156 648q157 242 432 241q179 0 287 -148t108 -397q0 -402 -160 -646t-428 -244z" />
    <glyph glyph-name="one" unicode="1" horiz-adv-x="743" 
d="M137 961q-14 0 -21 12t-3 26l22 138q4 18 21 30l303 226h194q31 0 27 -39l-184 -1315q-2 -15 -14 -27t-25 -12h-234q-14 0 -23 12t-5 27l129 922h-187z" />
    <glyph glyph-name="two" unicode="2" horiz-adv-x="989" 
d="M10 0q-33 0 -28 39l4 41l544 694q115 147 115 234q0 57 -38 90t-89 32q-96 0 -184 -102q-29 -29 -51 0l-119 135q-10 9 -8 25t11 26t20 24q11 13 51 47q152 131 329 129q177 -1 281 -104q104 -104 104 -272t-170 -393l-282 -383h293q14 0 22 -11t6 -28l-24 -184
q-3 -15 -15 -27t-26 -12h-746z" />
    <glyph glyph-name="three" unicode="3" horiz-adv-x="983" 
d="M364 252q87 0 135 52t48 122t-48 112q-48 44 -126 44h-103q-14 0 -22 11t-6 28l22 170q4 39 39 38h105q92 -1 147 51t55 118t-30 105q-31 38 -80 38q-80 0 -156 -82q-27 -29 -49 -2l-115 137q-23 27 8 53q174 166 379 166q150 0 255 -93q106 -92 106 -228t-75 -238
t-165 -143v-6q68 -33 123 -112t55 -183q0 -186 -130 -308t-361 -122q-139 0 -233 60t-134 122q-16 27 10 51l127 121q25 25 50 0q82 -82 169 -82z" />
    <glyph glyph-name="four" unicode="4" horiz-adv-x="1128" 
d="M332 543h260l53 366zM29 289q-14 0 -24 11q-9 11 -7 28l31 217l753 858q12 12 29 12h154q14 0 22 -11t6 -28l-114 -839h145q33 0 29 -37l-23 -170q-2 -14 -14 -26t-27 -13h-145l-33 -252q-2 -15 -14 -27t-27 -12h-225q-14 0 -23 12q-8 12 -6 27l35 250h-522z" />
    <glyph glyph-name="five" unicode="5" horiz-adv-x="1007" 
d="M210 344q14 0 26 -8q80 -80 190 -80q74 0 136 66t62 148t-40 129q-41 48 -109 48h-278q-27 0 -39 23t-8 49l90 635q2 16 14 27t27 12h602q14 1 22 -11t6 -28l-24 -180q-3 -14 -15 -26t-26 -13h-363l-30 -220h114q160 -1 259 -115t100 -286q0 -233 -138 -384t-387 -150
q-115 0 -213 56t-139 114q-27 39 6 69q57 53 131 117q10 8 24 8z" />
    <glyph glyph-name="six" unicode="6" horiz-adv-x="1021" 
d="M494 262q68 0 121 67q55 67 55 149t-37 130q-37 49 -99 49t-114 -51t-62 -138q-10 -86 29 -146t107 -60zM72 435q0 198 63 369q63 170 155 278t204 189q188 135 344 169q39 8 47 -35l37 -152q10 -41 -43 -59q-70 -22 -139 -54q-68 -32 -158 -111t-123 -175q80 39 172 39
q123 -1 217 -107t94 -272q0 -223 -143 -379t-350 -155q-169 0 -273 128t-104 327z" />
    <glyph glyph-name="seven" unicode="7" horiz-adv-x="952" 
d="M25 0q-39 0 -33 35l4 26l600 1069h-391q-13 0 -23 12t-8 27l27 185q2 14 14 26t27 13h786q34 0 27 -54l-756 -1314q-14 -25 -43 -25h-231z" />
    <glyph glyph-name="eight" unicode="8" horiz-adv-x="1087" 
d="M389 375q0 -57 31 -91t83 -34t97 47t45 107t-27 102q-27 43 -75 61q-70 -27 -112 -81t-42 -111zM721 1036q0 43 -26 77q-27 34 -73 34t-87 -46t-41 -108q0 -88 90 -137q137 63 137 180zM55 324q0 80 37 156t91 125q103 95 151 116v6q-57 41 -103 111q-45 70 -45 161
q0 186 129 300t332 114q160 0 274 -91t113 -237q0 -209 -237 -368l-2 -8q180 -125 180 -305t-138 -302t-372 -122q-176 0 -293 98t-117 246z" />
    <glyph glyph-name="nine" unicode="9" horiz-adv-x="1021" 
d="M526 748q64 0 114 51t60 138t-28 146q-39 59 -107 59t-122 -66t-54 -148t37 -131q36 -49 100 -49zM428 512q-123 0 -217 106t-94 273q0 223 143 379t350 155q170 0 274 -129q104 -128 103 -326q0 -198 -63 -369q-62 -171 -154 -279t-205 -188q-188 -135 -344 -169
q-39 -8 -47 35l-37 152q-10 41 43 59q70 23 138 55t159 110q90 79 123 175q-80 -39 -172 -39z" />
    <glyph glyph-name="colon" unicode=":" horiz-adv-x="507" 
d="M39 132q0 68 53 121q54 54 118 54t103 -42q39 -43 39 -109t-54 -120t-118 -54t-103 41q-38 41 -38 109zM254 512q-64 0 -103 41q-38 41 -38 107t54 122q55 56 119 56t102 -42t38 -109t-54 -121t-118 -54z" />
    <glyph glyph-name="semicolon" unicode=";" horiz-adv-x="471" 
d="M4 114q0 60 52 109t116 49t110 -47t46 -143q0 -246 -230 -414q-25 -18 -37 -2l-28 39q-18 25 6 41t53 41t69 84t50 123l-4 -2q-4 0 -11 -2t-22 -6t-58 -4q-42 0 -77 36q-35 38 -35 98zM210 512q-64 0 -102 41t-38 107t54 122t118 56t103 -42q38 -42 38 -109t-54 -121
q-55 -54 -119 -54z" />
    <glyph glyph-name="less" unicode="&#x3c;" horiz-adv-x="815" 
d="M35 430q-19 15 -15 39q5 24 25 41l711 434q18 10 34 2t13 -28l-31 -195q-2 -18 -18 -29l-367 -231l303 -223q12 -8 10 -27l-20 -170q-2 -25 -20 -35t-35 2z" />
    <glyph glyph-name="equal" unicode="=" horiz-adv-x="929" 
d="M98 246q-14 0 -22 12t-6 27l20 145q2 16 13 28t26 11h641q14 0 24 -11t7 -28l-21 -145q-2 -15 -14 -27t-27 -12h-641zM160 678q-14 0 -24 11q-9 11 -7 28l21 143q2 14 14 26t26 13h641q33 0 29 -39l-20 -143q-2 -15 -14 -27t-25 -12h-641z" />
    <glyph glyph-name="greater" unicode="&#x3e;" horiz-adv-x="815" 
d="M35 10q-16 -12 -33 -3q-16 9 -14 30l28 194q2 20 19 29l364 223l-301 232q-12 8 -10 26l23 170q2 25 21 35t34 -2l588 -434q18 -10 14 -38t-25 -42z" />
    <glyph glyph-name="question" unicode="?" horiz-adv-x="870" 
d="M156 158q0 78 66 144t144 67q76 1 124 -51t48 -130t-67 -144q-68 -64 -145 -64q-78 0 -124 50t-46 128zM285 557q-14 0 -23 11q-8 11 -6 28l12 86q8 60 58 120t104 101q141 109 141 197q1 34 -25 58t-65 24q-88 0 -178 -80q-33 -29 -53 -4l-111 133q-10 10 -8 27t14 28
q176 168 408 168q135 0 239 -88t105 -221q0 -88 -50 -170q-51 -82 -111 -132q-164 -136 -175 -196l-8 -51q-6 -39 -41 -39h-227z" />
    <glyph glyph-name="at" unicode="@" horiz-adv-x="1867" 
d="M874 594q-48 0 -92 -66t-43 -140q0 -74 29 -110t75 -36t91 62t47 140t-29 114q-30 36 -78 36zM35 334q0 479 298 800t748 320q332 0 527 -212t194 -552q0 -252 -128 -471q-62 -106 -171 -173t-243 -66q-160 0 -201 159h-15q-42 -71 -114 -115t-156 -44q-129 0 -209 110
t-80 260q0 197 124 343t292 147q113 0 182 -82q4 -4 31 -45l35 78q16 29 45 28h84q14 0 24 -11t7 -28l-49 -344q-29 -201 69 -200q61 0 107 78q80 140 81 368q1 230 -121 372t-356 142q-324 0 -530 -233t-205 -603q0 -192 88 -352t238 -233q27 -18 14 -47l-84 -168
q-20 -35 -49 -25q-209 83 -343 311t-134 488z" />
    <glyph glyph-name="A" unicode="A" 
d="M489 492h230l-64 342h-2zM-51 0q-20 0 -28 16q-7 16 3 37l776 1379q14 23 35 22h19q20 0 28 -22l385 -1379q6 -21 -6 -37t-33 -16h-231q-55 0 -66 51l-34 162h-453l-80 -164q-23 -49 -82 -49h-233z" />
    <glyph glyph-name="B" unicode="B" horiz-adv-x="1163" 
d="M717 458q0 64 -29 96t-70 32h-126l-41 -293h104q74 -2 118 50q44 51 44 115zM623 852q67 0 107 51t40 113t-22 92q-23 31 -58 31h-123l-41 -287h97zM760 1434q150 0 251 -98t101 -232q0 -136 -83 -230t-187 -145q209 -101 209 -291t-133 -314t-328 -124h-465
q-14 0 -24 11q-9 12 -5 28l191 1356q2 16 13 27t26 12h434z" />
    <glyph glyph-name="C" unicode="C" horiz-adv-x="1261" 
d="M92 625q0 353 219 591t549 238q266 0 430 -190q23 -31 -8 -58l-176 -155q-25 -23 -47 0q-83 94 -231 94q-148 1 -265 -145t-117 -341q0 -147 77 -249t193 -102t245 106q10 8 25 8t24 -10l139 -185q18 -27 -10 -55q-207 -192 -453 -192t-420 190t-174 455z" />
    <glyph glyph-name="D" unicode="D" horiz-adv-x="1388" 
d="M608 303q160 0 274 141t113 342q0 147 -74 247q-75 99 -196 100h-154l-116 -830h153zM782 1434q236 0 396 -188t159 -435q0 -335 -217 -573t-538 -238h-459q-14 0 -23 11q-8 12 -4 28l191 1356q2 14 13 26t26 13h456z" />
    <glyph glyph-name="E" unicode="E" horiz-adv-x="1114" 
d="M1098 1434q14 0 23 -12t7 -27l-32 -224q-2 -16 -14 -27t-25 -11h-488l-37 -254h398q14 1 23 -11t8 -28l-33 -224q-2 -16 -14 -27t-27 -11h-395l-39 -277h487q33 0 29 -39l-31 -223q-2 -15 -14 -27t-27 -12h-772q-14 0 -24 11q-9 12 -5 28l191 1356q2 14 13 26t26 13h772z
" />
    <glyph glyph-name="F" unicode="F" horiz-adv-x="1069" 
d="M1098 1434q14 0 23 -12t7 -27l-32 -224q-2 -16 -14 -27t-25 -11h-488l-41 -295h396q14 0 23 -12t7 -27l-32 -224q-2 -16 -14 -27t-25 -11h-398l-69 -498q-8 -39 -41 -39h-250q-14 0 -24 11q-9 12 -5 28l191 1356q2 14 13 26t26 13h772z" />
    <glyph glyph-name="G" unicode="G" horiz-adv-x="1318" 
d="M94 633q0 341 219 581t549 240q113 0 229 -51t195 -141q29 -25 -2 -56l-168 -166q-12 -12 -27 -12t-26 10q-89 90 -231 90t-262 -141t-119 -330q-1 -145 79 -247t199 -103q80 0 131 33l17 119h-95q-35 0 -30 37l28 202q6 39 41 39h383q14 0 22 -11t7 -28l-76 -551
q-2 -18 -20 -32q-23 -14 -65 -37t-167 -61t-243 -37q-238 0 -403 190t-165 463z" />
    <glyph glyph-name="H" unicode="H" horiz-adv-x="1464" 
d="M578 1434q14 0 23 -12t7 -27l-73 -516h479l71 516q3 16 15 27t26 12h252q14 0 24 -12t7 -27l-190 -1356q-3 -15 -15 -27t-26 -12h-254q-33 0 -29 39l76 539h-477l-76 -539q-8 -39 -41 -39h-252q-14 0 -23 11q-8 12 -6 28l191 1356q2 14 14 26t27 13h250z" />
    <glyph glyph-name="I" unicode="I" horiz-adv-x="665" 
d="M582 1434q14 0 22 -12t6 -27l-190 -1356q-2 -15 -13 -27t-26 -12h-256q-14 0 -23 11q-8 12 -6 28l191 1356q2 14 13 26t26 13h256z" />
    <glyph glyph-name="J" unicode="J" horiz-adv-x="831" 
d="M204 274q48 0 83 45t47 125l131 951q2 16 13 27t26 12h256q14 0 24 -12t9 -27l-138 -967q-63 -449 -446 -448q-187 -1 -277 149q-14 25 9 51l135 133q25 25 47 0q33 -39 81 -39z" />
    <glyph glyph-name="K" unicode="K" horiz-adv-x="1290" 
d="M586 1434q18 0 29 -14t10 -36l-76 -538l426 567q14 20 37 21h297q27 0 33 -27t-9 -49l-489 -623l340 -676q10 -23 -6 -41t-35 -18h-283q-29 0 -41 27l-297 632l-86 -610q-2 -21 -17 -35t-34 -14h-248q-17 0 -29 14t-10 35l189 1335q8 49 51 50h248z" />
    <glyph glyph-name="L" unicode="L" horiz-adv-x="964" 
d="M582 1434q14 0 22 -12t6 -27l-153 -1094h417q33 0 29 -39l-31 -223q-2 -15 -14 -27t-27 -12h-704q-14 0 -24 11q-9 12 -7 28l191 1356q2 16 14 27t27 12h254z" />
    <glyph glyph-name="M" unicode="M" horiz-adv-x="1656" 
d="M43 0q-16 0 -26 13q-9 13 -3 32l394 1376q10 33 38 33h29q23 0 29 -20l301 -885h4l582 885q14 20 34 20h31q27 0 27 -33l10 -1376q0 -17 -13 -31t-30 -14h-252q-12 0 -21 10t-10 23l23 633h-4l-391 -664q-14 -23 -35 -22h-33q-20 0 -29 22l-206 664h-5l-151 -633
q-8 -33 -41 -33h-252z" />
    <glyph glyph-name="N" unicode="N" horiz-adv-x="1462" 
d="M330 1454h45l610 -790h2l98 731q1 16 13 27t26 12h250q14 0 24 -10t9 -25l-193 -1383q-2 -14 -13 -25t-25 -11h-52l-610 815h-2l-92 -756q-8 -39 -41 -39h-252q-12 0 -23 10q-10 11 -8 25l193 1382q2 13 14 25t27 12z" />
    <glyph glyph-name="O" unicode="O" horiz-adv-x="1482" 
d="M702 307q154 0 274 139t120 328q0 148 -79 250t-200 102q-151 0 -271 -140t-120 -329q0 -145 78 -247t198 -103zM90 614q0 348 225 594t545 246q238 0 405 -187t167 -454q0 -346 -224 -590t-546 -243q-238 0 -405 185t-167 449z" />
    <glyph glyph-name="P" unicode="P" horiz-adv-x="1114" 
d="M674 819q55 0 98 55t43 120t-28 102t-68 37h-150l-43 -314h148zM778 1434q152 0 253 -120t102 -286q1 -204 -141 -356t-341 -152h-168l-67 -481q-2 -15 -14 -27t-27 -12h-250q-33 0 -29 39l191 1356q2 16 14 27t27 12h450z" />
    <glyph glyph-name="Q" unicode="Q" horiz-adv-x="1486" 
d="M705 307q153 0 273 139t120 328q0 148 -79 250t-200 102q-151 0 -271 -140t-120 -329q0 -145 79 -247t198 -103zM92 614q0 348 225 594t545 246q238 0 405 -187t167 -441t-117 -456q-117 -200 -309 -304l182 -410q8 -20 -3 -40t-34 -22h-276q-18 0 -27 21l-143 367
l-43 -2q-238 0 -405 185t-167 449z" />
    <glyph glyph-name="R" unicode="R" horiz-adv-x="1273" 
d="M752 821q70 1 118 57t48 122t-29 104q-29 37 -82 37h-236l-45 -320h226zM879 1434q158 0 259 -112t101 -276t-90 -290q-90 -127 -246 -176l178 -521q8 -19 -4 -39t-35 -20h-264q-25 0 -28 18l-168 543h-90l-74 -522q-2 -15 -14 -27t-25 -12h-254q-14 0 -24 11
q-9 12 -5 28l191 1356q2 14 13 26t26 13h553z" />
    <glyph glyph-name="S" unicode="S" horiz-adv-x="1054" 
d="M461 283q57 1 95 37t36 88q-2 100 -135 186q-220 148 -278 286q-28 67 -27 142q0 180 124 306q126 126 346 126t404 -149q16 -12 20 -34t-8 -36l-129 -158q-11 -14 -33 -17t-34 8q-12 10 -40 28q-103 64 -188 63q-53 0 -92 -30q-39 -29 -39 -77t36 -86t132 -96
q303 -182 303 -432q0 -190 -133 -324t-379 -134q-144 0 -248 52t-147 105q-20 27 0 58l111 165q12 18 34 20t31 -7q117 -90 238 -90z" />
    <glyph glyph-name="T" unicode="T" horiz-adv-x="952" 
d="M141 1133q-14 0 -23 11t-7 27l32 224q1 14 13 26t26 13h828q14 0 23 -12t7 -27l-32 -224q-2 -16 -14 -27t-25 -11h-252l-154 -1094q-2 -15 -14 -27t-27 -12h-254q-14 0 -23 12t-7 27l153 1094h-250z" />
    <glyph glyph-name="U" unicode="U" horiz-adv-x="1368" 
d="M565 1434q13 0 23 -12t8 -27l-117 -846q-14 -106 32 -174t135 -68t158 68t83 174l117 846q2 16 13 27t25 12h258q14 0 24 -12t7 -27l-119 -863q-38 -252 -198 -402t-412 -150q-212 0 -350 162t-105 390l119 863q2 14 14 26t25 13h260z" />
    <glyph glyph-name="V" unicode="V" 
d="M418 1434q25 0 28 -23l162 -747h17l372 747q8 23 33 23h295q19 0 27 -16t-2 -38l-779 -1378q-10 -23 -34 -22h-19q-21 -1 -29 22l-385 1378q-4 20 8 36t31 18h275z" />
    <glyph glyph-name="W" unicode="W" horiz-adv-x="1673" 
d="M453 1434q10 0 19 -10t9 -19l39 -694h8l381 721q12 23 35 22h33q25 0 29 -22l178 -721h6l237 694q12 29 37 29h246q20 0 28 -14t-1 -36l-541 -1376q-10 -29 -37 -28h-31q-20 0 -28 22l-221 838h-9l-456 -838q-14 -23 -35 -22h-29q-27 -1 -31 28l-153 1376q-2 20 9 34
t30 16h248z" />
    <glyph glyph-name="X" unicode="X" horiz-adv-x="1265" 
d="M2 0q-23 0 -30 18t10 39l483 688l-285 631q-8 20 4 38t37 20h295q18 0 27 -19l143 -391h2l252 391q10 18 33 19h317q23 0 31 -18t-8 -40l-467 -651l295 -668q10 -21 -2 -39t-35 -18h-285q-23 0 -28 18l-166 424h-4l-279 -424q-12 -18 -35 -18h-305z" />
    <glyph glyph-name="Y" unicode="Y" horiz-adv-x="1105" 
d="M395 1434q20 0 29 -19l170 -420l289 420q14 18 32 19h289q23 0 30 -20t-7 -40l-502 -682l-90 -653q-2 -15 -14 -27t-27 -12h-254q-33 0 -29 39l92 651l-303 684q-8 20 4 40t33 20h258z" />
    <glyph glyph-name="Z" unicode="Z" horiz-adv-x="1040" 
d="M14 0q-14 0 -22 11t-6 28l4 37l600 1057h-363q-14 0 -23 11t-7 27l32 224q3 14 15 26t26 13h791q14 0 23 -12t8 -27l-5 -27l-579 -1067h358q33 0 29 -39l-31 -223q-8 -39 -41 -39h-809z" />
    <glyph glyph-name="bracketleft" unicode="[" horiz-adv-x="704" 
d="M502 -373q14 0 23 -11t7 -26l-24 -165q-2 -15 -14 -27t-27 -12h-477q-14 0 -24 11q-9 11 -7 28l279 1970q2 14 13 26t25 13h480q14 0 22 -12t6 -27l-22 -164q-2 -15 -14 -27t-27 -12h-229l-222 -1565h232z" />
    <glyph glyph-name="backslash" unicode="\" horiz-adv-x="722" 
d="M399 1434q27 0 31 -27l170 -1356q2 -19 -10 -35t-31 -16h-209q-27 0 -31 27l-167 1355q-2 20 9 36t32 16h206z" />
    <glyph glyph-name="bracketright" unicode="]" horiz-adv-x="704" 
d="M-61 -373h231l219 1565h-229q-14 0 -24 11q-9 11 -7 28l25 164q2 14 13 26t26 13h479q14 0 22 -12t6 -27l-276 -1970q-2 -15 -14 -27t-27 -12h-477q-14 0 -24 11q-9 11 -7 28l25 165q2 14 13 26q12 11 26 11z" />
    <glyph glyph-name="asciicircum" unicode="^" horiz-adv-x="966" 
d="M-53 774q-19 0 -27 18t6 39l477 611q16 20 35 20h11q20 0 28 -20l297 -611q8 -20 -4 -38t-33 -19h-174q-12 0 -20 17l-144 305l-233 -305q-12 -16 -27 -17h-192z" />
    <glyph glyph-name="underscore" unicode="_" horiz-adv-x="827" 
d="M-12 -20h686q37 0 31 -39l-15 -105q-4 -37 -41 -37h-686q-35 0 -31 37l15 105q6 39 41 39z" />
    <glyph glyph-name="grave" unicode="`" horiz-adv-x="557" 
d="M336 1049l-322 168q-31 18 -2 61l80 113q20 29 49 6l291 -213q23 -12 6 -39l-49 -78q-20 -34 -53 -18z" />
    <glyph glyph-name="a" unicode="a" horiz-adv-x="972" 
d="M426 246q58 0 104 52t45 120q0 68 -32 111q-33 42 -87 42t-102 -55q-48 -54 -49 -122q0 -68 31 -108q32 -40 90 -40zM743 0h-106q-27 0 -31 31l-12 71q-41 -45 -115 -84t-162 -38q-137 0 -213 108t-75 270q0 201 124 341t293 141q74 0 136 -33t86 -66l22 -30l41 84
q12 25 39 24h96q14 0 23 -11q8 -12 6 -28l-111 -741q-8 -39 -41 -39z" />
    <glyph glyph-name="b" unicode="b" horiz-adv-x="978" 
d="M352 392q0 -66 33 -106t87 -40t102 55t48 123t-30 107q-32 40 -88 40t-104 -56q-48 -57 -48 -123zM498 1434q14 0 23 -12t7 -27l-84 -588q59 33 127 33q147 0 241 -110t95 -265q0 -199 -126 -342t-308 -143q-118 0 -201 83q-20 20 -34 46l-41 -80q-14 -29 -39 -29h-97
q-14 0 -22 12t-6 27l190 1356q1 14 13 26t26 13h236z" />
    <glyph glyph-name="c" unicode="c" horiz-adv-x="804" 
d="M25 358q0 203 133 342q133 140 311 140t281 -148q20 -31 -17 -57l-129 -111q-16 -16 -37 4q-43 43 -101 43t-104 -55q-46 -54 -47 -122q0 -68 29 -108t79 -40t116 61q20 25 45 0l108 -108q27 -27 6 -58q-119 -162 -323 -161q-145 0 -248 109q-102 109 -102 269z" />
    <glyph glyph-name="d" unicode="d" horiz-adv-x="983" 
d="M433 246q54 0 103 54q48 54 49 120t-34 109q-35 42 -90 42t-101 -55q-46 -54 -47 -122q0 -68 33 -108t87 -40zM729 1434h232q14 0 23 -12t7 -27l-190 -1356q-8 -39 -41 -39h-96q-23 0 -31 25l-23 77q-112 -122 -262 -122t-234 112q-85 112 -85 270q0 201 131 339t301 139
q75 0 141 -33l84 588q6 39 43 39z" />
    <glyph glyph-name="e" unicode="e" horiz-adv-x="811" 
d="M473 627q-47 0 -95 -36t-61 -87q126 0 182 45q22 16 21 37q0 41 -47 41zM25 338q0 209 137 355t342 147q110 0 190 -60t80 -155q0 -133 -127 -205t-354 -72q-4 -121 108 -121q57 0 119 49q27 23 51 -8l86 -112q23 -25 -4 -56q-119 -120 -282 -120t-255 106t-91 252z" />
    <glyph glyph-name="f" unicode="f" horiz-adv-x="702" 
d="M88 559q-33 0 -29 39l27 182q4 39 39 39h65l27 189q31 214 151 330t306 116q66 0 130 -26t86 -49q21 -23 1 -50l-98 -160q-18 -29 -51 -10t-87 19q-100 0 -125 -170l-26 -189h160q16 0 25 -11t7 -28l-26 -182q-2 -14 -14 -26t-29 -13h-160l-154 -1134q-2 -15 -14 -27
t-27 -12h-243q-14 0 -23 11q-8 11 -6 28l154 1134h-66z" />
    <glyph glyph-name="g" unicode="g" horiz-adv-x="980" 
d="M434 246q58 0 104 52t46 120t-33 111q-33 42 -87 42t-102 -55q-48 -54 -49 -122q0 -68 31 -108q32 -40 90 -40zM29 352q0 199 124 342t302 144q136 0 211 -83q19 -20 32 -46l35 82q12 29 45 28h96q14 0 22 -11t7 -28l-117 -846q-68 -467 -452 -466q-121 0 -209 52
q-177 105 -123 171l92 110q31 37 68 0q70 -76 157 -75q135 0 164 208l9 78q-70 -33 -150 -32q-123 0 -218 110t-95 262z" />
    <glyph glyph-name="h" unicode="h" horiz-adv-x="1019" 
d="M500 1434q14 0 23 -12t7 -27l-86 -602q72 47 162 47q162 0 247 -127t60 -303l-51 -371q-8 -39 -41 -39h-227q-33 0 -29 39l51 371q10 70 -18 116t-86 45q-100 0 -121 -161l-51 -371q-6 -39 -47 -39h-232q-14 0 -22 12t-6 27l190 1356q3 14 15 26t26 13h236z" />
    <glyph glyph-name="i" unicode="i" horiz-adv-x="522" 
d="M178 819h236q14 0 23 -11t7 -28l-104 -741q-2 -15 -14 -27t-27 -12h-236q-14 0 -23 12t-7 27l104 741q3 16 15 28t26 11zM336 1067q-66 0 -105 41q-39 42 -39 108t56 121q54 55 120 55t106 -41q40 -42 40 -110t-56 -121t-122 -53z" />
    <glyph glyph-name="j" unicode="j" horiz-adv-x="524" 
d="M178 819h240q14 0 22 -11t6 -28l-137 -968q-29 -215 -147 -331t-309 -116q-66 0 -132 26t-85 49t-3 50l97 164q16 29 45 14q53 -27 96 -26q106 0 131 170l135 968q3 16 15 28t26 11zM340 1067q-66 0 -107 41q-39 40 -39 108t56 122t122 54t105 -41q39 -42 39 -110
t-55 -121t-121 -53z" />
    <glyph glyph-name="k" unicode="k" horiz-adv-x="980" 
d="M498 1434q14 0 23 -12t7 -27l-125 -887l230 287q20 25 49 24h258q25 0 33 -20t-10 -43l-293 -344l198 -351q12 -21 -1 -41t-36 -20h-251q-18 0 -25 16l-170 357l-47 -334q-8 -39 -41 -39h-236q-14 0 -22 12t-6 27l190 1356q1 14 13 26t26 13h236z" />
    <glyph glyph-name="l" unicode="l" horiz-adv-x="520" 
d="M498 1434q14 0 23 -12t7 -27l-190 -1356q-2 -15 -14 -27t-27 -12h-236q-14 0 -22 12t-6 27l190 1356q3 14 15 26t26 13h234z" />
    <glyph glyph-name="m" unicode="m" horiz-adv-x="1484" 
d="M176 819h96q18 0 29 -22l23 -84q46 51 118 89t148 38q131 0 219 -127q43 49 117 88t157 39q162 0 240 -124t53 -306l-51 -371q-8 -39 -41 -39h-223q-14 0 -24 11q-9 11 -5 28l53 387q23 145 -86 145q-47 -1 -84 -35t-45 -96l-57 -401q-8 -39 -41 -39h-203q-14 0 -23 11
t-5 28l53 387q23 145 -84 145q-47 -1 -84 -37t-45 -98l-55 -397q-8 -39 -41 -39h-224q-14 0 -23 12t-5 27l102 741q6 39 41 39z" />
    <glyph glyph-name="n" unicode="n" horiz-adv-x="1011" 
d="M176 819h98q23 0 29 -24l23 -82q122 127 278 127t242 -126t61 -304l-51 -371q-8 -39 -41 -39h-227q-14 0 -24 11q-9 11 -5 28l53 387q10 66 -14 106t-77 39q-52 1 -93 -37t-49 -98l-55 -397q-6 -39 -56 -39h-207q-14 0 -22 12t-6 27l102 741q3 16 15 28t26 11z" />
    <glyph glyph-name="o" unicode="o" horiz-adv-x="880" 
d="M291 394q-1 -68 29 -108t82 -40t99 55q46 55 46 123t-31 107q-31 40 -83 40t-97 -55q-45 -54 -45 -122zM27 358q0 201 125 341t319 141q139 0 239 -112t99 -271q0 -199 -127 -338t-317 -139q-139 0 -239 109q-99 109 -99 269z" />
    <glyph glyph-name="p" unicode="p" horiz-adv-x="983" 
d="M475 246q57 0 104 55q46 55 46 123t-32 107q-32 40 -85 40q-54 0 -104 -54t-50 -128q-4 -53 30 -98t91 -45zM465 -20q-65 0 -129 32l-84 -587q-4 -39 -51 -39h-224q-14 0 -23 11t-7 28l190 1355q3 16 15 28t26 11h96q25 0 31 -24l23 -82q109 127 256 127t237 -110
t90 -261q0 -205 -132 -347t-314 -142z" />
    <glyph glyph-name="q" unicode="q" horiz-adv-x="980" 
d="M434 246q58 0 104 52t46 120t-33 111q-33 42 -87 42t-102 -55q-48 -54 -49 -122q0 -68 31 -108q32 -40 90 -40zM344 -20q-141 0 -228 110t-87 291q0 180 124 319t302 140q76 0 137 -33t84 -66l22 -32l41 84q14 27 39 26h96q14 0 22 -11t7 -28l-190 -1358q-1 -16 -13 -27
t-26 -11h-236q-14 0 -23 11t-7 27l84 590q-66 -32 -148 -32z" />
    <glyph glyph-name="r" unicode="r" horiz-adv-x="671" 
d="M176 819h98q25 0 31 -24l25 -90q10 15 27 37t73 60t134 38q77 0 120 -39q23 -18 4 -47l-125 -174q-17 -27 -37 -17t-48 10q-28 -1 -56 -31t-37 -79l-59 -424q-6 -39 -45 -39h-220q-14 0 -22 12t-6 27l104 741q1 16 13 28t26 11z" />
    <glyph glyph-name="s" unicode="s" horiz-adv-x="710" 
d="M255 215q60 0 60 35t-82 82q-176 104 -176 227t87 202t239 79q80 0 151 -23q70 -23 98 -42t9 -50l-80 -143q-14 -23 -39 -13q-80 37 -135 37t-55 -28t63 -64q111 -64 164 -118t53 -136q0 -129 -92 -205t-266 -75q-82 0 -150 22t-95 46q-26 24 -11 44l84 150q18 27 45 12
q68 -39 128 -39z" />
    <glyph glyph-name="t" unicode="t" horiz-adv-x="681" 
d="M84 559q-31 0 -27 39l25 182q2 16 13 28t26 11h69l31 228q3 14 15 26t26 12h230q31 0 26 -38l-31 -228h119q33 0 29 -39l-25 -182q-2 -16 -14 -28t-27 -11h-118l-35 -254q-6 -49 43 -49q18 0 53 8t39 -26l16 -152q3 -37 -25 -54q-28 -16 -98 -34t-139 -18q-102 0 -157 74
q-53 75 -35 210l41 295h-70z" />
    <glyph glyph-name="u" unicode="u" horiz-adv-x="985" 
d="M342 -20q-164 0 -232 112t-40 318l53 370q2 16 13 28t26 11h227q13 0 23 -11t8 -28l-55 -385q-20 -150 69 -149q49 0 82 39t41 98l57 397q4 23 14 31t40 8h206q14 0 24 -11t7 -28l-104 -741q-3 -15 -15 -27t-26 -12h-98q-20 0 -29 25l-23 79q-104 -124 -268 -124z" />
    <glyph glyph-name="v" unicode="v" horiz-adv-x="800" 
d="M72 819h211q23 0 30 -22l66 -267h6l129 267q10 23 45 22h234q20 0 28 -17t-4 -38l-465 -764q-12 -20 -33 -20h-10q-24 0 -28 20l-248 764q-8 20 5 38t34 17z" />
    <glyph glyph-name="w" unicode="w" horiz-adv-x="1167" 
d="M86 819h184q27 0 31 -24l59 -273h2l211 281q12 16 31 16h21q16 0 24 -16l131 -281h2l127 273q12 24 43 24h195q21 0 29 -15t0 -36l-365 -764q-10 -25 -35 -24h-8q-18 0 -27 16l-186 393l-293 -393q-10 -16 -33 -16h-8q-24 -1 -28 24l-146 764q-4 20 8 36t31 15z" />
    <glyph glyph-name="x" unicode="x" horiz-adv-x="899" 
d="M-16 0q-23 0 -29 20t10 41l307 365l-204 340q-12 20 -2 36t32 17h232q20 0 28 -16l93 -172h2l116 172q12 16 33 16h264q23 0 30 -20t-9 -41l-299 -357l203 -346q12 -19 2 -37t-33 -18h-230q-18 0 -26 18l-94 189h-4l-134 -191q-12 -16 -32 -16h-256z" />
    <glyph glyph-name="y" unicode="y" horiz-adv-x="868" 
d="M78 819h209q23 0 26 -22l90 -375h3l182 375q10 23 35 22h237q20 0 26 -16t-3 -37l-754 -1356q-12 -25 -35 -24h-239q-20 0 -27 14q-6 14 6 37l379 655l-172 682q-10 45 37 45z" />
    <glyph glyph-name="z" unicode="z" horiz-adv-x="710" 
d="M23 0q-39 0 -27 59l256 492v4h-135q-14 0 -23 11q-8 11 -6 28l27 186q6 39 39 39h508q20 0 27 -16t-3 -39l-278 -498v-4h139q33 0 28 -39l-24 -184q-2 -15 -14 -27t-27 -12h-487z" />
    <glyph glyph-name="braceleft" unicode="{" horiz-adv-x="733" 
d="M106 -39l29 213q8 61 -27 92q-36 31 -83 39q-25 4 -21 37l16 119q4 29 31 37q16 6 39 15t64 44t47 72l30 227q23 152 69 264t99 173t125 99t166 55t107 3q14 -14 12 -31l-16 -174q-2 -29 -31 -39q-207 -57 -252 -350l-29 -186q-10 -72 -58 -138t-91 -94l-43 -30v-9
q68 -33 105 -121q24 -56 16 -124l-25 -193q-39 -293 154 -350q23 -8 18 -39l-33 -172q-8 -39 -41 -35q-156 8 -279 137q-62 66 -90 184t-8 275z" />
    <glyph glyph-name="bar" unicode="|" horiz-adv-x="342" 
d="M291 1556h37q33 0 28 -38l-295 -2096q-2 -14 -14 -25t-27 -11h-32q-14 0 -24 11q-9 11 -7 25l295 2096q2 16 13 27t26 11z" />
    <glyph glyph-name="braceright" unicode="}" horiz-adv-x="731" 
d="M178 -39l27 193q13 96 73 157t117 88v9q-16 12 -39 32t-56 89q-34 69 -24 141l27 186q41 293 -153 350q-25 6 -21 39l33 174q2 17 14 27t27 8q157 -8 281 -136q62 -64 90 -184t8 -278l-31 -227q-7 -37 21 -70t59 -47l31 -14q23 -8 18 -37l-16 -119q-2 -12 -12 -24
t-21 -13q-131 -25 -146 -131l-28 -213q-19 -155 -67 -267t-100 -171t-126 -96t-165 -55t-107 -3q-15 16 -13 31l17 172q4 31 32 39q209 59 250 350z" />
    <glyph glyph-name="asciitilde" unicode="~" horiz-adv-x="995" 
d="M659 596q49 0 127 96q29 35 54 2l102 -121q20 -25 -2 -51q-6 -8 -16 -22t-62 -69t-121 -86q-69 -30 -135 -30t-127 44q-20 15 -66 55t-90 41q-44 0 -124 -95q-31 -33 -56 -4l-108 125q-23 23 4 49q101 135 224 187q52 23 102 22q78 0 170 -80q18 -18 28 -24q11 -6 21 -14
q10 -9 17 -11t19 -8t39 -6z" />
    <glyph glyph-name="uni00A0" unicode="&#xa0;" horiz-adv-x="458" 
 />
    <glyph glyph-name="exclamdown" unicode="&#xa1;" horiz-adv-x="559" 
d="M193 262h88q12 0 21 -10t9 -23l21 -571l-33 -233q-2 -15 -13 -27t-26 -12h-293q-14 0 -23 11t-7 28l32 229l185 575q8 33 39 33zM271 451q-77 0 -125 51t-48 130q0 80 68 144t144 64t124 -50q47 -50 47 -128t-66 -145q-67 -66 -144 -66z" />
    <glyph glyph-name="cent" unicode="&#xa2;" horiz-adv-x="784" 
d="M319 281l115 303q-57 -12 -98 -70q-42 -58 -42 -128q0 -68 25 -105zM215 12q-92 44 -148 138t-57 208q0 203 133 342t324 140q33 0 63 -6l33 86q14 37 47 26l33 -10q31 -10 16 -47l-34 -92q61 -35 110 -105q20 -31 -16 -57l-129 -111q-16 -16 -37 4l-25 21l-116 -303
q49 2 112 61q20 25 45 0l109 -108q27 -27 6 -58q-119 -162 -324 -161q-16 0 -49 4l-75 -201q-14 -37 -48 -27l-30 11q-35 12 -21 45z" />
    <glyph glyph-name="sterling" unicode="&#xa3;" horiz-adv-x="915" 
d="M670 705q33 0 28 -39l-4 -37q-4 -37 -41 -37h-127q-14 -170 -55 -318h281q33 0 26 -38l-26 -197q-8 -39 -39 -39h-631q-14 0 -23 11q-8 12 -6 28l4 37q145 236 138 516h-78q-14 0 -23 11q-8 11 -6 28l4 35q4 39 41 39h55q-14 125 -14 219q0 254 121 392t334 138
q178 0 311 -145q23 -23 -4 -54l-123 -149q-31 -29 -57 -2q-76 70 -136 70t-95 -48q-36 -48 -36 -133l37 -288h144z" />
    <glyph glyph-name="currency" unicode="&#xa4;" horiz-adv-x="870" 
d="M466 750q-32 0 -58 -25t-30 -61q-5 -36 13 -60t50 -24t58 24t30 61q5 37 -13 61t-50 24zM172 297l-96 111q-23 27 6 55l117 106q-12 86 24 197l-86 108q-8 10 -6 28t14 28l115 96q31 23 47 0l84 -104q90 43 176 6l113 104q25 25 49 -2l98 -108q9 -10 7 -26t-13 -28
l-114 -104q18 -100 -35 -213l84 -105q20 -29 -11 -53l-112 -96q-31 -25 -47 -2l-90 108q-90 -39 -158 0l-117 -106q-24 -25 -49 0z" />
    <glyph glyph-name="yen" unicode="&#xa5;" horiz-adv-x="1208" 
d="M219 242q-31 0 -26 39l4 34q2 15 13 27t26 12h174l18 133h-174q-31 0 -27 39l4 35q1 15 13 27t26 12h174l13 90l-303 684q-8 20 4 40t32 20h259q20 0 28 -19l170 -420l289 420q14 18 33 19h288q23 0 30 -20t-7 -40l-502 -682l-14 -92h172q14 0 24 -11t7 -28l-6 -37
q-8 -37 -41 -37h-170l-19 -133h170q15 0 25 -11t6 -28l-6 -36q-8 -37 -41 -37h-170l-27 -203q-2 -15 -14 -27t-27 -12h-254q-33 0 -28 39l28 203h-174z" />
    <glyph glyph-name="brokenbar" unicode="&#xa6;" horiz-adv-x="604" 
d="M227 139h37q33 0 29 -39l-96 -678q-3 -14 -15 -25t-26 -11h-33q-14 0 -24 11q-9 11 -7 25l94 678q2 16 14 28t27 11zM322 803q-14 0 -24 11q-9 11 -7 26l96 678q2 16 13 27t26 11h37q33 0 29 -38l-97 -678q-2 -14 -13 -26t-26 -11h-34z" />
    <glyph glyph-name="section" unicode="&#xa7;" horiz-adv-x="964" 
d="M559 481q0 51 -38 97t-77 63l-38 18q-63 -57 -64 -161q0 -56 40 -102t81 -64l41 -19q55 63 55 168zM475 -123q0 113 -162 211q-193 120 -236 239q-24 62 -24 138q0 186 170 317q-86 116 -86 270t112 278t337 124q170 0 372 -145q14 -9 14 -29t-11 -31l-119 -147
q-14 -16 -37 -18t-31 10q-2 0 -15 9q-117 81 -200 81q-45 0 -78 -32t-33 -79t38 -87q36 -40 100 -77t87 -51q25 -14 69 -52q142 -121 141 -282q0 -114 -49 -192t-134 -150q106 -106 106 -263t-99 -287q-51 -64 -145 -102t-220 -38q-125 0 -230 51t-151 99q-23 23 -2 51
l104 153q27 39 55 15q28 -23 104 -59q144 -68 218 -6q35 30 35 81z" />
    <glyph glyph-name="dieresis" unicode="&#xa8;" horiz-adv-x="763" 
d="M92 1096q-53 0 -85 43t-23 102q8 59 51 101t96 42t87 -42t25 -101t-53 -102t-98 -43zM471 1096q-53 0 -85 43t-24 102t52 101t96 42q53 0 87 -42t25 -101q-10 -59 -54 -102t-97 -43z" />
    <glyph glyph-name="copyright" unicode="&#xa9;" horiz-adv-x="1466" 
d="M422 672q0 184 112 305t281 121q133 0 211 -78q25 -29 -6 -59l-100 -99q-23 -23 -52 -1q-28 22 -82 22q-54 -1 -100 -57t-45 -124q0 -68 30 -108q30 -39 76 -39t91 35q24 19 41 -6l75 -111q23 -25 -10 -57q-102 -86 -223 -86t-210 100t-89 242zM258 641q0 -201 119 -342
t299 -141q227 0 401 189t174 446q0 203 -118 342q-119 139 -299 139q-228 0 -402 -188t-174 -445zM84 621q0 341 227 587t539 246q236 0 406 -188t169 -453q0 -340 -228 -587t-538 -246q-235 0 -405 188t-170 453z" />
    <glyph glyph-name="ordfeminine" unicode="&#xaa;" horiz-adv-x="612" 
d="M348 961q20 0 36 21q15 22 15 54q0 55 -41 56q-23 0 -39 -23t-16 -49q1 -26 13 -43q12 -16 32 -16zM346 1214q53 0 88 -14q18 88 -61 88q-47 0 -135 -18q-33 -4 -29 33l-2 86q2 66 215 65q129 0 179 -62t32 -198l-49 -340q-2 -10 -10 -19t-19 -10h-70q-14 0 -20 21
l-16 43q-87 -78 -174 -78t-133 48t-46 138q0 89 69 153t181 64z" />
    <glyph glyph-name="guillemotleft" unicode="&#xab;" horiz-adv-x="978" 
d="M483 774q25 0 30 -19t-9 -44l-164 -305l59 -281q9 -60 -37 -62h-165q-17 1 -25 17l-147 317q-12 23 6 49l233 304q20 25 37 24h182zM909 774q25 0 30 -19t-9 -44l-164 -305l59 -281q9 -60 -37 -62h-165q-16 0 -25 17l-147 317q-12 23 6 49l233 304q20 25 37 24h182z" />
    <glyph glyph-name="logicalnot" unicode="&#xac;" horiz-adv-x="1034" 
d="M104 600q-14 0 -22 12t-6 27l20 143q2 16 14 28t25 11h748q33 0 28 -39l-67 -483q-2 -13 -14 -25t-27 -12h-146q-14 0 -23 11t-7 26l43 301h-566z" />
    <glyph glyph-name="uni00AD" unicode="&#xad;" horiz-adv-x="638" 
d="M72 365q-33 0 -29 36l25 187q4 39 41 39h430q33 0 28 -39l-24 -187q-4 -37 -41 -36h-430z" />
    <glyph glyph-name="registered" unicode="&#xae;" horiz-adv-x="1466" 
d="M803 756q23 0 41 24t18 51q0 58 -39 60h-114l-21 -135h115zM477 344q-14 0 -23 11t-5 28l94 672q2 14 13 26t26 13h297q82 0 143 -64t61 -164q0 -193 -155 -262l39 -205q5 -19 -7 -37t-32 -18h-125q-25 0 -29 29l-29 217h-73l-31 -207q-2 -15 -13 -27t-26 -12h-125z
M258 641q0 -201 119 -342t299 -141q227 0 401 189t174 446q0 203 -118 342q-119 139 -299 139q-228 0 -402 -188t-174 -445zM84 621q0 341 227 587t539 246q236 0 406 -188t169 -453q0 -340 -228 -587t-538 -246q-235 0 -405 188t-170 453z" />
    <glyph glyph-name="macron" unicode="&#xaf;" horiz-adv-x="763" 
d="M-27 1153q-33 0 -28 37l10 84q4 39 41 39h473q15 0 23 -11t6 -28l-13 -84q-4 -37 -39 -37h-473z" />
    <glyph glyph-name="degree" unicode="&#xb0;" horiz-adv-x="569" 
d="M360 1102q27 0 43 24t17 64q0 66 -45 65q-27 1 -43 -25t-17 -65q0 -63 45 -63zM348 903q-106 0 -169 70q-62 71 -62 185t84 205t207 91q88 0 150 -69t62 -184t-83 -207t-189 -91z" />
    <glyph glyph-name="plusminus" unicode="&#xb1;" horiz-adv-x="1103" 
d="M104 80q-14 0 -22 12t-6 27l18 143q8 39 41 39h748q14 0 22 -11t6 -28l-20 -143q-2 -15 -13 -27t-26 -12h-748zM465 489q-13 -1 -23 11t-8 26l31 197h-258q-14 0 -24 11q-9 11 -7 28l21 143q2 15 14 27t27 12h258l43 301q2 13 13 25t26 12h159q15 0 23 -11t6 -26
l-41 -301h260q15 0 23 -11t6 -28l-21 -143q-2 -16 -13 -28t-26 -11h-262l-28 -197q-2 -14 -14 -25t-27 -12h-158z" />
    <glyph glyph-name="twosuperior" unicode="&#xb2;" horiz-adv-x="507" 
d="M139 1032q-20 0 -16 19l6 36l217 267q43 51 43 94t-35 43q-36 -1 -66 -25t-40 4l-31 86q-17 34 19 56q78 47 165 47t136 -46t49 -131t-74 -188l-78 -108h86q20 0 17 -19l-17 -116q0 -7 -7 -13t-13 -6h-361z" />
    <glyph glyph-name="threesuperior" unicode="&#xb3;" horiz-adv-x="485" 
d="M296 1012q-97 0 -157 59q-20 20 -2 45l49 66q20 22 45 6t58 -17q51 0 51 60q0 41 -37 41h-65q-20 0 -17 33l8 69q2 35 41 35h52q16 0 29 15t14 42q0 37 -33 37q-20 0 -53 -24q-20 -12 -33 8l-43 80q-12 25 8 43q63 49 157 49t146 -40q51 -40 51 -108q0 -113 -116 -168
q90 -41 90 -134t-73 -145t-170 -52z" />
    <glyph glyph-name="acute" unicode="&#xb4;" horiz-adv-x="557" 
d="M51 1049q-33 -16 -47 18l-37 96q-10 27 17 39l352 213q35 23 51 -14l53 -123q18 -45 -20 -61z" />
    <glyph glyph-name="mu" unicode="&#xb5;" horiz-adv-x="997" 
d="M201 -612h-226q-14 0 -23 11t-7 28l192 1353q1 16 13 28t26 11h227q13 0 23 -11t8 -28l-59 -413q-17 -123 77 -121q46 0 78 39t41 98l58 397q4 23 14 31t39 8h207q14 0 23 -11t8 -28l-105 -741q-2 -15 -14 -27t-27 -12h-98q-20 0 -29 25l-22 79q-104 -125 -277 -124
q-19 0 -29 2l-77 -555q-2 -15 -14 -27t-27 -12z" />
    <glyph glyph-name="paragraph" unicode="&#xb6;" horiz-adv-x="1312" 
d="M422 575q-141 0 -235 108q-93 108 -93 265q0 195 128 340t294 146h858q14 0 24 -12t7 -27l-19 -123q-6 -39 -38 -39h-93l-254 -1808q-2 -15 -14 -27t-26 -12h-152q-14 0 -23 12q-8 12 -6 27l254 1806h-221l-254 -1806q-2 -15 -13 -27t-26 -12h-149q-14 0 -24 11
q-9 12 -7 28l162 1150h-80z" />
    <glyph glyph-name="periodcentered" unicode="&#xb7;" horiz-adv-x="563" 
d="M267 305q-89 0 -142 56q-53 55 -53 145t74 164q75 74 165 74q91 0 145 -58q54 -57 54 -146t-77 -162t-166 -73z" />
    <glyph glyph-name="cedilla" unicode="&#xb8;" horiz-adv-x="454" 
d="M379 -285q1 -109 -61 -179t-156 -68q-94 0 -142 71q-16 25 9 49l45 50q18 23 40 1t45 -22q24 0 43 22t19 56q0 61 -108 74q-35 2 -27 36l29 195h143l-16 -106q137 -33 137 -179z" />
    <glyph glyph-name="onesuperior" unicode="&#xb9;" horiz-adv-x="405" 
d="M236 1032q-16 0 -17 19l53 376h-104q-12 0 -12 23l14 78q2 12 18 22l156 88h131q18 0 14 -18l-79 -569q-4 -18 -21 -19h-153z" />
    <glyph glyph-name="ordmasculine" unicode="&#xba;" horiz-adv-x="579" 
d="M387 1276q-31 0 -55 -64t-23 -145q0 -82 36 -82t57 70q22 69 22 145t-37 76zM326 807q-100 0 -155 69q-54 69 -54 185q0 181 77 287t214 106q100 0 155 -68t55 -186q0 -180 -77 -287q-78 -106 -215 -106z" />
    <glyph glyph-name="guillemotright" unicode="&#xbb;" horiz-adv-x="980" 
d="M29 63q-25 -1 -30 19t9 45l164 305l-59 281q-9 61 37 61h165q16 0 25 -16l147 -318q12 -23 -6 -49l-233 -303q-20 -25 -37 -25h-182zM741 774q16 0 25 -16l147 -318q12 -23 -6 -49l-233 -303q-20 -25 -37 -25h-182q-25 -1 -30 19t9 45l164 305l-59 281q-9 61 36 61h166z
" />
    <glyph glyph-name="onequarter" unicode="&#xbc;" horiz-adv-x="1271" 
d="M797 250h94l18 115zM995 606h103q18 0 14 -18l-47 -334h70q18 0 14 -16l-14 -105q-4 -18 -19 -18h-72l-12 -97q-4 -18 -20 -18h-140q-20 0 -16 18l14 97h-231q-18 0 -14 16l18 127l336 342q6 6 16 6zM215 827q-16 0 -16 19l53 377h-105q-12 0 -12 22l15 78q2 12 18 23
l156 88h131q18 0 14 -19l-80 -569q-4 -18 -20 -19h-154zM1049 1434q20 0 27 -18t-5 -38l-827 -1358q-14 -20 -33 -20h-121q-20 0 -29 17q-7 18 5 38l827 1358q10 20 35 21h121z" />
    <glyph glyph-name="onehalf" unicode="&#xbd;" horiz-adv-x="1210" 
d="M899 416q0 43 -36 43q-35 -1 -65 -25t-40 4l-31 86q-17 33 18 56q77 47 165 47t137 -46t49 -131t-74 -188l-78 -108h86q20 0 17 -19l-17 -117q0 -6 -7 -12t-13 -6h-361q-20 0 -16 18l6 37l217 267q43 51 43 94zM215 827q-16 0 -16 19l53 377h-105q-12 0 -12 22l15 78
q2 12 18 23l156 88h131q18 0 14 -19l-80 -569q-4 -18 -20 -19h-154zM1049 1434q20 0 27 -18t-5 -38l-827 -1358q-14 -20 -33 -20h-121q-20 0 -29 17q-7 18 5 38l827 1358q10 20 35 21h121z" />
    <glyph glyph-name="threequarters" unicode="&#xbe;" horiz-adv-x="1349" 
d="M874 250h95l18 115zM1073 606h103q18 0 14 -18l-47 -334h69q18 0 15 -16l-15 -105q-4 -18 -18 -18h-72l-12 -97q-4 -18 -20 -18h-140q-20 0 -16 18l14 97h-231q-19 0 -15 16l19 127l336 342q6 6 16 6zM1126 1434q20 0 28 -18t-5 -38l-827 -1358q-14 -20 -33 -20h-121
q-20 0 -29 17q-8 18 4 38l828 1358q10 20 35 21h120zM508 1005q0 -93 -73 -145t-170 -53q-97 0 -156 59q-20 20 -3 45l50 66q20 23 45 7t57 -17q51 0 51 59q0 41 -37 41h-65q-20 0 -17 33l9 69q2 35 41 35h51q15 0 29 16t14 42q0 37 -33 36q-20 0 -53 -24q-20 -12 -33 8
l-43 80q-12 25 8 43q64 49 158 49t145 -40t52 -107q0 -113 -117 -168q90 -41 90 -134z" />
    <glyph glyph-name="questiondown" unicode="&#xbf;" horiz-adv-x="851" 
d="M295 262h227q14 0 22 -11t7 -28l-12 -86q-9 -61 -59 -121t-103 -100q-141 -109 -141 -197q0 -35 26 -59t64 -22q88 0 178 79q33 29 53 4l111 -133q10 -10 8 -27t-14 -28q-176 -168 -408 -168q-135 0 -240 88q-104 88 -104 221q0 88 50 170t110 132q166 137 176 196l8 51
q6 39 41 39zM441 451q-77 0 -125 51t-48 130q0 80 68 144t144 64t124 -50q47 -50 47 -128t-66 -145q-67 -66 -144 -66z" />
    <glyph glyph-name="Agrave" unicode="&#xc0;" 
d="M895 1561l-322 168q-31 18 -2 61l80 113q20 29 49 6l291 -213q23 -12 6 -39l-49 -78q-20 -34 -53 -18zM489 492h230l-64 342h-2zM-51 0q-20 0 -28 16q-7 16 3 37l776 1379q14 23 35 22h19q20 0 28 -22l385 -1379q6 -21 -6 -37t-33 -16h-231q-55 0 -66 51l-34 162h-453
l-80 -164q-23 -49 -82 -49h-233z" />
    <glyph glyph-name="Aacute" unicode="&#xc1;" 
d="M627 1561q-33 -16 -47 18l-37 96q-10 27 16 39l352 213q35 23 52 -14l53 -123q18 -45 -21 -61zM489 492h230l-64 342h-2zM-51 0q-20 0 -28 16q-7 16 3 37l776 1379q14 23 35 22h19q20 0 28 -22l385 -1379q6 -21 -6 -37t-33 -16h-231q-55 0 -66 51l-34 162h-453l-80 -164
q-23 -49 -82 -49h-233z" />
    <glyph glyph-name="Acircumflex" unicode="&#xc2;" 
d="M559 1561q-25 -14 -39 8l-55 96q-12 20 16 39l285 213q29 20 49 0l234 -213q20 -20 6 -39l-74 -94q-8 -10 -20 -13t-19 3l-166 122zM489 492h230l-64 342h-2zM-51 0q-20 0 -28 16q-7 16 3 37l776 1379q14 23 35 22h19q20 0 28 -22l385 -1379q6 -21 -6 -37t-33 -16h-231
q-55 0 -66 51l-34 162h-453l-80 -164q-23 -49 -82 -49h-233z" />
    <glyph glyph-name="Atilde" unicode="&#xc3;" 
d="M894 1788q38 0 69 57q20 37 51 10l63 -53q24 -17 -28 -99q-75 -117 -181 -120q-53 0 -112 49t-92 49t-66 -61q-18 -39 -49 -12l-66 57q-24 24 23 91q85 128 191 128q43 0 101 -48t96 -48zM489 492h230l-64 342h-2zM-51 0q-20 0 -28 16q-7 16 3 37l776 1379q14 23 35 22
h19q20 0 28 -22l385 -1379q6 -21 -6 -37t-33 -16h-231q-55 0 -66 51l-34 162h-453l-80 -164q-23 -49 -82 -49h-233z" />
    <glyph glyph-name="Adieresis" unicode="&#xc4;" 
d="M514 1573q-53 0 -85 43t-23 102q8 60 51 102t96 42t87 -42t25 -102t-53 -102q-44 -43 -98 -43zM1004 1573q-53 0 -85 43t-24 102q8 60 51 102t96 42t87 -42t25 -102t-53 -102q-44 -43 -97 -43zM489 492h230l-64 342h-2zM-51 0q-20 0 -28 16q-7 16 3 37l776 1379
q14 23 35 22h19q20 0 28 -22l385 -1379q6 -21 -6 -37t-33 -16h-231q-55 0 -66 51l-34 162h-453l-80 -164q-23 -49 -82 -49h-233z" />
    <glyph glyph-name="Aring" unicode="&#xc5;" 
d="M777 1686q30 0 57 32q26 32 26 66q0 36 -17 58t-46 22t-57 -31t-28 -66t18 -58q17 -23 47 -23zM772 1540q-90 0 -146 59t-56 158t71 177q72 78 162 77q90 0 145 -60q56 -60 56 -158q0 -97 -71 -175t-161 -78zM489 492h230l-64 342h-2zM-51 0q-20 0 -28 16q-7 16 3 37
l776 1379q14 23 35 22h19q20 0 28 -22l385 -1379q6 -21 -6 -37t-33 -16h-231q-55 0 -66 51l-34 162h-453l-80 -164q-23 -49 -82 -49h-233z" />
    <glyph glyph-name="AE" unicode="&#xc6;" horiz-adv-x="1673" 
d="M547 492h182l53 358zM-80 0q-20 0 -24 16t10 37l923 1317q18 27 35 45t56 19h739q33 0 29 -39l-31 -224q-3 -16 -15 -27t-26 -11h-477l-35 -254h387q14 1 22 -11t7 -28l-31 -224q-2 -16 -14 -27t-27 -11h-387l-39 -277h477q33 0 29 -39l-31 -223q-2 -15 -14 -27t-27 -12
h-762q-33 0 -28 39l24 174h-291l-141 -190q-14 -23 -39 -23h-299z" />
    <glyph glyph-name="Ccedilla" unicode="&#xc7;" horiz-adv-x="1265" 
d="M94 625q0 353 219 591t549 238q268 0 430 -190q23 -31 -8 -58l-176 -155q-25 -23 -47 0q-83 94 -231 94q-148 1 -265 -145t-116 -341q1 -147 77 -249t192 -102t245 106q10 8 25 8t24 -10l139 -185q18 -27 -10 -55q-201 -186 -447 -192l-12 -86q137 -33 137 -179
q0 -109 -61 -179q-62 -70 -156 -68q-94 0 -141 71q-16 25 8 49l45 50q18 23 40 1t45 -22q24 0 43 22t20 56q0 61 -109 74q-35 2 -27 36l27 191q-195 47 -327 223t-132 406z" />
    <glyph glyph-name="Egrave" unicode="&#xc8;" horiz-adv-x="1114" 
d="M870 1561l-321 168q-31 18 -2 61l80 113q20 29 49 6l291 -213q23 -12 6 -39l-49 -78q-21 -34 -54 -18zM1098 1434q14 0 23 -12t7 -27l-32 -224q-2 -16 -14 -27t-25 -11h-488l-37 -254h398q14 1 23 -11t8 -28l-33 -224q-2 -16 -14 -27t-27 -11h-395l-39 -277h487
q33 0 29 -39l-31 -223q-2 -15 -14 -27t-27 -12h-772q-14 0 -24 11q-9 12 -5 28l191 1356q2 14 13 26t26 13h772z" />
    <glyph glyph-name="Eacute" unicode="&#xc9;" horiz-adv-x="1114" 
d="M598 1561q-33 -16 -47 18l-37 96q-10 27 16 39l353 213q35 23 51 -14l53 -123q18 -45 -20 -61zM1098 1434q14 0 23 -12t7 -27l-32 -224q-2 -16 -14 -27t-25 -11h-488l-37 -254h398q14 1 23 -11t8 -28l-33 -224q-2 -16 -14 -27t-27 -11h-395l-39 -277h487q33 0 29 -39
l-31 -223q-2 -15 -14 -27t-27 -12h-772q-14 0 -24 11q-9 12 -5 28l191 1356q2 14 13 26t26 13h772z" />
    <glyph glyph-name="Ecircumflex" unicode="&#xca;" horiz-adv-x="1114" 
d="M532 1561q-25 -14 -38 8l-56 96q-12 20 17 39l284 213q29 20 49 0l234 -213q20 -20 6 -39l-74 -94q-8 -10 -20 -13t-19 3l-165 122zM1098 1434q14 0 23 -12t7 -27l-32 -224q-2 -16 -14 -27t-25 -11h-488l-37 -254h398q14 1 23 -11t8 -28l-33 -224q-2 -16 -14 -27t-27 -11
h-395l-39 -277h487q33 0 29 -39l-31 -223q-2 -15 -14 -27t-27 -12h-772q-14 0 -24 11q-9 12 -5 28l191 1356q2 14 13 26t26 13h772z" />
    <glyph glyph-name="Edieresis" unicode="&#xcb;" horiz-adv-x="1114" 
d="M485 1573q-53 0 -85 43t-23 102q8 60 51 102t96 42t87 -42t25 -102q-10 -60 -54 -102q-44 -43 -97 -43zM975 1573q-53 0 -85 43t-24 102q8 60 52 102t96 42q53 0 87 -42q35 -42 25 -102t-54 -102q-44 -43 -97 -43zM1098 1434q14 0 23 -12t7 -27l-32 -224q-2 -16 -14 -27
t-25 -11h-488l-37 -254h398q14 1 23 -11t8 -28l-33 -224q-2 -16 -14 -27t-27 -11h-395l-39 -277h487q33 0 29 -39l-31 -223q-2 -15 -14 -27t-27 -12h-772q-14 0 -24 11q-9 12 -5 28l191 1356q2 14 13 26t26 13h772z" />
    <glyph glyph-name="Igrave" unicode="&#xcc;" horiz-adv-x="665" 
d="M606 1561l-321 168q-31 18 -2 61l79 113q20 29 50 6l290 -213q23 -12 7 -39l-50 -78q-20 -34 -53 -18zM582 1434q14 0 22 -12t6 -27l-190 -1356q-2 -15 -13 -27t-26 -12h-256q-14 0 -23 11q-8 12 -6 28l191 1356q2 14 13 26t26 13h256z" />
    <glyph glyph-name="Iacute" unicode="&#xcd;" horiz-adv-x="665" 
d="M338 1561q-33 -16 -47 18l-37 96q-10 27 16 39l353 213q35 23 51 -14l53 -123q18 -45 -20 -61zM582 1434q14 0 22 -12t6 -27l-190 -1356q-2 -15 -13 -27t-26 -12h-256q-14 0 -23 11q-8 12 -6 28l191 1356q2 14 13 26t26 13h256z" />
    <glyph glyph-name="Icircumflex" unicode="&#xce;" horiz-adv-x="665" 
d="M268 1561q-25 -14 -39 8l-55 96q-12 20 16 39l285 213q29 20 49 0l234 -213q20 -20 6 -39l-74 -94q-8 -10 -20 -13t-19 3l-166 122zM582 1434q14 0 22 -12t6 -27l-190 -1356q-2 -15 -13 -27t-26 -12h-256q-14 0 -23 11q-8 12 -6 28l191 1356q2 14 13 26t26 13h256z" />
    <glyph glyph-name="Idieresis" unicode="&#xcf;" horiz-adv-x="665" 
d="M225 1573q-53 0 -85 43t-23 102q8 60 51 102t96 42t87 -42t25 -102q-10 -60 -54 -102q-44 -43 -97 -43zM715 1573q-53 0 -85 43t-24 102q8 60 51 102t97 42t87 -42q35 -42 25 -102t-54 -102q-44 -43 -97 -43zM582 1434q14 0 22 -12t6 -27l-190 -1356q-2 -15 -13 -27
t-26 -12h-256q-14 0 -23 11q-8 12 -6 28l191 1356q2 14 13 26t26 13h256z" />
    <glyph glyph-name="Eth" unicode="&#xd0;" horiz-adv-x="1398" 
d="M618 303q160 0 274 141t114 342q0 146 -75 246t-196 101h-153l-54 -367h234q14 0 24 -11t7 -28l-7 -37q-8 -37 -41 -37h-231l-49 -350h153zM139 653q-14 1 -22 13t-6 26l6 35q8 39 37 39h55l88 629q2 14 13 26t26 13h457q239 0 397 -184t158 -439q0 -335 -220 -573
t-536 -238h-459q-15 0 -23 12t-4 27l87 614h-54z" />
    <glyph glyph-name="Ntilde" unicode="&#xd1;" horiz-adv-x="1462" 
d="M771 1884q42 0 100 -48q59 -48 97 -48t68 57q20 37 51 10l64 -53q14 -10 0 -44q-72 -172 -214 -174q-45 0 -105 48q-60 49 -94 49t-66 -61q-18 -39 -49 -12l-66 57q-24 24 23 91q85 128 191 128zM330 1454h45l610 -790h2l98 731q1 16 13 27t26 12h250q14 0 24 -10t9 -25
l-193 -1383q-2 -14 -13 -25t-25 -11h-52l-610 815h-2l-92 -756q-8 -39 -41 -39h-252q-12 0 -23 10q-10 11 -8 25l193 1382q2 13 14 25t27 12z" />
    <glyph glyph-name="Ograve" unicode="&#xd2;" horiz-adv-x="1482" 
d="M1016 1561l-322 168q-31 18 -2 61l80 113q20 29 49 6l291 -213q23 -12 6 -39l-49 -78q-20 -34 -53 -18zM702 307q154 0 274 139t120 328q0 148 -79 250t-200 102q-151 0 -271 -140t-120 -329q0 -145 78 -247t198 -103zM90 614q0 348 225 594t545 246q238 0 405 -187
t167 -454q0 -346 -224 -590t-546 -243q-238 0 -405 185t-167 449z" />
    <glyph glyph-name="Oacute" unicode="&#xd3;" horiz-adv-x="1482" 
d="M745 1561q-33 -16 -47 18l-36 96q-10 27 16 39l352 213q35 23 51 -14l54 -123q18 -45 -21 -61zM702 307q154 0 274 139t120 328q0 148 -79 250t-200 102q-151 0 -271 -140t-120 -329q0 -145 78 -247t198 -103zM90 614q0 348 225 594t545 246q238 0 405 -187t167 -454
q0 -346 -224 -590t-546 -243q-238 0 -405 185t-167 449z" />
    <glyph glyph-name="Ocircumflex" unicode="&#xd4;" horiz-adv-x="1482" 
d="M680 1561q-25 -14 -39 8l-55 96q-12 20 16 39l285 213q29 20 49 0l233 -213q20 -20 7 -39l-74 -94q-8 -10 -20 -13t-19 3l-166 122zM702 307q154 0 274 139t120 328q0 148 -79 250t-200 102q-151 0 -271 -140t-120 -329q0 -145 78 -247t198 -103zM90 614q0 348 225 594
t545 246q238 0 405 -187t167 -454q0 -346 -224 -590t-546 -243q-238 0 -405 185t-167 449z" />
    <glyph glyph-name="Otilde" unicode="&#xd5;" horiz-adv-x="1482" 
d="M1012 1788q38 0 69 57q20 37 52 10l63 -53q14 -10 0 -44q-73 -172 -215 -174q-47 0 -107 48q-60 49 -92 49q-33 0 -65 -61q-18 -39 -49 -12l-66 57q-24 24 23 91q85 128 191 128q42 0 100 -48t96 -48zM702 307q154 0 274 139t120 328q0 148 -79 250t-200 102
q-151 0 -271 -140t-120 -329q0 -145 78 -247t198 -103zM90 614q0 348 225 594t545 246q238 0 405 -187t167 -454q0 -346 -224 -590t-546 -243q-238 0 -405 185t-167 449z" />
    <glyph glyph-name="Odieresis" unicode="&#xd6;" horiz-adv-x="1482" 
d="M631 1573q-53 0 -85 43t-24 102q8 60 51 102t97 42t87 -42q35 -42 25 -102t-54 -102q-44 -43 -97 -43zM1120 1573q-53 0 -85 43t-23 102q8 60 51 102t96 42t87 -42t25 -102t-53 -102q-44 -43 -98 -43zM702 307q154 0 274 139t120 328q0 148 -79 250t-200 102
q-151 0 -271 -140t-120 -329q0 -145 78 -247t198 -103zM90 614q0 348 225 594t545 246q238 0 405 -187t167 -454q0 -346 -224 -590t-546 -243q-238 0 -405 185t-167 449z" />
    <glyph glyph-name="multiply" unicode="&#xd7;" horiz-adv-x="886" 
d="M300 1087q16 0 24 -10l153 -209l223 215q27 25 50 -2l94 -106q8 -11 6 -27t-12 -26l-224 -215l158 -211q20 -29 -10 -54l-111 -94q-31 -25 -47 -2l-158 211l-221 -215q-24 -23 -47 0l-94 107q-10 8 -7 25t15 28l219 215l-153 211q-20 31 6 53l110 96q10 10 26 10z" />
    <glyph glyph-name="Oslash" unicode="&#xd8;" horiz-adv-x="1495" 
d="M1102 774q0 82 -31 164l-557 -532q76 -98 195 -99q153 0 273 139t120 328zM823 1126q-151 0 -271 -140t-120 -329q0 -85 29 -161l559 532q-82 98 -197 98zM866 1454q238 0 404 -188l157 151q27 27 50 0l20 -24q25 -25 -8 -54l-160 -151q109 -172 109 -375
q0 -346 -224 -590t-546 -243q-240 0 -406 186l-151 -146q-11 -10 -25 -9t-23 12l-22 24q-20 27 6 53l154 148q-104 164 -105 366q0 348 226 594t544 246z" />
    <glyph glyph-name="Ugrave" unicode="&#xd9;" horiz-adv-x="1372" 
d="M965 1561l-322 168q-31 18 -2 61l80 113q20 29 49 6l291 -213q23 -12 6 -39l-49 -78q-20 -34 -53 -18zM567 1434q13 0 23 -12t8 -27l-117 -846q-14 -106 32 -174t135 -68t158 68t83 174l117 846q2 16 13 27t25 12h259q14 0 23 -12t7 -27l-119 -863q-38 -252 -198 -402
t-412 -150q-211 0 -349 162t-105 390l118 863q2 14 14 26t25 13h260z" />
    <glyph glyph-name="Uacute" unicode="&#xda;" horiz-adv-x="1372" 
d="M696 1561q-33 -16 -47 18l-37 96q-10 27 17 39l352 213q35 23 51 -14l53 -123q18 -45 -20 -61zM567 1434q13 0 23 -12t8 -27l-117 -846q-14 -106 32 -174t135 -68t158 68t83 174l117 846q2 16 13 27t25 12h259q14 0 23 -12t7 -27l-119 -863q-38 -252 -198 -402t-412 -150
q-211 0 -349 162t-105 390l118 863q2 14 14 26t25 13h260z" />
    <glyph glyph-name="Ucircumflex" unicode="&#xdb;" horiz-adv-x="1372" 
d="M627 1561q-25 -14 -39 8l-56 96q-12 20 17 39l285 213q29 20 49 0l233 -213q20 -20 6 -39l-73 -94q-9 -10 -21 -13t-18 3l-166 122zM567 1434q13 0 23 -12t8 -27l-117 -846q-14 -106 32 -174t135 -68t158 68t83 174l117 846q2 16 13 27t25 12h259q14 0 23 -12t7 -27
l-119 -863q-38 -252 -198 -402t-412 -150q-211 0 -349 162t-105 390l118 863q2 14 14 26t25 13h260z" />
    <glyph glyph-name="Udieresis" unicode="&#xdc;" horiz-adv-x="1372" 
d="M584 1573q-53 0 -85 43t-24 102q8 60 51 102q42 42 96 42t88 -42t24 -102t-53 -102q-44 -43 -97 -43zM1073 1573q-53 0 -85 43t-23 102q8 60 51 102t96 42t87 -42t25 -102q-10 -60 -54 -102q-44 -43 -97 -43zM567 1434q13 0 23 -12t8 -27l-117 -846q-14 -106 32 -174
t135 -68t158 68t83 174l117 846q2 16 13 27t25 12h259q14 0 23 -12t7 -27l-119 -863q-38 -252 -198 -402t-412 -150q-211 0 -349 162t-105 390l118 863q2 14 14 26t25 13h260z" />
    <glyph glyph-name="Yacute" unicode="&#xdd;" horiz-adv-x="1105" 
d="M545 1561q-33 -16 -47 18l-37 96q-10 27 16 39l352 213q35 23 52 -14l53 -123q18 -45 -21 -61zM395 1434q20 0 29 -19l170 -420l289 420q14 18 32 19h289q23 0 30 -20t-7 -40l-502 -682l-90 -653q-2 -15 -14 -27t-27 -12h-254q-33 0 -29 39l92 651l-303 684q-8 20 4 40
t33 20h258z" />
    <glyph glyph-name="Thorn" unicode="&#xde;" horiz-adv-x="1107" 
d="M637 559q55 0 98 55q43 56 43 120t-27 102q-28 37 -69 36h-150l-43 -313h148zM578 1434q14 0 22 -12t6 -27l-31 -221h166q154 0 254 -116t101 -280q0 -214 -140 -366t-342 -152h-168l-30 -221q-2 -15 -14 -27t-27 -12h-250q-14 0 -24 11q-9 12 -5 28l191 1356q2 16 14 27
t27 12h250z" />
    <glyph glyph-name="germandbls" unicode="&#xdf;" horiz-adv-x="1058" 
d="M660 1182q-49 0 -122 -94q-74 -94 -102 -297l-192 -1366q-2 -15 -14 -27t-29 -12h-224q-14 0 -23 11t-7 28l190 1357q94 672 563 672q128 0 224 -79q48 -41 72 -111t11 -158t-59 -164t-86 -136q-41 -60 -46 -100q-8 -59 88 -168q36 -40 61 -109t14 -144
q-41 -297 -422 -305q-11 0 -23 9t-12 21l-4 176q0 39 37 47q55 7 84 25q88 53 -55 225q-98 115 -80 229q10 66 103 200t102 198q5 28 -9 50t-40 22z" />
    <glyph glyph-name="agrave" unicode="&#xe0;" horiz-adv-x="972" 
d="M426 246q58 0 104 52t45 120q0 68 -32 111q-33 42 -87 42t-102 -55q-48 -54 -49 -122q0 -68 31 -108q32 -40 90 -40zM743 0h-106q-27 0 -31 31l-12 71q-41 -45 -115 -84t-162 -38q-137 0 -213 108t-75 270q0 201 124 341t293 141q74 0 136 -33t86 -66l22 -30l41 84
q12 25 39 24h96q14 0 23 -11q8 -12 6 -28l-111 -741q-8 -39 -41 -39zM705 1049l-322 168q-31 18 -2 61l80 113q20 29 49 6l291 -213q23 -12 6 -39l-49 -78q-20 -34 -53 -18z" />
    <glyph glyph-name="aacute" unicode="&#xe1;" horiz-adv-x="972" 
d="M426 246q58 0 104 52t45 120q0 68 -32 111q-33 42 -87 42t-102 -55q-48 -54 -49 -122q0 -68 31 -108q32 -40 90 -40zM743 0h-106q-27 0 -31 31l-12 71q-41 -45 -115 -84t-162 -38q-137 0 -213 108t-75 270q0 201 124 341t293 141q74 0 136 -33t86 -66l22 -30l41 84
q12 25 39 24h96q14 0 23 -11q8 -12 6 -28l-111 -741q-8 -39 -41 -39zM432 1049q-33 -16 -47 18l-37 96q-10 27 17 39l352 213q35 23 51 -14l53 -123q18 -45 -20 -61z" />
    <glyph glyph-name="acircumflex" unicode="&#xe2;" horiz-adv-x="972" 
d="M426 246q58 0 104 52t45 120q0 68 -32 111q-33 42 -87 42t-102 -55q-48 -54 -49 -122q0 -68 31 -108q32 -40 90 -40zM743 0h-106q-27 0 -31 31l-12 71q-41 -45 -115 -84t-162 -38q-137 0 -213 108t-75 270q0 201 124 341t293 141q74 0 136 -33t86 -66l22 -30l41 84
q12 25 39 24h96q14 0 23 -11q8 -12 6 -28l-111 -741q-8 -39 -41 -39zM365 1049q-25 -14 -39 8l-56 96q-12 20 17 39l284 213q29 20 50 0l233 -213q20 -20 6 -39l-74 -94q-8 -10 -20 -13t-18 3l-166 122z" />
    <glyph glyph-name="atilde" unicode="&#xe3;" horiz-adv-x="972" 
d="M426 246q58 0 104 52t45 120q0 68 -32 111q-33 42 -87 42t-102 -55q-48 -54 -49 -122q0 -68 31 -108q32 -40 90 -40zM743 0h-106q-27 0 -31 31l-12 71q-41 -45 -115 -84t-162 -38q-137 0 -213 108t-75 270q0 201 124 341t293 141q74 0 136 -33t86 -66l22 -30l41 84
q12 25 39 24h96q14 0 23 -11q8 -12 6 -28l-111 -741q-8 -39 -41 -39zM511 1413q42 0 100 -48q59 -48 97 -48t68 57q20 37 51 10l64 -53q14 -9 0 -43q-72 -174 -214 -176q-45 0 -105 49t-94 49t-66 -61q-19 -39 -50 -12l-65 57q-23 23 22 91q16 24 45 55q64 73 147 73z" />
    <glyph glyph-name="adieresis" unicode="&#xe4;" horiz-adv-x="972" 
d="M426 246q58 0 104 52t45 120q0 68 -32 111q-33 42 -87 42t-102 -55q-48 -54 -49 -122q0 -68 31 -108q32 -40 90 -40zM743 0h-106q-27 0 -31 31l-12 71q-41 -45 -115 -84t-162 -38q-137 0 -213 108t-75 270q0 201 124 341t293 141q74 0 136 -33t86 -66l22 -30l41 84
q12 25 39 24h96q14 0 23 -11q8 -12 6 -28l-111 -741q-8 -39 -41 -39zM379 1096q-53 0 -85 43t-24 102t52 101t96 42q53 0 87 -42q35 -42 25 -101t-54 -102t-97 -43zM758 1096q-53 0 -85 43t-24 102t51 101q42 42 96 42t88 -42t24 -101t-53 -102q-44 -43 -97 -43z" />
    <glyph glyph-name="aring" unicode="&#xe5;" horiz-adv-x="972" 
d="M426 246q58 0 104 52t45 120q0 68 -32 111q-33 42 -87 42t-102 -55q-48 -54 -49 -122q0 -68 31 -108q32 -40 90 -40zM743 0h-106q-27 0 -31 31l-12 71q-41 -45 -115 -84t-162 -38q-137 0 -213 108t-75 270q0 201 124 341t293 141q74 0 136 -33t86 -66l22 -30l41 84
q12 25 39 24h96q14 0 23 -11q8 -12 6 -28l-111 -741q-8 -39 -41 -39zM596 1307q-28 0 -56 -31t-28 -66q0 -34 17 -58t47 -24t57 32t27 67t-18 57q-17 22 -46 23zM369 1200q-1 98 71 176t162 78t146 -60t55 -158q0 -98 -71 -176t-161 -77q-90 0 -146 59t-56 158z" />
    <glyph glyph-name="ae" unicode="&#xe6;" horiz-adv-x="1206" 
d="M242 253q0 -35 18 -57t51 -22t63 28t30 66t-21 61q-20 21 -54 21q-35 0 -61 -30t-26 -67zM868 633q-43 0 -85 -35t-56 -82q55 0 101 14q84 27 83 65q0 38 -43 38zM336 518q70 0 127 -20q25 119 -88 118q-80 0 -189 -22q-14 -2 -26 8t-13 25v141q-1 14 11 26t24 15
q152 31 250 31q150 0 221 -80q104 80 256 80q105 0 183 -56t77 -151q0 -133 -126 -209t-349 -76q-4 -121 103 -121q57 0 118 49q27 23 46 0l92 -120q23 -25 -4 -56q-133 -120 -298 -120t-239 129q-117 -129 -287 -129q-104 0 -167 62q-62 62 -62 182t98 207t242 87z" />
    <glyph glyph-name="ccedilla" unicode="&#xe7;" horiz-adv-x="811" 
d="M470 571q-58 0 -104 -55q-46 -54 -46 -122t28 -108q29 -40 79 -40t116 61q20 25 45 0l108 -108q27 -27 6 -58q-115 -156 -303 -161l-12 -86q137 -33 137 -179q0 -109 -61 -179t-155 -68q-94 0 -142 71q-16 25 8 49l45 50q17 23 39 1t46 -22t43 22t20 56q0 61 -109 74
q-35 2 -27 36l29 197q-102 39 -167 135t-64 221q0 203 133 342q133 140 311 140t281 -148q20 -31 -17 -57l-129 -111q-16 -16 -37 4q-43 43 -101 43z" />
    <glyph glyph-name="egrave" unicode="&#xe8;" horiz-adv-x="811" 
d="M666 1049l-322 168q-31 18 -2 61l80 113q20 29 49 6l291 -213q23 -12 6 -39l-49 -78q-20 -34 -53 -18zM473 627q-47 0 -95 -36t-61 -87q126 0 182 45q22 16 21 37q0 41 -47 41zM25 338q0 209 137 355t342 147q110 0 190 -60t80 -155q0 -133 -127 -205t-354 -72
q-4 -121 108 -121q57 0 119 49q27 23 51 -8l86 -112q23 -25 -4 -56q-119 -120 -282 -120t-255 106t-91 252z" />
    <glyph glyph-name="eacute" unicode="&#xe9;" horiz-adv-x="811" 
d="M395 1049q-33 -16 -47 18l-37 96q-10 27 17 39l352 213q35 23 51 -14l53 -123q18 -45 -20 -61zM473 627q-47 0 -95 -36t-61 -87q126 0 182 45q22 16 21 37q0 41 -47 41zM25 338q0 209 137 355t342 147q110 0 190 -60t80 -155q0 -133 -127 -205t-354 -72q-4 -121 108 -121
q57 0 119 49q27 23 51 -8l86 -112q23 -25 -4 -56q-119 -120 -282 -120t-255 106t-91 252z" />
    <glyph glyph-name="ecircumflex" unicode="&#xea;" horiz-adv-x="811" 
d="M326 1049q-25 -14 -39 8l-56 96q-12 20 17 39l284 213q29 20 50 0l233 -213q20 -20 6 -39l-73 -94q-8 -10 -20 -13t-19 3l-166 122zM473 627q-47 0 -95 -36t-61 -87q126 0 182 45q22 16 21 37q0 41 -47 41zM25 338q0 209 137 355t342 147q110 0 190 -60t80 -155
q0 -133 -127 -205t-354 -72q-4 -121 108 -121q57 0 119 49q27 23 51 -8l86 -112q23 -25 -4 -56q-119 -120 -282 -120t-255 106t-91 252z" />
    <glyph glyph-name="edieresis" unicode="&#xeb;" horiz-adv-x="811" 
d="M340 1096q-53 0 -85 43t-24 102q7 59 51 101t97 42t87 -42t25 -101t-53 -102t-98 -43zM719 1096q-53 0 -85 43t-24 102t52 101t96 42q53 0 87 -42q35 -42 25 -101t-54 -102t-97 -43zM473 627q-47 0 -95 -36t-61 -87q126 0 182 45q22 16 21 37q0 41 -47 41zM25 338
q0 209 137 355t342 147q110 0 190 -60t80 -155q0 -133 -127 -205t-354 -72q-4 -121 108 -121q57 0 119 49q27 23 51 -8l86 -112q23 -25 -4 -56q-119 -120 -282 -120t-255 106t-91 252z" />
    <glyph glyph-name="igrave" unicode="&#xec;" horiz-adv-x="522" 
d="M178 819h236q14 0 23 -11t7 -28l-104 -741q-2 -15 -14 -27t-27 -12h-236q-14 0 -23 12t-7 27l104 741q3 16 15 28t26 11zM461 1049l-322 168q-31 18 -2 61l80 113q20 29 49 6l291 -213q23 -12 6 -39l-49 -78q-20 -34 -53 -18z" />
    <glyph glyph-name="iacute" unicode="&#xed;" horiz-adv-x="522" 
d="M178 819h236q14 0 23 -11t7 -28l-104 -741q-2 -15 -14 -27t-27 -12h-236q-14 0 -23 12t-7 27l104 741q3 16 15 28t26 11zM195 1049q-33 -16 -48 18l-36 96q-10 27 16 39l352 213q35 23 51 -14l54 -123q18 -45 -21 -61z" />
    <glyph glyph-name="icircumflex" unicode="&#xee;" horiz-adv-x="522" 
d="M127 1049q-25 -14 -39 8l-55 96q-12 20 16 39l285 213q29 20 49 0l233 -213q20 -20 7 -39l-74 -94q-9 -10 -21 -13t-18 3l-166 122zM178 819h236q14 0 23 -11t7 -28l-104 -741q-2 -15 -14 -27t-27 -12h-236q-14 0 -23 12t-7 27l104 741q3 16 15 28t26 11z" />
    <glyph glyph-name="idieresis" unicode="&#xef;" horiz-adv-x="522" 
d="M176 819h236q14 0 23 -11t7 -28l-104 -741q-2 -15 -14 -27t-27 -12h-236q-14 0 -23 12t-7 27l104 741q3 16 15 28t26 11zM135 1096q-53 0 -85 43t-23 102q8 59 51 101t96 42t87 -42t25 -101q-10 -59 -54 -102t-97 -43zM514 1096q-53 0 -85 43t-23 102q8 59 51 101t96 42
t87 -42t25 -101t-53 -102t-98 -43z" />
    <glyph glyph-name="eth" unicode="&#xf0;" horiz-adv-x="985" 
d="M448 262q70 0 121 72t51 154t-32 126t-102 43t-122 -71t-52 -153t32 -127q34 -44 104 -44zM33 379q0 246 130 380t306 134q96 0 156 -49q-8 135 -123 241l-158 -90q-29 -16 -43 13l-16 30q-6 12 0 28t18 26l107 61q-55 33 -93 47q-49 14 -26 60l71 145q20 45 62 33
q127 -45 238 -140l135 78q27 14 43 -16l14 -29q14 -35 -18 -53l-99 -57q188 -211 189 -531q0 -268 -117 -476q-59 -105 -165 -170q-106 -64 -253 -64q-146 0 -252 116t-106 283z" />
    <glyph glyph-name="ntilde" unicode="&#xf1;" horiz-adv-x="1011" 
d="M532 1413q42 0 100 -48t96 -48t69 57q20 37 51 10l63 -53q24 -17 -28 -99q-75 -117 -181 -120q-51 0 -110 49t-93 49t-67 -61q-18 -39 -49 -12l-66 57q-24 24 23 91q86 128 192 128zM176 819h98q23 0 29 -24l23 -82q122 127 278 127t242 -126t61 -304l-51 -371
q-8 -39 -41 -39h-227q-14 0 -24 11q-9 11 -5 28l53 387q10 66 -14 106t-77 39q-52 1 -93 -37t-49 -98l-55 -397q-6 -39 -56 -39h-207q-14 0 -22 12t-6 27l102 741q3 16 15 28t26 11z" />
    <glyph glyph-name="ograve" unicode="&#xf2;" horiz-adv-x="880" 
d="M637 1049l-322 168q-31 18 -2 61l80 113q20 29 49 6l291 -213q23 -12 6 -39l-49 -78q-20 -34 -53 -18zM291 394q-1 -68 29 -108t82 -40t99 55q46 55 46 123t-31 107q-31 40 -83 40t-97 -55q-45 -54 -45 -122zM27 358q0 201 125 341t319 141q139 0 239 -112t99 -271
q0 -199 -127 -338t-317 -139q-139 0 -239 109q-99 109 -99 269z" />
    <glyph glyph-name="oacute" unicode="&#xf3;" horiz-adv-x="880" 
d="M367 1049q-33 -16 -48 18l-36 96q-10 27 16 39l352 213q35 23 51 -14l54 -123q18 -45 -21 -61zM291 394q-1 -68 29 -108t82 -40t99 55q46 55 46 123t-31 107q-31 40 -83 40t-97 -55q-45 -54 -45 -122zM27 358q0 201 125 341t319 141q139 0 239 -112t99 -271
q0 -199 -127 -338t-317 -139q-139 0 -239 109q-99 109 -99 269z" />
    <glyph glyph-name="ocircumflex" unicode="&#xf4;" horiz-adv-x="880" 
d="M295 1049q-25 -14 -39 8l-55 96q-12 20 16 39l285 213q29 20 49 0l233 -213q20 -20 7 -39l-74 -94q-9 -10 -21 -13t-18 3l-166 122zM291 394q-1 -68 29 -108t82 -40t99 55q46 55 46 123t-31 107q-31 40 -83 40t-97 -55q-45 -54 -45 -122zM27 358q0 201 125 341t319 141
q139 0 239 -112t99 -271q0 -199 -127 -338t-317 -139q-139 0 -239 109q-99 109 -99 269z" />
    <glyph glyph-name="otilde" unicode="&#xf5;" horiz-adv-x="880" 
d="M441 1413q43 0 101 -48t96 -48t69 57q20 37 51 10l63 -53q24 -17 -28 -99q-75 -117 -181 -120q-51 0 -110 49t-93 49t-67 -61q-18 -39 -49 -12l-66 57q-24 24 23 91q85 128 191 128zM291 394q-1 -68 29 -108t82 -40t99 55q46 55 46 123t-31 107q-31 40 -83 40t-97 -55
q-45 -54 -45 -122zM27 358q0 201 125 341t319 141q139 0 239 -112t99 -271q0 -199 -127 -338t-317 -139q-139 0 -239 109q-99 109 -99 269z" />
    <glyph glyph-name="odieresis" unicode="&#xf6;" horiz-adv-x="880" 
d="M313 1096q-53 0 -85 43t-23 102q8 59 51 101t96 42t87 -42t25 -101q-10 -59 -54 -102t-97 -43zM692 1096q-53 0 -85 43t-23 102q8 59 51 101t96 42t87 -42t25 -101t-53 -102t-98 -43zM291 394q-1 -68 29 -108t82 -40t99 55q46 55 46 123t-31 107q-31 40 -83 40t-97 -55
q-45 -54 -45 -122zM27 358q0 201 125 341t319 141q139 0 239 -112t99 -271q0 -199 -127 -338t-317 -139q-139 0 -239 109q-99 109 -99 269z" />
    <glyph glyph-name="divide" unicode="&#xf7;" horiz-adv-x="933" 
d="M279 304q0 62 50 113q50 50 110 50q61 0 97 -39q36 -40 36 -102t-52 -113t-112 -51t-95 40q-34 40 -34 102zM98 598q-14 0 -22 11t-6 28l20 143q2 14 13 26t26 13h748q14 0 22 -11t6 -28l-20 -143q-1 -15 -13 -27t-26 -12h-748zM524 965q-60 0 -95 39q-34 38 -34 102
t49 114q50 50 110 50t96 -39t36 -101t-51 -114q-51 -51 -111 -51z" />
    <glyph glyph-name="oslash" unicode="&#xf8;" horiz-adv-x="886" 
d="M395 236q63 0 115 61q51 61 51 145q0 4 -1 14t-1 17l-225 -217q23 -20 61 -20zM285 375v-27l223 213q-22 21 -72 21t-100 -62t-51 -145zM31 358q0 201 125 341t319 141q127 0 223 -97l66 64q27 27 49 0l21 -25q23 -27 -9 -53l-67 -63q55 -98 55 -209q0 -199 -127 -338
t-317 -139q-129 0 -224 94l-59 -58q-29 -25 -47 2l-23 25q-20 29 7 53l59 58q-51 92 -51 204z" />
    <glyph glyph-name="ugrave" unicode="&#xf9;" horiz-adv-x="985" 
d="M684 1049l-322 168q-31 18 -2 61l80 113q20 29 49 6l291 -213q23 -12 6 -39l-49 -78q-20 -34 -53 -18zM342 -20q-164 0 -232 112t-40 318l53 370q2 16 13 28t26 11h227q13 0 23 -11t8 -28l-55 -385q-20 -150 69 -149q49 0 82 39t41 98l57 397q4 23 14 31t40 8h206
q14 0 24 -11t7 -28l-104 -741q-3 -15 -15 -27t-26 -12h-98q-20 0 -29 25l-23 79q-104 -124 -268 -124z" />
    <glyph glyph-name="uacute" unicode="&#xfa;" horiz-adv-x="985" 
d="M418 1049q-33 -16 -47 18l-37 96q-10 27 16 39l352 213q35 23 52 -14l53 -123q18 -45 -21 -61zM342 -20q-164 0 -232 112t-40 318l53 370q2 16 13 28t26 11h227q13 0 23 -11t8 -28l-55 -385q-20 -150 69 -149q49 0 82 39t41 98l57 397q4 23 14 31t40 8h206q14 0 24 -11
t7 -28l-104 -741q-3 -15 -15 -27t-26 -12h-98q-20 0 -29 25l-23 79q-104 -124 -268 -124z" />
    <glyph glyph-name="ucircumflex" unicode="&#xfb;" horiz-adv-x="985" 
d="M342 1049q-25 -14 -39 8l-55 96q-12 20 16 39l285 213q29 20 49 0l233 -213q20 -20 7 -39l-74 -94q-8 -10 -20 -13t-19 3l-166 122zM342 -20q-164 0 -232 112t-40 318l53 370q2 16 13 28t26 11h227q13 0 23 -11t8 -28l-55 -385q-20 -150 69 -149q49 0 82 39t41 98l57 397
q4 23 14 31t40 8h206q14 0 24 -11t7 -28l-104 -741q-3 -15 -15 -27t-26 -12h-98q-20 0 -29 25l-23 79q-104 -124 -268 -124z" />
    <glyph glyph-name="udieresis" unicode="&#xfc;" horiz-adv-x="985" 
d="M360 1096q-53 0 -85 43t-23 102q8 59 51 101t96 42t87 -42t25 -101t-53 -102t-98 -43zM739 1096q-53 0 -85 43t-23 102q8 59 51 101t96 42t87 -42t25 -101q-10 -59 -54 -102t-97 -43zM342 -20q-164 0 -232 112t-40 318l53 370q2 16 13 28t26 11h227q13 0 23 -11t8 -28
l-55 -385q-20 -150 69 -149q49 0 82 39t41 98l57 397q4 23 14 31t40 8h206q14 0 24 -11t7 -28l-104 -741q-3 -15 -15 -27t-26 -12h-98q-20 0 -29 25l-23 79q-104 -124 -268 -124z" />
    <glyph glyph-name="yacute" unicode="&#xfd;" horiz-adv-x="868" 
d="M362 1049q-33 -16 -47 18l-36 96q-10 27 16 39l352 213q35 23 51 -14l54 -123q18 -45 -21 -61zM78 819h209q23 0 26 -22l90 -375h3l182 375q10 23 35 22h237q20 0 26 -16t-3 -37l-754 -1356q-12 -25 -35 -24h-239q-20 0 -27 14q-6 14 6 37l379 655l-172 682q-10 45 37 45
z" />
    <glyph glyph-name="thorn" unicode="&#xfe;" horiz-adv-x="987" 
d="M472 246q60 0 103 46t53 117t-19 117q-30 46 -90 45q-60 0 -103 -46q-44 -45 -54 -115t20 -117t90 -47zM-25 -616q-14 0 -22 12t-6 26l276 1973q8 39 41 39h225q15 0 23 -12t6 -27l-84 -604q80 47 176 47q146 0 236 -127t64 -307t-149 -303q-124 -122 -298 -121
q-25 0 -74 11t-65 21l-82 -590q-8 -39 -41 -38h-226z" />
    <glyph glyph-name="ydieresis" unicode="&#xff;" horiz-adv-x="868" 
d="M309 1096q-53 0 -85 43t-23 102q8 59 51 101t96 42t87 -42t25 -101q-10 -59 -54 -102t-97 -43zM688 1096q-53 0 -85 43t-23 102q8 59 51 101t96 42t87 -42t25 -101t-53 -102t-98 -43zM78 819h209q23 0 26 -22l90 -375h3l182 375q10 23 35 22h237q20 0 26 -16t-3 -37
l-754 -1356q-12 -25 -35 -24h-239q-20 0 -27 14q-6 14 6 37l379 655l-172 682q-10 45 37 45z" />
    <glyph glyph-name="Amacron" unicode="&#x100;" 
d="M528 1640q-35 0 -30 37l12 84q6 39 41 39h475q35 0 29 -39l-15 -84q-8 -37 -41 -37h-471zM489 492h230l-64 342h-2zM-51 0q-20 0 -28 16q-7 16 3 37l776 1379q14 23 35 22h19q20 0 28 -22l385 -1379q6 -21 -6 -37t-33 -16h-231q-55 0 -66 51l-34 162h-453l-80 -164
q-23 -49 -82 -49h-233z" />
    <glyph glyph-name="amacron" unicode="&#x101;" horiz-adv-x="972" 
d="M426 246q58 0 104 52t45 120q0 68 -32 111q-33 42 -87 42t-102 -55q-48 -54 -49 -122q0 -68 31 -108q32 -40 90 -40zM743 0h-106q-27 0 -31 31l-12 71q-41 -45 -115 -84t-162 -38q-137 0 -213 108t-75 270q0 201 124 341t293 141q74 0 136 -33t86 -66l22 -30l41 84
q12 25 39 24h96q14 0 23 -11q8 -12 6 -28l-111 -741q-8 -39 -41 -39zM340 1153q-33 0 -29 37l11 84q4 39 40 39h474q14 0 22 -11t6 -28l-12 -84q-4 -37 -39 -37h-473z" />
    <glyph glyph-name="Abreve" unicode="&#x102;" 
d="M772 1563q-106 1 -173 71t-64 174q0 18 12 32t28 13h89q24 1 28 -33t29 -62q53 -59 123 2q33 30 47 62t39 31h102q16 0 26 -13t5 -32q-25 -109 -105 -177t-186 -68zM489 492h230l-64 342h-2zM-51 0q-20 0 -28 16q-7 16 3 37l776 1379q14 23 35 22h19q20 0 28 -22
l385 -1379q6 -21 -6 -37t-33 -16h-231q-55 0 -66 51l-34 162h-453l-80 -164q-23 -49 -82 -49h-233z" />
    <glyph glyph-name="abreve" unicode="&#x103;" horiz-adv-x="972" 
d="M426 246q58 0 104 52t45 120q0 68 -32 111q-33 42 -87 42t-102 -55q-48 -54 -49 -122q0 -68 31 -108q32 -40 90 -40zM743 0h-106q-27 0 -31 31l-12 71q-41 -45 -115 -84t-162 -38q-137 0 -213 108t-75 270q0 201 124 341t293 141q74 0 136 -33t86 -66l22 -30l41 84
q12 25 39 24h96q14 0 23 -11q8 -12 6 -28l-111 -741q-8 -39 -41 -39zM556 1079q-106 0 -172 71q-67 71 -65 175q1 17 13 31t28 14h89q23 0 27 -34t30 -61q26 -28 58 -28t65 30t47 62t39 31h102q15 0 25 -13t6 -32q-26 -109 -106 -177t-186 -69z" />
    <glyph glyph-name="Aogonek" unicode="&#x104;" 
d="M489 492h230l-64 342h-2zM-51 0q-20 0 -28 16q-7 16 3 37l776 1379q14 23 35 22h19q20 0 28 -22l385 -1379q6 -21 -6 -37t-33 -16h-170q-111 -104 -110 -219q0 -49 29 -81t88 -32q13 0 51 8t50 -4t7 -30l-10 -68q-4 -31 -35 -39q-43 -16 -128 -16t-155 52q-69 52 -69 152
q0 101 54 181t108 116l-41 193h-453l-80 -164q-23 -49 -82 -49h-233z" />
    <glyph glyph-name="aogonek" unicode="&#x105;" horiz-adv-x="972" 
d="M426 246q58 0 104 52t45 120q0 68 -32 111q-33 42 -87 42t-102 -55q-48 -54 -49 -122q0 -68 31 -108q32 -40 90 -40zM743 0h-12q-111 -104 -110 -219q1 -49 29 -81t87 -32q14 0 52 8q37 8 49 -4t8 -30l-10 -68q-4 -31 -35 -39q-43 -16 -128 -16t-155 52t-70 135t34 153
q34 71 65 103t61 56l-14 84q-41 -45 -115 -84t-162 -38q-137 0 -213 108t-75 270q0 201 124 341t293 141q74 0 136 -33t86 -66l22 -30l41 84q12 25 39 24h96q14 0 23 -11q8 -12 6 -28l-111 -741q-8 -39 -41 -39z" />
    <glyph glyph-name="Cacute" unicode="&#x106;" horiz-adv-x="1261" 
d="M743 1561q-33 -16 -47 18l-37 96q-10 27 17 39l352 213q35 23 51 -14l54 -123q18 -45 -21 -61zM92 625q0 353 219 591t549 238q266 0 430 -190q23 -31 -8 -58l-176 -155q-25 -23 -47 0q-83 94 -231 94q-148 1 -265 -145t-117 -341q0 -147 77 -249t193 -102t245 106
q10 8 25 8t24 -10l139 -185q18 -27 -10 -55q-207 -192 -453 -192t-420 190t-174 455z" />
    <glyph glyph-name="cacute" unicode="&#x107;" horiz-adv-x="804" 
d="M377 1049q-33 -16 -47 18l-37 96q-10 27 16 39l353 213q35 23 51 -14l53 -123q18 -45 -21 -61zM25 358q0 203 133 342q133 140 311 140t281 -148q20 -31 -17 -57l-129 -111q-16 -16 -37 4q-43 43 -101 43t-104 -55q-46 -54 -47 -122q0 -68 29 -108t79 -40t116 61
q20 25 45 0l108 -108q27 -27 6 -58q-119 -162 -323 -161q-145 0 -248 109q-102 109 -102 269z" />
    <glyph glyph-name="Ccircumflex" unicode="&#x108;" horiz-adv-x="1261" 
d="M676 1561q-25 -14 -39 8l-55 96q-12 20 16 39l285 213q29 20 49 0l233 -213q20 -20 6 -39l-73 -94q-8 -10 -20 -13t-19 3l-166 122zM92 625q0 353 219 591t549 238q266 0 430 -190q23 -31 -8 -58l-176 -155q-25 -23 -47 0q-83 94 -231 94q-148 1 -265 -145t-117 -341
q0 -147 77 -249t193 -102t245 106q10 8 25 8t24 -10l139 -185q18 -27 -10 -55q-207 -192 -453 -192t-420 190t-174 455z" />
    <glyph glyph-name="ccircumflex" unicode="&#x109;" horiz-adv-x="804" 
d="M307 1049q-25 -14 -39 8l-55 96q-12 20 16 39l285 213q29 20 49 0l234 -213q20 -20 6 -39l-74 -94q-8 -10 -20 -13t-19 3l-166 122zM25 358q0 203 133 342q133 140 311 140t281 -148q20 -31 -17 -57l-129 -111q-16 -16 -37 4q-43 43 -101 43t-104 -55q-46 -54 -47 -122
q0 -68 29 -108t79 -40t116 61q20 25 45 0l108 -108q27 -27 6 -58q-119 -162 -323 -161q-145 0 -248 109q-102 109 -102 269z" />
    <glyph glyph-name="Cdotaccent" unicode="&#x10a;" horiz-adv-x="1261" 
d="M1057 1760q1 -67 -55 -121t-120 -54t-103 41q-38 40 -38 108q-1 68 53 122t120 55q66 0 104 -42q39 -42 39 -109zM92 625q0 353 219 591t549 238q266 0 430 -190q23 -31 -8 -58l-176 -155q-25 -23 -47 0q-83 94 -231 94q-148 1 -265 -145t-117 -341q0 -147 77 -249
t193 -102t245 106q10 8 25 8t24 -10l139 -185q18 -27 -10 -55q-207 -192 -453 -192t-420 190t-174 455z" />
    <glyph glyph-name="cdotaccent" unicode="&#x10b;" horiz-adv-x="804" 
d="M516 1067q-64 0 -103 41q-38 42 -38 108t54 121q55 55 119 55t103 -41q39 -42 39 -109t-55 -121t-119 -54zM25 358q0 203 133 342q133 140 311 140t281 -148q20 -31 -17 -57l-129 -111q-16 -16 -37 4q-43 43 -101 43t-104 -55q-46 -54 -47 -122q0 -68 29 -108t79 -40
t116 61q20 25 45 0l108 -108q27 -27 6 -58q-119 -162 -323 -161q-145 0 -248 109q-102 109 -102 269z" />
    <glyph glyph-name="Ccaron" unicode="&#x10c;" horiz-adv-x="1261" 
d="M852 1561l-234 213q-20 20 -6 38l74 95q8 10 20 13t19 -3l166 -123l217 123q25 14 39 -8l55 -97q12 -20 -16 -38l-285 -213q-29 -20 -49 0zM92 625q0 353 219 591t549 238q266 0 430 -190q23 -31 -8 -58l-176 -155q-25 -23 -47 0q-83 94 -231 94q-148 1 -265 -145
t-117 -341q0 -147 77 -249t193 -102t245 106q10 8 25 8t24 -10l139 -185q18 -27 -10 -55q-207 -192 -453 -192t-420 190t-174 455z" />
    <glyph glyph-name="ccaron" unicode="&#x10d;" horiz-adv-x="804" 
d="M481 1049l-233 213q-20 20 -6 38l73 95q9 10 21 13t18 -3l166 -123l217 123q25 14 39 -8l55 -97q12 -20 -16 -38l-285 -213q-29 -20 -49 0zM25 358q0 203 133 342q133 140 311 140t281 -148q20 -31 -17 -57l-129 -111q-16 -16 -37 4q-43 43 -101 43t-104 -55
q-46 -54 -47 -122q0 -68 29 -108t79 -40t116 61q20 25 45 0l108 -108q27 -27 6 -58q-119 -162 -323 -161q-145 0 -248 109q-102 109 -102 269z" />
    <glyph glyph-name="Dcaron" unicode="&#x10e;" horiz-adv-x="1388" 
d="M715 1561l-234 213q-20 20 -6 38l74 95q8 10 20 13t19 -3l166 -123l217 123q25 14 39 -8l55 -97q12 -20 -16 -38l-285 -213q-29 -20 -49 0zM608 303q160 0 274 141t113 342q0 147 -74 247q-75 99 -196 100h-154l-116 -830h153zM782 1434q236 0 396 -188t159 -435
q0 -335 -217 -573t-538 -238h-459q-14 0 -23 11q-8 12 -4 28l191 1356q2 14 13 26t26 13h456z" />
    <glyph glyph-name="dcaron" unicode="&#x10f;" horiz-adv-x="1064" 
d="M1196 1161q-52 0 -86 37q-35 38 -35 98t52 109q53 49 117 49t110 -47t45 -143q0 -246 -230 -414q-24 -18 -36 -2l-29 39q-18 25 6 41t53 41t69 84t50 123h-4q-30 -15 -82 -15zM433 246q54 0 103 54q48 54 49 120t-34 109q-35 42 -90 42t-101 -55q-46 -54 -47 -122
q0 -68 33 -108t87 -40zM729 1434h232q14 0 23 -12t7 -27l-190 -1356q-8 -39 -41 -39h-96q-23 0 -31 25l-23 77q-112 -122 -262 -122t-234 112q-85 112 -85 270q0 201 131 339t301 139q75 0 141 -33l84 588q6 39 43 39z" />
    <glyph glyph-name="Dcroat" unicode="&#x110;" horiz-adv-x="1398" 
d="M618 303q160 0 274 141t114 342q0 146 -75 246t-196 101h-153l-54 -367h234q14 0 24 -11t7 -28l-7 -37q-8 -37 -41 -37h-231l-49 -350h153zM139 653q-14 1 -22 13t-6 26l6 35q8 39 37 39h55l88 629q2 14 13 26t26 13h457q239 0 397 -184t158 -439q0 -335 -220 -573
t-536 -238h-459q-15 0 -23 12t-4 27l87 614h-54z" />
    <glyph glyph-name="dcroat" unicode="&#x111;" horiz-adv-x="983" 
d="M433 246q54 0 103 54q48 54 49 120t-34 109q-35 42 -90 42t-101 -55q-46 -54 -47 -122q0 -68 33 -108t87 -40zM489 1087q-16 -1 -24 11t-6 26l6 37q8 39 39 39h153l29 195q6 39 43 39h232q14 0 23 -12t7 -27l-28 -195h59q14 0 24 -12t7 -27l-6 -35q-8 -39 -39 -39h-60
l-147 -1048q-8 -39 -41 -39h-96q-23 0 -31 25l-23 77q-112 -122 -262 -122t-234 112q-85 112 -85 270q0 201 131 339t301 139q75 0 141 -33l39 280h-152z" />
    <glyph glyph-name="Emacron" unicode="&#x112;" horiz-adv-x="1114" 
d="M504 1640q-35 0 -31 37l12 84q6 39 41 39h475q35 0 29 -39l-14 -84q-8 -37 -41 -37h-471zM1098 1434q14 0 23 -12t7 -27l-32 -224q-2 -16 -14 -27t-25 -11h-488l-37 -254h398q14 1 23 -11t8 -28l-33 -224q-2 -16 -14 -27t-27 -11h-395l-39 -277h487q33 0 29 -39l-31 -223
q-2 -15 -14 -27t-27 -12h-772q-14 0 -24 11q-9 12 -5 28l191 1356q2 14 13 26t26 13h772z" />
    <glyph glyph-name="emacron" unicode="&#x113;" horiz-adv-x="811" 
d="M303 1153q-33 0 -29 37l11 84q4 39 41 39h473q14 0 22 -11t6 -28l-12 -84q-4 -37 -39 -37h-473zM473 627q-47 0 -95 -36t-61 -87q126 0 182 45q22 16 21 37q0 41 -47 41zM25 338q0 209 137 355t342 147q110 0 190 -60t80 -155q0 -133 -127 -205t-354 -72
q-4 -121 108 -121q57 0 119 49q27 23 51 -8l86 -112q23 -25 -4 -56q-119 -120 -282 -120t-255 106t-91 252z" />
    <glyph glyph-name="Ebreve" unicode="&#x114;" horiz-adv-x="1114" 
d="M742 1563q-106 1 -172 71q-67 70 -64 174q0 18 12 32t29 13h88q23 1 28 -33t29 -62t58 -28t66 30t46 62t39 31h103q16 0 25 -13t5 -32q-26 -109 -106 -177t-186 -68zM1098 1434q14 0 23 -12t7 -27l-32 -224q-2 -16 -14 -27t-25 -11h-488l-37 -254h398q14 1 23 -11t8 -28
l-33 -224q-2 -16 -14 -27t-27 -11h-395l-39 -277h487q33 0 29 -39l-31 -223q-2 -15 -14 -27t-27 -12h-772q-14 0 -24 11q-9 12 -5 28l191 1356q2 14 13 26t26 13h772z" />
    <glyph glyph-name="ebreve" unicode="&#x115;" horiz-adv-x="811" 
d="M548 1079q-106 0 -172 71q-67 71 -65 175q1 17 13 31t28 14h88q23 0 28 -34t30 -61q26 -28 58 -28t65 30t47 62t39 31h102q15 0 25 -13t6 -32q-26 -109 -106 -177t-186 -69zM473 627q-47 0 -95 -36t-61 -87q126 0 182 45q22 16 21 37q0 41 -47 41zM25 338q0 209 137 355
t342 147q110 0 190 -60t80 -155q0 -133 -127 -205t-354 -72q-4 -121 108 -121q57 0 119 49q27 23 51 -8l86 -112q23 -25 -4 -56q-119 -120 -282 -120t-255 106t-91 252z" />
    <glyph glyph-name="Edotaccent" unicode="&#x116;" horiz-adv-x="1114" 
d="M738 1585q-64 0 -102 41q-38 40 -38 108t53 122t119 55q66 0 104 -42q39 -42 39 -109t-55 -121q-56 -54 -120 -54zM1098 1434q14 0 23 -12t7 -27l-32 -224q-2 -16 -14 -27t-25 -11h-488l-37 -254h398q14 1 23 -11t8 -28l-33 -224q-2 -16 -14 -27t-27 -11h-395l-39 -277
h487q33 0 29 -39l-31 -223q-2 -15 -14 -27t-27 -12h-772q-14 0 -24 11q-9 12 -5 28l191 1356q2 14 13 26t26 13h772z" />
    <glyph glyph-name="edotaccent" unicode="&#x117;" horiz-adv-x="811" 
d="M709 1242q1 -67 -55 -121t-120 -54t-103 41q-38 42 -38 108t54 121q55 55 119 55t104 -41q40 -42 39 -109zM473 627q-47 0 -95 -36t-61 -87q126 0 182 45q22 16 21 37q0 41 -47 41zM25 338q0 209 137 355t342 147q110 0 190 -60t80 -155q0 -133 -127 -205t-354 -72
q-4 -121 108 -121q57 0 119 49q27 23 51 -8l86 -112q23 -25 -4 -56q-119 -120 -282 -120t-255 106t-91 252z" />
    <glyph glyph-name="Eogonek" unicode="&#x118;" horiz-adv-x="1114" 
d="M1098 1434q14 0 23 -12t7 -27l-32 -224q-2 -16 -14 -27t-25 -11h-488l-37 -254h398q14 1 23 -11t8 -28l-33 -224q-2 -16 -14 -27t-27 -11h-395l-39 -277h487q33 0 29 -39l-27 -199q-5 -28 -23 -45q-131 -119 -131 -237q0 -49 29 -81t88 -32q14 0 52 8q37 8 49 -4t8 -30
l-10 -68q-4 -31 -35 -39q-43 -16 -128 -16t-155 52t-70 146q0 154 140 283h-631q-14 0 -24 11q-9 12 -5 28l191 1356q2 14 13 26t26 13h772z" />
    <glyph glyph-name="eogonek" unicode="&#x119;" horiz-adv-x="811" 
d="M473 627q-47 0 -95 -36t-61 -87q126 0 182 45q22 16 21 37q0 41 -47 41zM774 625q0 -133 -127 -205t-354 -72q-4 -121 108 -121q57 0 119 49q27 23 51 -8l86 -112q23 -25 -4 -56q-94 -96 -237 -116q-94 -98 -94 -203q0 -49 28 -81t88 -32q14 0 52 8t50 -4t7 -30l-10 -68
q-4 -31 -35 -39q-43 -16 -128 -16t-155 52t-69 146q-1 146 126 273q-116 27 -184 125t-67 223q0 209 137 355t342 147q110 0 190 -60t80 -155z" />
    <glyph glyph-name="Ecaron" unicode="&#x11a;" horiz-adv-x="1114" 
d="M700 1561l-233 213q-20 20 -6 38l74 95q8 10 20 13t18 -3l166 -123l217 123q25 14 39 -8l56 -97q12 -20 -17 -38l-284 -213q-30 -20 -50 0zM1098 1434q14 0 23 -12t7 -27l-32 -224q-2 -16 -14 -27t-25 -11h-488l-37 -254h398q14 1 23 -11t8 -28l-33 -224q-2 -16 -14 -27
t-27 -11h-395l-39 -277h487q33 0 29 -39l-31 -223q-2 -15 -14 -27t-27 -12h-772q-14 0 -24 11q-9 12 -5 28l191 1356q2 14 13 26t26 13h772z" />
    <glyph glyph-name="ecaron" unicode="&#x11b;" horiz-adv-x="811" 
d="M496 1049l-234 213q-20 20 -6 38l74 95q8 10 20 13t19 -3l166 -123l217 123q25 14 39 -8l55 -97q12 -20 -17 -38l-284 -213q-29 -20 -49 0zM473 627q-47 0 -95 -36t-61 -87q126 0 182 45q22 16 21 37q0 41 -47 41zM25 338q0 209 137 355t342 147q110 0 190 -60t80 -155
q0 -133 -127 -205t-354 -72q-4 -121 108 -121q57 0 119 49q27 23 51 -8l86 -112q23 -25 -4 -56q-119 -120 -282 -120t-255 106t-91 252z" />
    <glyph glyph-name="Gcircumflex" unicode="&#x11c;" horiz-adv-x="1318" 
d="M670 1561q-25 -14 -39 8l-56 96q-12 20 17 39l285 213q29 20 49 0l233 -213q20 -20 6 -39l-73 -94q-8 -10 -20 -13t-19 3l-166 122zM94 633q0 341 219 581t549 240q113 0 229 -51t195 -141q29 -25 -2 -56l-168 -166q-12 -12 -27 -12t-26 10q-89 90 -231 90t-262 -141
t-119 -330q-1 -145 79 -247t199 -103q80 0 131 33l17 119h-95q-35 0 -30 37l28 202q6 39 41 39h383q14 0 22 -11t7 -28l-76 -551q-2 -18 -20 -32q-23 -14 -65 -37t-167 -61t-243 -37q-238 0 -403 190t-165 463z" />
    <glyph glyph-name="gcircumflex" unicode="&#x11d;" horiz-adv-x="980" 
d="M434 246q58 0 104 52t46 120t-33 111q-33 42 -87 42t-102 -55q-48 -54 -49 -122q0 -68 31 -108q32 -40 90 -40zM29 352q0 199 124 342t302 144q136 0 211 -83q19 -20 32 -46l35 82q12 29 45 28h96q14 0 22 -11t7 -28l-117 -846q-68 -467 -452 -466q-121 0 -209 52
q-177 105 -123 171l92 110q31 37 68 0q70 -76 157 -75q135 0 164 208l9 78q-70 -33 -150 -32q-123 0 -218 110t-95 262zM352 1049q-25 -14 -39 8l-55 96q-12 20 16 39l285 213q29 20 49 0l234 -213q20 -20 6 -39l-74 -94q-8 -10 -20 -13t-19 3l-166 122z" />
    <glyph glyph-name="Gbreve" unicode="&#x11e;" horiz-adv-x="1318" 
d="M884 1563q-106 1 -172 71q-67 70 -65 174q0 18 12 32t29 13h88q23 1 28 -33t30 -62q54 -60 122 2q33 30 52 69q10 25 34 24h103q16 0 25 -13t6 -32q-26 -109 -106 -177t-186 -68zM94 633q0 341 219 581t549 240q113 0 229 -51t195 -141q29 -25 -2 -56l-168 -166
q-12 -12 -27 -12t-26 10q-89 90 -231 90t-262 -141t-119 -330q-1 -145 79 -247t199 -103q80 0 131 33l17 119h-95q-35 0 -30 37l28 202q6 39 41 39h383q14 0 22 -11t7 -28l-76 -551q-2 -18 -20 -32q-23 -14 -65 -37t-167 -61t-243 -37q-238 0 -403 190t-165 463z" />
    <glyph glyph-name="gbreve" unicode="&#x11f;" horiz-adv-x="980" 
d="M434 246q58 0 104 52t46 120t-33 111q-33 42 -87 42t-102 -55q-48 -54 -49 -122q0 -68 31 -108q32 -40 90 -40zM29 352q0 199 124 342t302 144q136 0 211 -83q19 -20 32 -46l35 82q12 29 45 28h96q14 0 22 -11t7 -28l-117 -846q-68 -467 -452 -466q-121 0 -209 52
q-177 105 -123 171l92 110q31 37 68 0q70 -76 157 -75q135 0 164 208l9 78q-70 -33 -150 -32q-123 0 -218 110t-95 262zM562 1079q-106 0 -172 71q-67 71 -64 175q0 17 12 31t29 14h88q23 0 27 -34t30 -61q26 -28 58 -28t65 30t47 62t39 31h102q15 0 25 -13t6 -32
q-26 -109 -106 -177t-186 -69z" />
    <glyph glyph-name="Gdotaccent" unicode="&#x120;" horiz-adv-x="1318" 
d="M737 1734q-1 68 53 122t119 55q65 0 105 -42t39 -109q1 -67 -55 -121t-120 -54t-103 41q-38 40 -38 108zM94 633q0 341 219 581t549 240q113 0 229 -51t195 -141q29 -25 -2 -56l-168 -166q-12 -12 -27 -12t-26 10q-89 90 -231 90t-262 -141t-119 -330q-1 -145 79 -247
t199 -103q80 0 131 33l17 119h-95q-35 0 -30 37l28 202q6 39 41 39h383q14 0 22 -11t7 -28l-76 -551q-2 -18 -20 -32q-23 -14 -65 -37t-167 -61t-243 -37q-238 0 -403 190t-165 463z" />
    <glyph glyph-name="gdotaccent" unicode="&#x121;" horiz-adv-x="980" 
d="M434 246q58 0 104 52t46 120t-33 111q-33 42 -87 42t-102 -55q-48 -54 -49 -122q0 -68 31 -108q32 -40 90 -40zM29 352q0 199 124 342t302 144q136 0 211 -83q19 -20 32 -46l35 82q12 29 45 28h96q14 0 22 -11t7 -28l-117 -846q-68 -467 -452 -466q-121 0 -209 52
q-177 105 -123 171l92 110q31 37 68 0q70 -76 157 -75q135 0 164 208l9 78q-70 -33 -150 -32q-123 0 -218 110t-95 262zM556 1067q-64 0 -102 41q-38 42 -38 108t54 121t118 55t104 -41q39 -42 39 -109t-55 -121q-56 -54 -120 -54z" />
    <glyph glyph-name="Gcommaaccent" unicode="&#x122;" horiz-adv-x="1318" 
d="M590 -477q-52 0 -88 37q-35 38 -35 98t52 109q53 49 117 49t109 -47t46 -144q0 -246 -230 -413q-25 -18 -37 -3l-28 39q-18 25 6 41t53 41t69 84t50 123h-4q-28 -14 -80 -14zM94 633q0 341 219 581t549 240q113 0 229 -51t195 -141q29 -25 -2 -56l-168 -166
q-12 -12 -27 -12t-26 10q-89 90 -231 90t-262 -141t-119 -330q-1 -145 79 -247t199 -103q80 0 131 33l17 119h-95q-35 0 -30 37l28 202q6 39 41 39h383q14 0 22 -11t7 -28l-76 -551q-2 -18 -20 -32q-23 -14 -65 -37t-167 -61t-243 -37q-238 0 -403 190t-165 463z" />
    <glyph glyph-name="gcommaaccent" unicode="&#x123;" horiz-adv-x="980" 
d="M434 246q58 0 104 52t46 120t-33 111q-33 42 -87 42t-102 -55q-48 -54 -49 -122q0 -68 31 -108q32 -40 90 -40zM29 352q0 199 124 342t302 144q136 0 211 -83q19 -20 32 -46l35 82q12 29 45 28h96q14 0 22 -11t7 -28l-117 -846q-68 -467 -452 -466q-121 0 -209 52
q-177 105 -123 171l92 110q31 37 68 0q70 -76 157 -75q135 0 164 208l9 78q-70 -33 -150 -32q-123 0 -218 110t-95 262zM562 1079q-64 0 -109 47t-45 144q0 246 229 413q25 18 37 3l28 -39q18 -25 -6 -41t-53 -41t-69 -84t-50 -123l4 2q4 0 26 6t65 6q42 0 77 -37t35 -97
t-52 -110q-53 -49 -117 -49z" />
    <glyph glyph-name="Hcircumflex" unicode="&#x124;" horiz-adv-x="1464" 
d="M666 1561q-25 -14 -39 8l-56 96q-12 20 17 39l284 213q29 20 50 0l233 -213q20 -20 6 -39l-74 -94q-8 -10 -20 -13t-18 3l-166 122zM578 1434q14 0 23 -12t7 -27l-73 -516h479l71 516q3 16 15 27t26 12h252q14 0 24 -12t7 -27l-190 -1356q-3 -15 -15 -27t-26 -12h-254
q-33 0 -29 39l76 539h-477l-76 -539q-8 -39 -41 -39h-252q-14 0 -23 11q-8 12 -6 28l191 1356q2 14 14 26t27 13h250z" />
    <glyph glyph-name="hcircumflex" unicode="&#x125;" horiz-adv-x="1019" 
d="M190 1493q-25 -14 -38 8l-56 96q-12 20 17 39l284 213q29 20 49 0l234 -213q20 -20 6 -39l-74 -94q-8 -10 -20 -13t-19 3l-165 123zM500 1434q14 0 23 -12t7 -27l-86 -602q72 47 162 47q162 0 247 -127t60 -303l-51 -371q-8 -39 -41 -39h-227q-33 0 -29 39l51 371
q10 70 -18 116t-86 45q-100 0 -121 -161l-51 -371q-6 -39 -47 -39h-232q-14 0 -22 12t-6 27l190 1356q3 14 15 26t26 13h236z" />
    <glyph glyph-name="Hbar" unicode="&#x126;" horiz-adv-x="1464" 
d="M535 879h479l28 208h-477zM188 1087q-31 0 -26 39l4 35q2 15 13 27t26 12h53l29 195q2 14 14 26t27 13h250q14 0 23 -12t7 -27l-26 -195h477l26 195q3 16 15 27t26 12h252q14 0 24 -12t7 -27l-29 -195h56q14 0 24 -11t6 -28l-6 -37q-8 -37 -41 -37h-53l-147 -1048
q-8 -39 -41 -39h-254q-33 0 -29 39l76 539h-477l-76 -539q-8 -39 -41 -39h-252q-14 0 -23 12q-8 13 -6 27l148 1048h-56z" />
    <glyph glyph-name="hbar" unicode="&#x127;" horiz-adv-x="1019" 
d="M123 1087q-15 1 -23 13t-6 26l6 35q8 39 39 39h56l28 195q3 14 15 26t26 13h236q14 0 23 -12t7 -27l-28 -195h155q15 0 25 -11t6 -28l-6 -37q-8 -37 -41 -37h-156l-41 -294q72 47 162 47q162 0 247 -127t60 -303l-51 -371q-8 -39 -41 -39h-227q-33 0 -29 39l51 371
q10 70 -18 116t-86 45q-100 0 -121 -161l-51 -371q-6 -39 -47 -39h-232q-14 0 -22 12t-6 27l147 1048h-57z" />
    <glyph glyph-name="Itilde" unicode="&#x128;" horiz-adv-x="665" 
d="M413 1884q42 0 100 -48t96 -48t69 57q20 37 51 10l64 -53q23 -17 -29 -99q-75 -117 -180 -120q-50 0 -110 49t-94 49t-67 -61q-18 -39 -49 -12l-65 57q-23 23 22 91q85 128 192 128zM582 1434q14 0 22 -12t6 -27l-190 -1356q-2 -15 -13 -27t-26 -12h-256q-14 0 -23 11
q-8 12 -6 28l191 1356q2 14 13 26t26 13h256z" />
    <glyph glyph-name="itilde" unicode="&#x129;" horiz-adv-x="522" 
d="M178 819h236q14 0 23 -11t7 -28l-104 -741q-2 -15 -14 -27t-27 -12h-236q-14 0 -23 12t-7 27l104 741q3 16 15 28t26 11zM276 1413q42 0 100 -48t96 -48t69 57q20 37 51 10l63 -53q24 -17 -28 -99q-75 -117 -181 -120q-53 0 -112 49t-92 49t-66 -61q-18 -39 -49 -12
l-66 57q-24 24 23 91q86 128 192 128z" />
    <glyph glyph-name="Imacron" unicode="&#x12a;" horiz-adv-x="665" 
d="M240 1640q-35 0 -31 37l12 84q6 39 41 39h475q35 0 29 -39l-14 -84q-8 -37 -41 -37h-471zM582 1434q14 0 22 -12t6 -27l-190 -1356q-2 -15 -13 -27t-26 -12h-256q-14 0 -23 11q-8 12 -6 28l191 1356q2 14 13 26t26 13h256z" />
    <glyph glyph-name="imacron" unicode="&#x12b;" horiz-adv-x="522" 
d="M178 819h236q14 0 23 -11t7 -28l-104 -741q-2 -15 -14 -27t-27 -12h-236q-14 0 -23 12t-7 27l104 741q3 16 15 28t26 11zM92 1153q-33 0 -29 37l11 84q4 39 41 39h473q14 0 22 -11t6 -28l-12 -84q-4 -37 -39 -37h-473z" />
    <glyph glyph-name="Ibreve" unicode="&#x12c;" horiz-adv-x="665" 
d="M492 1563q-106 1 -172 71t-64 174q0 18 12 32t29 13h88q23 1 28 -33t29 -62t58 -28t66 30t46 62t39 31h103q16 0 25 -13t5 -32q-26 -109 -106 -177t-186 -68zM582 1434q14 0 22 -12t6 -27l-190 -1356q-2 -15 -13 -27t-26 -12h-256q-14 0 -23 11q-8 12 -6 28l191 1356
q2 14 13 26t26 13h256z" />
    <glyph glyph-name="ibreve" unicode="&#x12d;" horiz-adv-x="522" 
d="M178 819h236q14 0 23 -11t7 -28l-104 -741q-2 -15 -14 -27t-27 -12h-236q-14 0 -23 12t-7 27l104 741q3 16 15 28t26 11zM342 1079q-106 0 -173 71t-65 175q0 17 12 31t29 14h88q23 0 28 -34t30 -61q25 -28 57 -28t66 30q33 30 47 62t39 31h102q16 0 26 -13t5 -32
q-25 -109 -105 -177t-186 -69z" />
    <glyph glyph-name="Iogonek" unicode="&#x12e;" horiz-adv-x="665" 
d="M582 1434q14 0 22 -12t6 -27l-190 -1356q-2 -15 -13 -27t-26 -12h-68q-111 -104 -110 -219q1 -49 29 -81t87 -32q14 0 52 8q37 8 49 -4t8 -30l-10 -68q-4 -31 -35 -39q-43 -16 -128 -16t-155 52t-69 146q0 154 139 283h-45q-14 0 -23 11q-8 12 -6 28l191 1356q2 14 13 26
t26 13h256z" />
    <glyph glyph-name="iogonek" unicode="&#x12f;" horiz-adv-x="522" 
d="M178 819h236q14 0 23 -11t7 -28l-104 -741q-2 -15 -14 -27t-27 -12h-63q-111 -104 -111 -219q0 -49 29 -81t88 -32q14 0 52 8t48 -4q12 -12 8 -30l-10 -68q-4 -31 -35 -39q-43 -16 -128 -16t-155 52t-69 146q0 154 139 283h-29q-14 0 -23 12t-7 27l104 741q3 16 15 28
t26 11zM336 1067q-66 0 -105 41q-39 42 -39 108t56 121q54 55 120 55t106 -41q40 -42 40 -110t-56 -121t-122 -53z" />
    <glyph glyph-name="Idotaccent" unicode="&#x130;" horiz-adv-x="665" 
d="M478 1585q-64 0 -102 41q-38 40 -38 108t53 122t119 55q66 0 104 -42q39 -42 39 -109t-55 -121q-56 -54 -120 -54zM582 1434q14 0 22 -12t6 -27l-190 -1356q-2 -15 -13 -27t-26 -12h-256q-14 0 -23 11q-8 12 -6 28l191 1356q2 14 13 26t26 13h256z" />
    <glyph glyph-name="dotlessi" unicode="&#x131;" horiz-adv-x="522" 
d="M178 819h236q14 0 23 -11t7 -28l-104 -741q-2 -15 -14 -27t-27 -12h-236q-14 0 -23 12t-7 27l104 741q3 16 15 28t26 11z" />
    <glyph glyph-name="IJ" unicode="&#x132;" horiz-adv-x="1478" 
d="M851 274q48 0 83 45t47 125l131 951q2 16 13 27t26 12h256q15 0 25 -12t8 -27l-137 -967q-63 -449 -447 -448q-186 -1 -276 149q-14 25 8 51l135 133q25 25 47 0q33 -39 81 -39zM582 1434q14 0 22 -12t6 -27l-190 -1356q-2 -15 -13 -27t-26 -12h-256q-14 0 -23 11
q-8 12 -6 28l191 1356q2 14 13 26t26 13h256z" />
    <glyph glyph-name="ij" unicode="&#x133;" horiz-adv-x="1060" 
d="M715 819h239q14 0 22 -11t7 -28l-137 -968q-29 -215 -148 -331t-309 -116q-65 0 -131 26t-85 49t-3 50l96 164q16 29 45 14q53 -27 97 -26q106 0 131 170l135 968q2 16 14 28t27 11zM1053 1241q1 -68 -55 -121t-122 -53t-106 41q-39 40 -39 108t55 122q56 54 122 54
t106 -41q40 -42 39 -110zM178 819h236q14 0 23 -11t7 -28l-104 -741q-2 -15 -14 -27t-27 -12h-236q-14 0 -23 12t-7 27l104 741q3 16 15 28t26 11zM336 1067q-66 0 -105 41q-39 42 -39 108t56 121q54 55 120 55t106 -41q40 -42 40 -110t-56 -121t-122 -53z" />
    <glyph glyph-name="Jcircumflex" unicode="&#x134;" horiz-adv-x="833" 
d="M440 1561q-25 -14 -39 8l-55 96q-12 20 16 39l285 213q29 20 49 0l234 -213q20 -20 6 -39l-74 -94q-8 -10 -20 -13t-19 3l-166 122zM204 274q48 0 83 45t47 125l131 951q2 16 13 27t26 12h256q14 0 24 -12t9 -27l-138 -967q-63 -449 -446 -448q-187 -1 -277 149
q-14 25 9 51l135 133q25 25 47 0q33 -39 81 -39z" />
    <glyph glyph-name="jcircumflex" unicode="&#x135;" horiz-adv-x="524" 
d="M117 1049q-25 -14 -39 8l-55 96q-12 20 16 39l285 213q29 20 49 0l233 -213q20 -20 6 -39l-73 -94q-9 -10 -21 -13t-18 3l-166 122zM178 819h240q14 0 22 -11t6 -28l-137 -968q-29 -215 -147 -331t-309 -116q-66 0 -132 26t-85 49t-3 50l97 164q16 29 45 14
q53 -27 96 -26q106 0 131 170l135 968q3 16 15 28t26 11z" />
    <glyph glyph-name="Kcommaaccent" unicode="&#x136;" horiz-adv-x="1290" 
d="M526 -477q-52 0 -88 37q-35 38 -35 98q1 60 53 109t116 49t110 -47q45 -47 45 -144q0 -246 -229 -413q-25 -18 -37 -3l-29 39q-18 25 6 41t54 41q29 25 68 84q40 59 50 123h-4q-28 -14 -80 -14zM586 1434q18 0 29 -14t10 -36l-76 -538l426 567q14 20 37 21h297
q27 0 33 -27t-9 -49l-489 -623l340 -676q10 -23 -6 -41t-35 -18h-283q-29 0 -41 27l-297 632l-86 -610q-2 -21 -17 -35t-34 -14h-248q-17 0 -29 14t-10 35l189 1335q8 49 51 50h248z" />
    <glyph glyph-name="kcommaaccent" unicode="&#x137;" horiz-adv-x="980" 
d="M394 -477q-52 0 -87 37q-35 38 -35 98t52 109t118 49q64 0 109 -47t45 -144q0 -246 -229 -413q-25 -18 -37 -3l-29 39q-18 25 6 41t53 41t69 84t50 123h-4q-29 -14 -81 -14zM498 1434q14 0 23 -12t7 -27l-125 -887l230 287q20 25 49 24h258q25 0 33 -20t-10 -43
l-293 -344l198 -351q12 -21 -1 -41t-36 -20h-251q-18 0 -25 16l-170 357l-47 -334q-8 -39 -41 -39h-236q-14 0 -22 12t-6 27l190 1356q1 14 13 26t26 13h236z" />
    <glyph glyph-name="kgreenlandic" unicode="&#x138;" horiz-adv-x="964" 
d="M178 819h232q14 0 22 -11t6 -28l-45 -313l238 328q18 25 51 24h229q25 0 31 -20t-12 -43l-277 -369l213 -326q12 -21 -1 -41t-36 -20h-235q-14 0 -23 16l-196 316l-41 -293q-2 -15 -14 -27t-27 -12h-232q-14 0 -22 12t-6 27l104 741q3 14 15 26t26 13z" />
    <glyph glyph-name="Lacute" unicode="&#x139;" horiz-adv-x="964" 
d="M334 1561q-33 -16 -47 18l-37 96q-10 27 16 39l352 213q35 23 52 -14l53 -123q18 -45 -21 -61zM582 1434q14 0 22 -12t6 -27l-153 -1094h417q33 0 29 -39l-31 -223q-2 -15 -14 -27t-27 -12h-704q-14 0 -24 11q-9 12 -7 28l191 1356q2 16 14 27t27 12h254z" />
    <glyph glyph-name="lacute" unicode="&#x13a;" horiz-adv-x="520" 
d="M260 1493q-33 -16 -47 18l-37 97q-10 27 17 39l352 213q35 23 51 -15l53 -123q18 -45 -20 -61zM498 1434q14 0 23 -12t7 -27l-190 -1356q-2 -15 -14 -27t-27 -12h-236q-14 0 -22 12t-6 27l190 1356q3 14 15 26t26 13h234z" />
    <glyph glyph-name="Lcommaaccent" unicode="&#x13b;" horiz-adv-x="962" 
d="M428 -477q-52 0 -88 37q-35 38 -35 98t52 109q53 49 117 49t110 -47t45 -144q0 -246 -230 -413q-25 -18 -37 -3l-28 39q-18 25 6 41t53 41t69 84t50 123h-4q-28 -14 -80 -14zM582 1434q14 0 22 -12t6 -27l-153 -1094h417q33 0 29 -39l-31 -223q-2 -15 -14 -27t-27 -12
h-704q-14 0 -24 11q-9 12 -7 28l191 1356q2 16 14 27t27 12h254z" />
    <glyph glyph-name="lcommaaccent" unicode="&#x13c;" horiz-adv-x="520" 
d="M108 -477q-52 0 -88 37q-34 38 -34 98t52 109t116 49t110 -47q45 -47 45 -144q0 -246 -229 -413q-25 -18 -37 -3l-29 39q-18 25 6 41t54 41q29 25 68 84q40 59 51 123h-5q-28 -14 -80 -14zM498 1434q14 0 23 -12t7 -27l-190 -1356q-2 -15 -14 -27t-27 -12h-236
q-14 0 -22 12t-6 27l190 1356q3 14 15 26t26 13h234z" />
    <glyph glyph-name="Lcaron" unicode="&#x13d;" horiz-adv-x="962" 
d="M820 1161q-52 0 -87 37q-35 38 -35 98t52 109t118 49q64 0 109 -47t45 -143q0 -246 -229 -414q-25 -18 -37 -2l-29 39q-18 25 6 41t53 41t69 84t50 123h-4q-29 -15 -81 -15zM582 1434q14 0 22 -12t6 -27l-153 -1094h417q33 0 29 -39l-31 -223q-2 -15 -14 -27t-27 -12
h-704q-14 0 -24 11q-9 12 -7 28l191 1356q2 16 14 27t27 12h254z" />
    <glyph glyph-name="lcaron" unicode="&#x13e;" horiz-adv-x="602" 
d="M698 1161q-52 0 -86 37q-34 38 -34 98t52 109t116 49t110 -47q45 -47 45 -143q0 -246 -229 -414q-25 -18 -37 -2l-29 39q-18 25 6 41t54 41q29 25 68 84q40 59 50 123h-4q-30 -15 -82 -15zM498 1434q14 0 23 -12t7 -27l-190 -1356q-2 -15 -14 -27t-27 -12h-236
q-14 0 -22 12t-6 27l190 1356q3 14 15 26t26 13h234z" />
    <glyph glyph-name="Ldot" unicode="&#x13f;" horiz-adv-x="1060" 
d="M1040 750q0 -66 -55 -120t-119 -55q-64 0 -103 41q-38 41 -38 109t53 122q52 54 118 54t105 -42q39 -43 39 -109zM582 1434q14 0 22 -12t6 -27l-153 -1094h417q33 0 29 -39l-31 -223q-2 -15 -14 -27t-27 -12h-704q-14 0 -24 11q-9 12 -7 28l191 1356q2 16 14 27t27 12
h254z" />
    <glyph glyph-name="ldot" unicode="&#x140;" horiz-adv-x="784" 
d="M692 901q64 0 104 -42q40 -43 40 -109t-56 -120t-120 -55q-64 0 -102 41t-38 108t54 122t118 55zM498 1434q14 0 23 -12t7 -27l-190 -1356q-2 -15 -14 -27t-27 -12h-236q-14 0 -22 12t-6 27l190 1356q3 14 15 26t26 13h234z" />
    <glyph glyph-name="Lslash" unicode="&#x141;" horiz-adv-x="989" 
d="M352 1434h254q14 0 22 -12t7 -27l-64 -457l136 90q29 18 45 -14l16 -33q14 -29 -20 -51l-195 -123l-72 -506h418q13 0 23 -11t6 -28l-31 -223q-2 -15 -14 -27t-27 -12h-704q-14 0 -24 11q-9 12 -7 28l82 584l-45 -27q-33 -18 -47 14l-13 31q-12 35 19 51l104 60l90 643
q8 39 41 39z" />
    <glyph glyph-name="lslash" unicode="&#x142;" horiz-adv-x="538" 
d="M518 1434q14 0 24 -12t7 -27l-66 -461l84 61q31 23 47 -14l15 -33q10 -31 -21 -51l-143 -94l-107 -764q-8 -39 -41 -39h-235q-14 0 -23 12q-8 13 -6 27l82 588l-43 -31q-31 -18 -45 14l-12 31q-12 31 18 51l101 64l90 639q2 14 14 26t27 13h233z" />
    <glyph glyph-name="Nacute" unicode="&#x143;" horiz-adv-x="1462" 
d="M707 1561q-33 -16 -48 18l-36 96q-10 27 16 39l352 213q35 23 51 -14l54 -123q18 -45 -21 -61zM330 1454h45l610 -790h2l98 731q1 16 13 27t26 12h250q14 0 24 -10t9 -25l-193 -1383q-2 -14 -13 -25t-25 -11h-52l-610 815h-2l-92 -756q-8 -39 -41 -39h-252q-12 0 -23 10
q-10 11 -8 25l193 1382q2 13 14 25t27 12z" />
    <glyph glyph-name="nacute" unicode="&#x144;" horiz-adv-x="1011" 
d="M455 1049q-33 -16 -47 18l-37 96q-10 27 16 39l352 213q35 23 52 -14l53 -123q18 -45 -21 -61zM176 819h98q23 0 29 -24l23 -82q122 127 278 127t242 -126t61 -304l-51 -371q-8 -39 -41 -39h-227q-14 0 -24 11q-9 11 -5 28l53 387q10 66 -14 106t-77 39q-52 1 -93 -37
t-49 -98l-55 -397q-6 -39 -56 -39h-207q-14 0 -22 12t-6 27l102 741q3 16 15 28t26 11z" />
    <glyph glyph-name="Ncommaaccent" unicode="&#x145;" horiz-adv-x="1462" 
d="M632 -477q-52 0 -87 37q-35 38 -35 98t52 109t116 49t110 -47q45 -47 46 -144q0 -246 -230 -413q-25 -18 -37 -3l-28 39q-18 25 6 41t53 41t69 84t50 123h-4q-29 -14 -81 -14zM330 1454h45l610 -790h2l98 731q1 16 13 27t26 12h250q14 0 24 -10t9 -25l-193 -1383
q-2 -14 -13 -25t-25 -11h-52l-610 815h-2l-92 -756q-8 -39 -41 -39h-252q-12 0 -23 10q-10 11 -8 25l193 1382q2 13 14 25t27 12z" />
    <glyph glyph-name="ncommaaccent" unicode="&#x146;" horiz-adv-x="1013" 
d="M362 -477q-52 0 -88 37q-34 38 -34 98t52 109t116 49t110 -47q45 -47 45 -144q0 -246 -229 -413q-25 -18 -37 -3l-29 39q-18 25 6 41t54 41q29 25 68 84q40 59 50 123h-4q-28 -14 -80 -14zM176 819h98q23 0 29 -24l23 -82q122 127 278 127t242 -126t61 -304l-51 -371
q-8 -39 -41 -39h-227q-14 0 -24 11q-9 11 -5 28l53 387q10 66 -14 106t-77 39q-52 1 -93 -37t-49 -98l-55 -397q-6 -39 -56 -39h-207q-14 0 -22 12t-6 27l102 741q3 16 15 28t26 11z" />
    <glyph glyph-name="Ncaron" unicode="&#x147;" horiz-adv-x="1462" 
d="M811 1561l-233 213q-20 20 -7 38l74 95q9 10 21 13t18 -3l166 -123l217 123q25 14 39 -8l55 -97q12 -20 -16 -38l-285 -213q-29 -20 -49 0zM330 1454h45l610 -790h2l98 731q1 16 13 27t26 12h250q14 0 24 -10t9 -25l-193 -1383q-2 -14 -13 -25t-25 -11h-52l-610 815h-2
l-92 -756q-8 -39 -41 -39h-252q-12 0 -23 10q-10 11 -8 25l193 1382q2 13 14 25t27 12z" />
    <glyph glyph-name="ncaron" unicode="&#x148;" horiz-adv-x="1011" 
d="M559 1049l-233 213q-20 20 -7 38l74 95q9 10 21 13t18 -3l166 -123l217 123q25 14 39 -8l55 -97q12 -20 -16 -38l-285 -213q-29 -20 -49 0zM176 819h98q23 0 29 -24l23 -82q122 127 278 127t242 -126t61 -304l-51 -371q-8 -39 -41 -39h-227q-14 0 -24 11q-9 11 -5 28
l53 387q10 66 -14 106t-77 39q-52 1 -93 -37t-49 -98l-55 -397q-6 -39 -56 -39h-207q-14 0 -22 12t-6 27l102 741q3 16 15 28t26 11z" />
    <glyph glyph-name="napostrophe" unicode="&#x149;" horiz-adv-x="1011" 
d="M-78 1161q-52 0 -86 37q-35 38 -35 98q1 60 53 109t116 49t110 -47q45 -47 45 -143q0 -246 -229 -414q-25 -18 -37 -2l-29 39q-18 25 6 41t53 41t69 84t50 123h-4q-30 -15 -82 -15zM176 819h98q23 0 29 -24l23 -82q122 127 278 127t242 -126t61 -304l-51 -371
q-8 -39 -41 -39h-227q-14 0 -24 11q-9 11 -5 28l53 387q10 66 -14 106t-77 39q-52 1 -93 -37t-49 -98l-55 -397q-6 -39 -56 -39h-207q-14 0 -22 12t-6 27l102 741q3 16 15 28t26 11z" />
    <glyph glyph-name="Eng" unicode="&#x14a;" horiz-adv-x="1460" 
d="M330 1454h45l610 -790h2l98 731q1 16 13 27t26 12h250q14 0 24 -10t9 -25l-225 -1587q-31 -215 -149 -331t-308 -116q-65 0 -131 26t-85 49t-3 50l96 164q16 29 45 14q53 -27 96 -26q102 0 127 170l60 421l-416 562h-2l-92 -756q-8 -39 -41 -39h-252q-12 0 -23 10
q-10 11 -8 25l193 1382q2 13 14 25t27 12z" />
    <glyph glyph-name="eng" unicode="&#x14b;" horiz-adv-x="1017" 
d="M178 817h98q23 0 29 -24l23 -82q122 127 278 127t242 -125t61 -303l-84 -598q-31 -215 -149 -331t-307 -116q-65 0 -131 26t-85 49t-3 50l96 164q16 29 45 14q53 -27 96 -26q119 0 143 170l84 614q8 66 -16 106t-75 39q-52 1 -93 -37t-49 -98l-55 -397q-6 -39 -50 -39
h-213q-14 0 -22 12t-6 27l102 739q3 16 15 28t26 11z" />
    <glyph glyph-name="Omacron" unicode="&#x14c;" horiz-adv-x="1482" 
d="M649 1640q-35 0 -31 37l13 84q6 39 41 39h475q35 0 29 -39l-15 -84q-8 -37 -41 -37h-471zM702 307q154 0 274 139t120 328q0 148 -79 250t-200 102q-151 0 -271 -140t-120 -329q0 -145 78 -247t198 -103zM90 614q0 348 225 594t545 246q238 0 405 -187t167 -454
q0 -346 -224 -590t-546 -243q-238 0 -405 185t-167 449z" />
    <glyph glyph-name="omacron" unicode="&#x14d;" horiz-adv-x="880" 
d="M272 1153q-33 0 -28 37l10 84q4 39 41 39h473q14 0 22 -11t7 -28l-13 -84q-4 -37 -39 -37h-473zM291 394q-1 -68 29 -108t82 -40t99 55q46 55 46 123t-31 107q-31 40 -83 40t-97 -55q-45 -54 -45 -122zM27 358q0 201 125 341t319 141q139 0 239 -112t99 -271
q0 -199 -127 -338t-317 -139q-139 0 -239 109q-99 109 -99 269z" />
    <glyph glyph-name="Obreve" unicode="&#x14e;" horiz-adv-x="1482" 
d="M892 1563q-106 1 -172 71q-67 70 -65 174q1 18 13 32t28 13h88q23 1 28 -33t30 -62q53 -59 123 2q33 30 47 62t39 31h102q15 0 25 -13t6 -32q-26 -109 -106 -177t-186 -68zM702 307q154 0 274 139t120 328q0 148 -79 250t-200 102q-151 0 -271 -140t-120 -329
q0 -145 78 -247t198 -103zM90 614q0 348 225 594t545 246q238 0 405 -187t167 -454q0 -346 -224 -590t-546 -243q-238 0 -405 185t-167 449z" />
    <glyph glyph-name="obreve" unicode="&#x14f;" horiz-adv-x="880" 
d="M516 1079q-106 0 -173 71t-64 175q0 17 12 31t28 14h89q24 0 28 -34t29 -61q25 -28 57 -28t66 30q33 30 47 62t39 31h102q16 0 26 -13t5 -32q-25 -109 -105 -177t-186 -69zM291 394q-1 -68 29 -108t82 -40t99 55q46 55 46 123t-31 107q-31 40 -83 40t-97 -55
q-45 -54 -45 -122zM27 358q0 201 125 341t319 141q139 0 239 -112t99 -271q0 -199 -127 -338t-317 -139q-139 0 -239 109q-99 109 -99 269z" />
    <glyph glyph-name="Ohungarumlaut" unicode="&#x150;" horiz-adv-x="1482" 
d="M678 1573q-16 0 -26 12q-9 12 -3 27l86 289q10 39 41 38h197q25 0 32 -15t-8 -36l-182 -284q-18 -31 -47 -31h-90zM985 1573q-16 0 -27 12q-10 12 -4 27l88 289q12 39 48 38h188q25 0 32 -15t-5 -36l-185 -284q-23 -31 -45 -31h-90zM702 307q154 0 274 139t120 328
q0 148 -79 250t-200 102q-151 0 -271 -140t-120 -329q0 -145 78 -247t198 -103zM90 614q0 348 225 594t545 246q238 0 405 -187t167 -454q0 -346 -224 -590t-546 -243q-238 0 -405 185t-167 449z" />
    <glyph glyph-name="ohungarumlaut" unicode="&#x151;" horiz-adv-x="880" 
d="M287 1067q-16 0 -26 12q-9 12 -3 27l86 289q10 39 41 39h197q26 0 32 -16t-8 -36l-182 -284q-18 -31 -45 -31h-92zM594 1067q-16 0 -27 12q-10 12 -4 27l88 289q12 39 47 39h189q25 0 32 -16t-6 -36l-184 -284q-23 -31 -47 -31h-88zM291 394q-1 -68 29 -108t82 -40t99 55
q46 55 46 123t-31 107q-31 40 -83 40t-97 -55q-45 -54 -45 -122zM27 358q0 201 125 341t319 141q139 0 239 -112t99 -271q0 -199 -127 -338t-317 -139q-139 0 -239 109q-99 109 -99 269z" />
    <glyph glyph-name="OE" unicode="&#x152;" horiz-adv-x="1845" 
d="M426 655q0 -145 78 -249t186 -105q106 0 178 33l109 764q-63 33 -158 32q-153 0 -273 -143t-120 -332zM90 614q0 352 221 596t553 244q91 0 168 -16l27 -4h772q14 0 22 -12t7 -27l-31 -224q-2 -16 -14 -27t-27 -11h-488l-34 -254h395q14 1 23 -11t8 -28l-31 -224
q-2 -16 -14 -27t-27 -11h-397l-39 -277h487q13 0 23 -11t6 -28l-31 -223q-2 -15 -14 -27t-27 -12h-772q-96 -20 -199 -20q-233 0 -400 186t-167 448z" />
    <glyph glyph-name="oe" unicode="&#x153;" horiz-adv-x="1298" 
d="M293 396q1 -68 29 -109t79 -41t98 57q46 57 46 125t-29 106q-29 40 -81 40t-97 -55t-45 -123zM960 633q-44 0 -85 -35q-42 -35 -56 -82q55 0 100 14q83 26 85 66q0 37 -44 37zM27 358q0 197 128 339t314 143q135 0 231 -107q47 41 134 74q86 33 178 33t172 -56
q78 -56 78 -151q0 -133 -126 -209t-350 -76q-4 -121 103 -121q57 0 119 49q31 25 45 0q16 -20 44 -59q27 -39 49 -63t-5 -54q-133 -121 -297 -120q-129 0 -230 104q-122 -104 -256 -104t-233 111q-98 111 -98 267z" />
    <glyph glyph-name="Racute" unicode="&#x154;" horiz-adv-x="1273" 
d="M614 1561q-33 -16 -47 18l-37 96q-10 27 17 39l352 213q35 23 51 -14l54 -123q18 -45 -21 -61zM752 821q70 1 118 57t48 122t-29 104q-29 37 -82 37h-236l-45 -320h226zM879 1434q158 0 259 -112t101 -276t-90 -290q-90 -127 -246 -176l178 -521q8 -19 -4 -39t-35 -20
h-264q-25 0 -28 18l-168 543h-90l-74 -522q-2 -15 -14 -27t-25 -12h-254q-14 0 -24 11q-9 12 -5 28l191 1356q2 14 13 26t26 13h553z" />
    <glyph glyph-name="racute" unicode="&#x155;" horiz-adv-x="671" 
d="M276 1049q-33 -16 -47 18l-36 96q-10 27 16 39l352 213q35 23 51 -14l54 -123q18 -45 -21 -61zM176 819h98q25 0 31 -24l25 -90q10 15 27 37t73 60t134 38q77 0 120 -39q23 -18 4 -47l-125 -174q-17 -27 -37 -17t-48 10q-28 -1 -56 -31t-37 -79l-59 -424q-6 -39 -45 -39
h-220q-14 0 -22 12t-6 27l104 741q1 16 13 28t26 11z" />
    <glyph glyph-name="Rcommaaccent" unicode="&#x156;" horiz-adv-x="1273" 
d="M534 -477q-52 0 -88 37q-34 38 -34 98t52 109t116 49t110 -47q45 -47 45 -144q0 -246 -229 -413q-25 -18 -37 -3l-29 39q-18 25 6 41t54 41q29 25 68 84q40 59 50 123h-4q-28 -14 -80 -14zM752 821q70 1 118 57t48 122t-29 104q-29 37 -82 37h-236l-45 -320h226z
M879 1434q158 0 259 -112t101 -276t-90 -290q-90 -127 -246 -176l178 -521q8 -19 -4 -39t-35 -20h-264q-25 0 -28 18l-168 543h-90l-74 -522q-2 -15 -14 -27t-25 -12h-254q-14 0 -24 11q-9 12 -5 28l191 1356q2 14 13 26t26 13h553z" />
    <glyph glyph-name="rcommaaccent" unicode="&#x157;" horiz-adv-x="671" 
d="M90 -477q-52 0 -88 37q-35 38 -35 98t52 109q53 49 117 49t110 -47t45 -144q0 -246 -230 -413q-25 -18 -36 -3l-29 39q-18 25 6 41t53 41t69 84t50 123h-4q-28 -14 -80 -14zM176 819h98q25 0 31 -24l25 -90q10 15 27 37t73 60t134 38q77 0 120 -39q23 -18 4 -47
l-125 -174q-17 -27 -37 -17t-48 10q-28 -1 -56 -31t-37 -79l-59 -424q-6 -39 -45 -39h-220q-14 0 -22 12t-6 27l104 741q1 16 13 28t26 11z" />
    <glyph glyph-name="Rcaron" unicode="&#x158;" horiz-adv-x="1273" 
d="M717 1561l-234 213q-20 20 -6 38l74 95q8 10 20 13t19 -3l166 -123l217 123q25 14 39 -8l55 -97q12 -20 -16 -38l-285 -213q-29 -20 -49 0zM752 821q70 1 118 57t48 122t-29 104q-29 37 -82 37h-236l-45 -320h226zM879 1434q158 0 259 -112t101 -276t-90 -290
q-90 -127 -246 -176l178 -521q8 -19 -4 -39t-35 -20h-264q-25 0 -28 18l-168 543h-90l-74 -522q-2 -15 -14 -27t-25 -12h-254q-14 0 -24 11q-9 12 -5 28l191 1356q2 14 13 26t26 13h553z" />
    <glyph glyph-name="rcaron" unicode="&#x159;" horiz-adv-x="671" 
d="M385 1049l-233 213q-20 20 -7 38l74 95q9 10 21 13t18 -3l166 -123l217 123q25 14 39 -8l55 -97q12 -20 -16 -38l-285 -213q-29 -20 -49 0zM176 819h98q25 0 31 -24l25 -90q10 15 27 37t73 60t134 38q77 0 120 -39q23 -18 4 -47l-125 -174q-17 -27 -37 -17t-48 10
q-28 -1 -56 -31t-37 -79l-59 -424q-6 -39 -45 -39h-220q-14 0 -22 12t-6 27l104 741q1 16 13 28t26 11z" />
    <glyph glyph-name="Sacute" unicode="&#x15a;" horiz-adv-x="1054" 
d="M530 1561q-33 -16 -47 18l-37 96q-10 27 17 39l352 213q35 23 51 -14l54 -123q18 -45 -21 -61zM461 283q57 1 95 37t36 88q-2 100 -135 186q-220 148 -278 286q-28 67 -27 142q0 180 124 306q126 126 346 126t404 -149q16 -12 20 -34t-8 -36l-129 -158q-11 -14 -33 -17
t-34 8q-12 10 -40 28q-103 64 -188 63q-53 0 -92 -30q-39 -29 -39 -77t36 -86t132 -96q303 -182 303 -432q0 -190 -133 -324t-379 -134q-144 0 -248 52t-147 105q-20 27 0 58l111 165q12 18 34 20t31 -7q117 -90 238 -90z" />
    <glyph glyph-name="sacute" unicode="&#x15b;" horiz-adv-x="710" 
d="M283 1049q-33 -16 -47 18l-37 96q-10 27 16 39l352 213q35 23 51 -14l54 -123q18 -45 -21 -61zM255 215q60 0 60 35t-82 82q-176 104 -176 227t87 202t239 79q80 0 151 -23q70 -23 98 -42t9 -50l-80 -143q-14 -23 -39 -13q-80 37 -135 37t-55 -28t63 -64
q111 -64 164 -118t53 -136q0 -129 -92 -205t-266 -75q-82 0 -150 22t-95 46q-26 24 -11 44l84 150q18 27 45 12q68 -39 128 -39z" />
    <glyph glyph-name="Scircumflex" unicode="&#x15c;" horiz-adv-x="1054" 
d="M461 1561q-25 -14 -39 8l-55 96q-12 20 16 39l285 213q29 20 49 0l233 -213q20 -20 6 -39l-73 -94q-9 -10 -21 -13t-18 3l-166 122zM461 283q57 1 95 37t36 88q-2 100 -135 186q-220 148 -278 286q-28 67 -27 142q0 180 124 306q126 126 346 126t404 -149q16 -12 20 -34
t-8 -36l-129 -158q-11 -14 -33 -17t-34 8q-12 10 -40 28q-103 64 -188 63q-53 0 -92 -30q-39 -29 -39 -77t36 -86t132 -96q303 -182 303 -432q0 -190 -133 -324t-379 -134q-144 0 -248 52t-147 105q-20 27 0 58l111 165q12 18 34 20t31 -7q117 -90 238 -90z" />
    <glyph glyph-name="scircumflex" unicode="&#x15d;" horiz-adv-x="710" 
d="M211 1049q-25 -14 -39 8l-55 96q-12 20 16 39l285 213q29 20 49 0l233 -213q20 -20 7 -39l-74 -94q-9 -10 -21 -13t-18 3l-166 122zM255 215q60 0 60 35t-82 82q-176 104 -176 227t87 202t239 79q80 0 151 -23q70 -23 98 -42t9 -50l-80 -143q-14 -23 -39 -13
q-80 37 -135 37t-55 -28t63 -64q111 -64 164 -118t53 -136q0 -129 -92 -205t-266 -75q-82 0 -150 22t-95 46q-26 24 -11 44l84 150q18 27 45 12q68 -39 128 -39z" />
    <glyph glyph-name="Scedilla" unicode="&#x15e;" horiz-adv-x="1058" 
d="M463 283q57 1 95 37t36 88q-2 100 -135 186q-220 148 -278 286q-28 67 -27 142q0 180 125 306t345 126t404 -149q16 -12 20 -34t-8 -36l-129 -158q-11 -14 -33 -17t-34 8q-12 10 -40 28q-103 64 -188 63q-53 0 -92 -30q-39 -29 -39 -77t36 -86t132 -96q303 -182 303 -432
q0 -188 -129 -321t-370 -137l-13 -86q137 -33 138 -179q0 -109 -62 -179t-156 -68q-94 0 -141 71q-16 25 8 49l45 50q18 23 40 1t45 -22q24 0 43 22t20 56q0 61 -109 74q-35 2 -26 36l26 189q-95 18 -165 61t-96 76t-5 64l111 165q12 18 34 20t31 -7q117 -90 238 -90z" />
    <glyph glyph-name="scedilla" unicode="&#x15f;" horiz-adv-x="714" 
d="M257 215q60 0 60 35t-81 82q-176 104 -176 227t86 202q87 79 239 79t254 -68q23 -16 4 -47l-80 -143q-14 -23 -39 -13q-80 37 -135 37t-55 -28t63 -64q111 -64 164 -118t53 -136q0 -118 -76 -192t-227 -86l-12 -88q137 -33 137 -179q0 -109 -61 -179t-155 -68
q-94 0 -142 71q-16 25 8 49l45 50q17 23 39 1t46 -22t43 22t20 56q0 61 -109 74q-35 2 -27 36l27 183q-113 18 -162 61q-23 23 -8 43l84 150q18 27 45 12q68 -39 128 -39z" />
    <glyph glyph-name="Scaron" unicode="&#x160;" horiz-adv-x="1054" 
d="M631 1561l-234 213q-20 20 -6 38l74 95q8 10 20 13t19 -3l166 -123l217 123q25 14 39 -8l55 -97q12 -20 -16 -38l-285 -213q-29 -20 -49 0zM461 283q57 1 95 37t36 88q-2 100 -135 186q-220 148 -278 286q-28 67 -27 142q0 180 124 306q126 126 346 126t404 -149
q16 -12 20 -34t-8 -36l-129 -158q-11 -14 -33 -17t-34 8q-12 10 -40 28q-103 64 -188 63q-53 0 -92 -30q-39 -29 -39 -77t36 -86t132 -96q303 -182 303 -432q0 -190 -133 -324t-379 -134q-144 0 -248 52t-147 105q-20 27 0 58l111 165q12 18 34 20t31 -7q117 -90 238 -90z
" />
    <glyph glyph-name="scaron" unicode="&#x161;" horiz-adv-x="710" 
d="M391 1049l-233 213q-20 20 -6 38l73 95q9 10 21 13t18 -3l166 -123l217 123q25 14 39 -8l55 -97q12 -20 -16 -38l-285 -213q-29 -20 -49 0zM255 215q60 0 60 35t-82 82q-176 104 -176 227t87 202t239 79q80 0 151 -23q70 -23 98 -42t9 -50l-80 -143q-14 -23 -39 -13
q-80 37 -135 37t-55 -28t63 -64q111 -64 164 -118t53 -136q0 -129 -92 -205t-266 -75q-82 0 -150 22t-95 46q-26 24 -11 44l84 150q18 27 45 12q68 -39 128 -39z" />
    <glyph glyph-name="Tcommaaccent" unicode="&#x162;" horiz-adv-x="954" 
d="M312 -477q-52 0 -87 37q-35 38 -35 98t52 109t118 49q64 0 109 -47t45 -144q0 -246 -229 -413q-25 -18 -37 -3l-29 39q-18 25 6 41t54 41q29 25 68 84q40 59 50 123h-4q-29 -14 -81 -14zM141 1133q-14 0 -23 11t-7 27l32 224q1 14 13 26t26 13h828q14 0 23 -12t7 -27
l-32 -224q-2 -16 -14 -27t-25 -11h-252l-154 -1094q-2 -15 -14 -27t-27 -12h-254q-14 0 -23 12t-7 27l153 1094h-250z" />
    <glyph glyph-name="tcommaaccent" unicode="&#x163;" horiz-adv-x="684" 
d="M242 -477q-52 0 -88 37q-35 38 -35 98t52 109q53 49 117 49t109 -47t45 -144q0 -246 -229 -413q-25 -18 -37 -3l-29 39q-17 25 7 41t53 41t68 84q40 59 51 123h-4q-28 -14 -80 -14zM84 559q-31 0 -27 39l25 182q2 16 13 28t26 11h69l31 228q3 14 15 26t26 12h230
q31 0 26 -38l-31 -228h119q33 0 29 -39l-25 -182q-2 -16 -14 -28t-27 -11h-118l-35 -254q-6 -49 43 -49q18 0 53 8t39 -26l16 -152q3 -37 -25 -54q-28 -16 -98 -34t-139 -18q-102 0 -157 74q-53 75 -35 210l41 295h-70z" />
    <glyph glyph-name="Tcaron" unicode="&#x164;" horiz-adv-x="952" 
d="M580 1561l-234 213q-20 20 -6 38l74 95q8 10 20 13t19 -3l165 -123l218 123q25 14 38 -8l56 -97q12 -20 -17 -38l-284 -213q-29 -20 -49 0zM141 1133q-14 0 -23 11t-7 27l32 224q1 14 13 26t26 13h828q14 0 23 -12t7 -27l-32 -224q-2 -16 -14 -27t-25 -11h-252
l-154 -1094q-2 -15 -14 -27t-27 -12h-254q-14 0 -23 12t-7 27l153 1094h-250z" />
    <glyph glyph-name="tcaron" unicode="&#x165;" horiz-adv-x="681" 
d="M848 1161q-52 0 -86 37q-35 38 -35 98t52 109q53 49 117 49t110 -47t45 -143q0 -246 -230 -414q-25 -18 -37 -2l-28 39q-18 25 6 41t53 41t69 84t50 123h-4q-30 -15 -82 -15zM84 559q-31 0 -27 39l25 182q2 16 13 28t26 11h69l31 228q3 14 15 26t26 12h230q31 0 26 -38
l-31 -228h119q33 0 29 -39l-25 -182q-2 -16 -14 -28t-27 -11h-118l-35 -254q-6 -49 43 -49q18 0 53 8t39 -26l16 -152q3 -37 -25 -54q-28 -16 -98 -34t-139 -18q-102 0 -157 74q-53 75 -35 210l41 295h-70z" />
    <glyph glyph-name="Tbar" unicode="&#x166;" horiz-adv-x="952" 
d="M182 592q-14 0 -22 12t-6 27l6 35q8 39 37 39h133l61 428h-250q-14 0 -23 11t-7 27l32 224q1 14 13 26t26 13h828q14 0 23 -12t7 -27l-32 -224q-2 -16 -14 -27t-25 -11h-252l-62 -428h146q14 1 24 -11t6 -28l-6 -37q-8 -37 -41 -37h-143l-78 -553q-2 -15 -14 -27t-27 -12
h-254q-14 0 -23 12t-7 27l77 553h-133z" />
    <glyph glyph-name="tbar" unicode="&#x167;" horiz-adv-x="681" 
d="M61 344q-14 0 -22 12t-6 27l6 35q8 39 39 39h61l15 102h-70q-31 0 -27 39l25 182q2 16 13 28t26 11h69l31 228q3 14 15 26t26 12h230q31 0 26 -38l-31 -228h119q33 0 29 -39l-25 -182q-2 -16 -14 -28t-27 -11h-118l-15 -102h127q15 1 25 -11t6 -28l-6 -37q-8 -37 -41 -37
h-127l-4 -39q-6 -49 43 -49q18 0 53 8t39 -26l16 -152q3 -37 -25 -54q-28 -16 -98 -34t-139 -18q-102 0 -157 74q-53 75 -35 210l10 80h-62z" />
    <glyph glyph-name="Utilde" unicode="&#x168;" horiz-adv-x="1372" 
d="M765 1884q42 0 100 -48t96 -48t69 57q20 37 51 10l64 -53q14 -10 0 -44q-72 -172 -214 -174q-45 0 -105 48q-60 49 -94 49t-66 -61q-19 -39 -50 -12l-65 57q-23 23 22 91q85 128 192 128zM567 1434q13 0 23 -12t8 -27l-117 -846q-14 -106 32 -174t135 -68t158 68t83 174
l117 846q2 16 13 27t25 12h259q14 0 23 -12t7 -27l-119 -863q-38 -252 -198 -402t-412 -150q-211 0 -349 162t-105 390l118 863q2 14 14 26t25 13h260z" />
    <glyph glyph-name="utilde" unicode="&#x169;" horiz-adv-x="985" 
d="M493 1413q42 0 100 -48t96 -48t69 57q20 37 51 10l63 -53q24 -17 -28 -99q-75 -117 -180 -120q-52 0 -112 49t-93 49t-66 -61q-18 -39 -49 -12l-65 57q-25 25 22 91q85 128 192 128zM342 -20q-164 0 -232 112t-40 318l53 370q2 16 13 28t26 11h227q13 0 23 -11t8 -28
l-55 -385q-20 -150 69 -149q49 0 82 39t41 98l57 397q4 23 14 31t40 8h206q14 0 24 -11t7 -28l-104 -741q-3 -15 -15 -27t-26 -12h-98q-20 0 -29 25l-23 79q-104 -124 -268 -124z" />
    <glyph glyph-name="Umacron" unicode="&#x16a;" horiz-adv-x="1372" 
d="M596 1640q-35 0 -31 37l13 84q6 39 40 39h476q35 0 28 -39l-14 -84q-8 -37 -41 -37h-471zM567 1434q13 0 23 -12t8 -27l-117 -846q-14 -106 32 -174t135 -68t158 68t83 174l117 846q2 16 13 27t25 12h259q14 0 23 -12t7 -27l-119 -863q-38 -252 -198 -402t-412 -150
q-211 0 -349 162t-105 390l118 863q2 14 14 26t25 13h260z" />
    <glyph glyph-name="umacron" unicode="&#x16b;" horiz-adv-x="985" 
d="M324 1153q-33 0 -29 37l10 84q4 39 41 39h473q15 0 23 -11t6 -28l-12 -84q-4 -37 -39 -37h-473zM342 -20q-164 0 -232 112t-40 318l53 370q2 16 13 28t26 11h227q13 0 23 -11t8 -28l-55 -385q-20 -150 69 -149q49 0 82 39t41 98l57 397q4 23 14 31t40 8h206q14 0 24 -11
t7 -28l-104 -741q-3 -15 -15 -27t-26 -12h-98q-20 0 -29 25l-23 79q-104 -124 -268 -124z" />
    <glyph glyph-name="Ubreve" unicode="&#x16c;" horiz-adv-x="1372" 
d="M846 1563q-106 1 -173 71t-65 174q0 18 12 32t29 13h88q23 1 28 -33t30 -62q53 -59 123 2q33 30 47 62t39 31h102q16 0 26 -13t5 -32q-25 -109 -105 -177t-186 -68zM567 1434q13 0 23 -12t8 -27l-117 -846q-14 -106 32 -174t135 -68t158 68t83 174l117 846q2 16 13 27
t25 12h259q14 0 23 -12t7 -27l-119 -863q-38 -252 -198 -402t-412 -150q-211 0 -349 162t-105 390l118 863q2 14 14 26t25 13h260z" />
    <glyph glyph-name="ubreve" unicode="&#x16d;" horiz-adv-x="985" 
d="M560 1079q-106 0 -172 71q-67 71 -64 175q0 17 12 31t29 14h88q23 0 27 -34t30 -61q26 -28 58 -28t65 30t47 62t39 31h102q15 0 25 -13t6 -32q-26 -109 -106 -177t-186 -69zM342 -20q-164 0 -232 112t-40 318l53 370q2 16 13 28t26 11h227q13 0 23 -11t8 -28l-55 -385
q-20 -150 69 -149q49 0 82 39t41 98l57 397q4 23 14 31t40 8h206q14 0 24 -11t7 -28l-104 -741q-3 -15 -15 -27t-26 -12h-98q-20 0 -29 25l-23 79q-104 -124 -268 -124z" />
    <glyph glyph-name="Uring" unicode="&#x16e;" horiz-adv-x="1372" 
d="M847 1686q31 0 57 32t26 66q0 36 -18 58t-46 22t-56 -31t-28 -66t18 -58t47 -23zM1073 1793q0 -97 -71 -175t-161 -78t-146 59t-56 158t72 177t162 77q90 0 145 -60t55 -158zM567 1434q13 0 23 -12t8 -27l-117 -846q-14 -106 32 -174t135 -68t158 68t83 174l117 846
q2 16 13 27t25 12h259q14 0 23 -12t7 -27l-119 -863q-38 -252 -198 -402t-412 -150q-211 0 -349 162t-105 390l118 863q2 14 14 26t25 13h260z" />
    <glyph glyph-name="uring" unicode="&#x16f;" horiz-adv-x="985" 
d="M562 1128q30 0 56 32t27 67q0 35 -17 57t-46 23q-29 0 -57 -31q-27 -31 -27 -66q0 -34 17 -58t47 -24zM788 1236q0 -98 -70 -176t-161 -77q-90 0 -146 59q-57 59 -57 158q0 98 72 176t162 78t145 -60t55 -158zM342 -20q-164 0 -232 112t-40 318l53 370q2 16 13 28t26 11
h227q13 0 23 -11t8 -28l-55 -385q-20 -150 69 -149q49 0 82 39t41 98l57 397q4 23 14 31t40 8h206q14 0 24 -11t7 -28l-104 -741q-3 -15 -15 -27t-26 -12h-98q-20 0 -29 25l-23 79q-104 -124 -268 -124z" />
    <glyph glyph-name="Uhungarumlaut" unicode="&#x170;" horiz-adv-x="1372" 
d="M614 1573q-16 0 -25 12t-3 27l86 289q10 39 41 38h196q25 0 32 -15t-7 -36l-182 -284q-18 -31 -47 -31h-91zM922 1573q-16 0 -27 12q-10 12 -4 27l88 289q12 39 47 38h188q25 0 32 -15t-5 -36l-184 -284q-23 -31 -45 -31h-90zM567 1434q13 0 23 -12t8 -27l-117 -846
q-14 -106 32 -174t135 -68t158 68t83 174l117 846q2 16 13 27t25 12h259q14 0 23 -12t7 -27l-119 -863q-38 -252 -198 -402t-412 -150q-211 0 -349 162t-105 390l118 863q2 14 14 26t25 13h260z" />
    <glyph glyph-name="uhungarumlaut" unicode="&#x171;" horiz-adv-x="985" 
d="M336 1067q-16 0 -26 12q-9 12 -3 27l86 289q10 39 41 39h197q25 0 32 -16t-8 -36l-182 -284q-18 -31 -45 -31h-92zM643 1067q-16 0 -27 12q-10 12 -4 27l88 289q12 39 48 39h188q25 0 32 -16t-5 -36l-185 -284q-23 -31 -47 -31h-88zM342 -20q-164 0 -232 112t-40 318
l53 370q2 16 13 28t26 11h227q13 0 23 -11t8 -28l-55 -385q-20 -150 69 -149q49 0 82 39t41 98l57 397q4 23 14 31t40 8h206q14 0 24 -11t7 -28l-104 -741q-3 -15 -15 -27t-26 -12h-98q-20 0 -29 25l-23 79q-104 -124 -268 -124z" />
    <glyph glyph-name="Uogonek" unicode="&#x172;" horiz-adv-x="1380" 
d="M399 -283q0 145 125 271q-182 32 -293 186t-79 358l118 863q2 14 14 26t25 13h260q13 0 23 -12t8 -27l-117 -846q-14 -106 32 -174t135 -68t158 68t83 174l117 846q2 16 13 27t26 12h258q14 0 23 -12t7 -27l-118 -863q-35 -238 -181 -385t-372 -163q-92 -100 -93 -203
q0 -49 29 -81t88 -32q14 0 52 8t50 -4t7 -30l-11 -68q-4 -31 -34 -39q-43 -16 -128 -16t-155 52t-70 146z" />
    <glyph glyph-name="uogonek" unicode="&#x173;" horiz-adv-x="985" 
d="M342 -20q-164 0 -232 112t-40 318l53 370q2 16 13 28t26 11h227q13 0 23 -11t8 -28l-55 -385q-20 -150 69 -149q49 0 82 39t41 98l57 397q4 23 14 31t40 8h206q14 0 24 -11t7 -28l-104 -741q-3 -15 -15 -27t-26 -12h-15q-111 -104 -110 -219q0 -49 29 -81t88 -32
q14 0 52 8t48 -4q12 -12 8 -30l-10 -68q-4 -31 -35 -39q-43 -16 -128 -16t-155 52t-70 137t39 158q39 74 71 106t61 53l-23 79q-104 -124 -268 -124z" />
    <glyph glyph-name="Wcircumflex" unicode="&#x174;" horiz-adv-x="1673" 
d="M780 1561q-25 -14 -39 8l-55 96q-12 20 16 39l285 213q29 20 49 0l234 -213q20 -20 6 -39l-74 -94q-8 -10 -20 -13t-19 3l-166 122zM453 1434q10 0 19 -10t9 -19l39 -694h8l381 721q12 23 35 22h33q25 0 29 -22l178 -721h6l237 694q12 29 37 29h246q20 0 28 -14t-1 -36
l-541 -1376q-10 -29 -37 -28h-31q-20 0 -28 22l-221 838h-9l-456 -838q-14 -23 -35 -22h-29q-27 -1 -31 28l-153 1376q-2 20 9 34t30 16h248z" />
    <glyph glyph-name="wcircumflex" unicode="&#x175;" horiz-adv-x="1167" 
d="M451 1049q-25 -14 -39 8l-56 96q-12 20 17 39l284 213q29 20 50 0l233 -213q20 -20 6 -39l-74 -94q-8 -10 -20 -13t-18 3l-166 122zM86 819h184q27 0 31 -24l59 -273h2l211 281q12 16 31 16h21q16 0 24 -16l131 -281h2l127 273q12 24 43 24h195q21 0 29 -15t0 -36
l-365 -764q-10 -25 -35 -24h-8q-18 0 -27 16l-186 393l-293 -393q-10 -16 -33 -16h-8q-24 -1 -28 24l-146 764q-4 20 8 36t31 15z" />
    <glyph glyph-name="Ycircumflex" unicode="&#x176;" horiz-adv-x="1105" 
d="M479 1561q-25 -14 -39 8l-55 96q-12 20 16 39l285 213q29 20 49 0l234 -213q20 -20 6 -39l-74 -94q-8 -10 -20 -13t-19 3l-166 122zM395 1434q20 0 29 -19l170 -420l289 420q14 18 32 19h289q23 0 30 -20t-7 -40l-502 -682l-90 -653q-2 -15 -14 -27t-27 -12h-254
q-33 0 -29 39l92 651l-303 684q-8 20 4 40t33 20h258z" />
    <glyph glyph-name="ycircumflex" unicode="&#x177;" horiz-adv-x="868" 
d="M293 1049q-25 -14 -39 8l-55 96q-12 20 16 39l285 213q29 20 49 0l233 -213q20 -20 6 -39l-73 -94q-9 -10 -21 -13t-18 3l-166 122zM78 819h209q23 0 26 -22l90 -375h3l182 375q10 23 35 22h237q20 0 26 -16t-3 -37l-754 -1356q-12 -25 -35 -24h-239q-20 0 -27 14
q-6 14 6 37l379 655l-172 682q-10 45 37 45z" />
    <glyph glyph-name="Ydieresis" unicode="&#x178;" horiz-adv-x="1105" 
d="M432 1573q-53 0 -85 43t-23 102q8 60 51 102t96 42t87 -42t25 -102t-53 -102q-44 -43 -98 -43zM922 1573q-53 0 -85 43t-24 102q8 60 51 102q42 42 96 42t88 -42t24 -102t-53 -102q-44 -43 -97 -43zM395 1434q20 0 29 -19l170 -420l289 420q14 18 32 19h289q23 0 30 -20
t-7 -40l-502 -682l-90 -653q-2 -15 -14 -27t-27 -12h-254q-33 0 -29 39l92 651l-303 684q-8 20 4 40t33 20h258z" />
    <glyph glyph-name="Zacute" unicode="&#x179;" horiz-adv-x="1040" 
d="M530 1561q-33 -16 -47 18l-37 96q-10 27 17 39l352 213q35 23 51 -14l54 -123q18 -45 -21 -61zM14 0q-14 0 -22 11t-6 28l4 37l600 1057h-363q-14 0 -23 11t-7 27l32 224q3 14 15 26t26 13h791q14 0 23 -12t8 -27l-5 -27l-579 -1067h358q33 0 29 -39l-31 -223
q-8 -39 -41 -39h-809z" />
    <glyph glyph-name="zacute" unicode="&#x17a;" horiz-adv-x="710" 
d="M297 1049q-33 -16 -47 18l-37 96q-10 27 16 39l353 213q35 23 51 -14l53 -123q18 -45 -20 -61zM23 0q-39 0 -27 59l256 492v4h-135q-14 0 -23 11q-8 11 -6 28l27 186q6 39 39 39h508q20 0 27 -16t-3 -39l-278 -498v-4h139q33 0 28 -39l-24 -184q-2 -15 -14 -27t-27 -12
h-487z" />
    <glyph glyph-name="Zdotaccent" unicode="&#x17b;" horiz-adv-x="1040" 
d="M672 1585q-64 0 -104 41q-38 40 -38 108t54 122t118 55q66 0 105 -42t39 -109t-55 -121t-119 -54zM14 0q-14 0 -22 11t-6 28l4 37l600 1057h-363q-14 0 -23 11t-7 27l32 224q3 14 15 26t26 13h791q14 0 23 -12t8 -27l-5 -27l-579 -1067h358q33 0 29 -39l-31 -223
q-8 -39 -41 -39h-809z" />
    <glyph glyph-name="zdotaccent" unicode="&#x17c;" horiz-adv-x="710" 
d="M430 1067q-64 0 -103 41q-38 42 -38 108t54 121q55 55 119 55t103 -41q39 -42 39 -109t-55 -121t-119 -54zM23 0q-39 0 -27 59l256 492v4h-135q-14 0 -23 11q-8 11 -6 28l27 186q6 39 39 39h508q20 0 27 -16t-3 -39l-278 -498v-4h139q33 0 28 -39l-24 -184
q-2 -15 -14 -27t-27 -12h-487z" />
    <glyph glyph-name="Zcaron" unicode="&#x17d;" horiz-adv-x="1040" 
d="M639 1561l-233 213q-20 20 -7 38l74 95q9 10 21 13t18 -3l166 -123l217 123q25 14 39 -8l55 -97q12 -20 -16 -38l-285 -213q-29 -20 -49 0zM14 0q-14 0 -22 11t-6 28l4 37l600 1057h-363q-14 0 -23 11t-7 27l32 224q3 14 15 26t26 13h791q14 0 23 -12t8 -27l-5 -27
l-579 -1067h358q33 0 29 -39l-31 -223q-8 -39 -41 -39h-809z" />
    <glyph glyph-name="zcaron" unicode="&#x17e;" horiz-adv-x="710" 
d="M395 1049l-233 213q-20 20 -6 38l73 95q9 10 21 13t18 -3l166 -123l217 123q25 14 39 -8l55 -97q12 -20 -16 -38l-285 -213q-29 -20 -49 0zM23 0q-39 0 -27 59l256 492v4h-135q-14 0 -23 11q-8 11 -6 28l27 186q6 39 39 39h508q20 0 27 -16t-3 -39l-278 -498v-4h139
q33 0 28 -39l-24 -184q-2 -15 -14 -27t-27 -12h-487z" />
    <glyph glyph-name="florin" unicode="&#x192;" horiz-adv-x="772" 
d="M68 559q-14 0 -24 11q-9 11 -5 28l24 182q6 39 41 39h158l27 191q29 212 153 328t318 116q74 0 127 -24t73 -53q20 -28 3 -52l-113 -156q-22 -29 -46 -13t-69 15q-45 0 -83 -43t-50 -120l-27 -189h160q35 0 31 -39l-27 -182q-2 -16 -14 -28t-27 -11h-159l-105 -749
q-28 -211 -152 -328t-321 -117q-129 0 -201 78q-20 23 -2 51l107 154q16 28 45 14t75 -14t85 43t51 121l104 747h-157z" />
    <glyph glyph-name="Aringacute" unicode="&#x1fa;" 
d="M489 492h230l-64 342h-2zM753 1462q31 0 57 32t26 67t-18 57t-46 22t-56 -30t-28 -66q0 -34 18 -58t47 -24zM-51 0q-20 0 -28 16q-7 16 3 37l723 1286q-102 57 -102 175q-1 118 71 196t162 78t146 -60q55 -60 55 -147q0 -86 -47 -156t-121 -96l356 -1276q6 -21 -6 -37
t-33 -16h-231q-55 0 -66 51l-34 162h-453l-80 -164q-23 -49 -82 -49h-233zM666 1810q-33 -16 -48 19l-36 96q-10 27 16 39l352 213q35 23 51 -14l54 -123q18 -45 -21 -62z" />
    <glyph glyph-name="aringacute" unicode="&#x1fb;" horiz-adv-x="972" 
d="M426 246q58 0 104 52t45 120q0 68 -32 111q-33 42 -87 42t-102 -55q-48 -54 -49 -122q0 -68 31 -108q32 -40 90 -40zM743 0h-106q-27 0 -31 31l-12 71q-41 -45 -115 -84t-162 -38q-137 0 -213 108t-75 270q0 201 124 341t293 141q74 0 136 -33t86 -66l22 -30l41 84
q12 25 39 24h96q14 0 23 -11q8 -12 6 -28l-111 -741q-8 -39 -41 -39zM479 1356q-33 -16 -47 18l-37 96q-10 27 17 39l352 213q35 23 51 -14l53 -123q18 -45 -20 -61zM566 1016q30 0 57 32t27 66t-18 58q-17 22 -46 22t-57 -31q-27 -31 -27 -65t17 -58t47 -24zM561 870
q-90 0 -146 60q-57 60 -57 158t72 176t162 78t145 -61q55 -59 55 -157t-70 -176q-71 -78 -161 -78z" />
    <glyph glyph-name="AEacute" unicode="&#x1fc;" horiz-adv-x="1673" 
d="M1169 1563q-33 -16 -47 18l-37 96q-10 27 17 39l352 213q35 23 51 -14l54 -123q18 -45 -21 -61zM547 492h182l53 358zM-80 0q-20 0 -24 16t10 37l923 1317q18 27 35 45t56 19h739q33 0 29 -39l-31 -224q-3 -16 -15 -27t-26 -11h-477l-35 -254h387q14 1 22 -11t7 -28
l-31 -224q-2 -16 -14 -27t-27 -11h-387l-39 -277h477q33 0 29 -39l-31 -223q-2 -15 -14 -27t-27 -12h-762q-33 0 -28 39l24 174h-291l-141 -190q-14 -23 -39 -23h-299z" />
    <glyph glyph-name="aeacute" unicode="&#x1fd;" horiz-adv-x="1206" 
d="M639 1049q-33 -16 -47 18l-37 96q-10 27 16 39l353 213q35 23 51 -14l53 -123q18 -45 -20 -61zM242 253q0 -35 18 -57t51 -22t63 28t30 66t-21 61q-20 21 -54 21q-35 0 -61 -30t-26 -67zM868 633q-43 0 -85 -35t-56 -82q55 0 101 14q84 27 83 65q0 38 -43 38zM336 518
q70 0 127 -20q25 119 -88 118q-80 0 -189 -22q-14 -2 -26 8t-13 25v141q-1 14 11 26t24 15q152 31 250 31q150 0 221 -80q104 80 256 80q105 0 183 -56t77 -151q0 -133 -126 -209t-349 -76q-4 -121 103 -121q57 0 118 49q27 23 46 0l92 -120q23 -25 -4 -56
q-133 -120 -298 -120t-239 129q-117 -129 -287 -129q-119 0 -181 76t-45 198q17 120 109 192t228 72z" />
    <glyph glyph-name="Oslashacute" unicode="&#x1fe;" horiz-adv-x="1495" 
d="M741 1561q-33 -16 -47 18l-37 96q-10 27 17 39l352 213q35 23 51 -14l53 -123q18 -45 -20 -61zM1102 774q0 82 -31 164l-557 -532q76 -98 195 -99q153 0 273 139t120 328zM823 1126q-151 0 -271 -140t-120 -329q0 -85 29 -161l559 532q-82 98 -197 98zM866 1454
q238 0 404 -188l157 151q27 27 50 0l20 -24q25 -25 -8 -54l-160 -151q109 -172 109 -375q0 -346 -224 -590t-546 -243q-240 0 -406 186l-151 -146q-11 -10 -25 -9t-23 12l-22 24q-20 27 6 53l154 148q-104 164 -105 366q0 348 226 594t544 246z" />
    <glyph glyph-name="oslashacute" unicode="&#x1ff;" horiz-adv-x="892" 
d="M395 236q63 0 115 61q51 61 51 145q0 4 -1 14t-1 17l-225 -217q23 -20 61 -20zM285 375v-27l223 213q-22 21 -72 21t-100 -62t-51 -145zM31 358q0 201 125 341t319 141q127 0 223 -97l66 64q27 27 49 0l21 -25q23 -27 -9 -53l-67 -63q55 -98 55 -209q0 -199 -127 -338
t-317 -139q-129 0 -224 94l-59 -58q-29 -25 -47 2l-23 25q-20 29 7 53l59 58q-51 92 -51 204zM371 1049q-33 -16 -47 18l-37 96q-10 27 16 39l352 213q35 23 52 -14l53 -123q18 -45 -21 -61z" />
    <glyph glyph-name="Scommaaccent" unicode="&#x218;" horiz-adv-x="1056" 
d="M378 -477q-52 0 -87 37q-35 38 -35 98t52 109t116 49t110 -47t46 -144q0 -246 -230 -413q-25 -18 -37 -3l-28 39q-18 25 6 41t53 41t69 84t50 123h-4q-29 -14 -81 -14zM461 283q57 1 95 37t36 88q-2 100 -135 186q-220 148 -278 286q-28 67 -27 142q0 180 124 306
q126 126 346 126t404 -149q16 -12 20 -34t-8 -36l-129 -158q-11 -14 -33 -17t-34 8q-12 10 -40 28q-103 64 -188 63q-53 0 -92 -30q-39 -29 -39 -77t36 -86t132 -96q303 -182 303 -432q0 -190 -133 -324t-379 -134q-144 0 -248 52t-147 105q-20 27 0 58l111 165q12 18 34 20
t31 -7q117 -90 238 -90z" />
    <glyph glyph-name="scommaaccent" unicode="&#x219;" horiz-adv-x="712" 
d="M196 -477q-52 0 -87 37q-35 38 -35 98t52 109t116 49t110 -47q45 -47 45 -144q0 -246 -229 -413q-25 -18 -37 -3l-29 39q-18 25 6 41t54 41q29 25 68 84q40 59 51 123h-5q-28 -14 -80 -14zM257 215q60 0 60 35t-81 82q-176 104 -176 227t86 202q87 79 239 79t254 -68
q23 -16 4 -47l-80 -143q-14 -23 -39 -13q-80 37 -135 37t-55 -28t63 -64q111 -64 164 -118t53 -136q0 -129 -92 -205t-266 -75q-82 0 -150 22t-95 46q-26 24 -11 44l84 150q18 27 45 12q68 -39 128 -39z" />
    <glyph glyph-name="uni021A" unicode="&#x21a;" horiz-adv-x="954" 
d="M312 -477q-52 0 -87 37q-35 38 -35 98t52 109t118 49q64 0 109 -47t45 -144q0 -246 -229 -413q-25 -18 -37 -3l-29 39q-18 25 6 41t54 41q29 25 68 84q40 59 50 123h-4q-29 -14 -81 -14zM141 1133q-14 0 -23 11t-7 27l32 224q1 14 13 26t26 13h828q14 0 23 -12t7 -27
l-32 -224q-2 -16 -14 -27t-25 -11h-252l-154 -1094q-2 -15 -14 -27t-27 -12h-254q-14 0 -23 12t-7 27l153 1094h-250z" />
    <glyph glyph-name="uni021B" unicode="&#x21b;" horiz-adv-x="684" 
d="M242 -477q-52 0 -88 37q-35 38 -35 98t52 109q53 49 117 49t109 -47t45 -144q0 -246 -229 -413q-25 -18 -37 -3l-29 39q-17 25 7 41t53 41t68 84q40 59 51 123h-4q-28 -14 -80 -14zM84 559q-31 0 -27 39l25 182q2 16 13 28t26 11h69l31 228q3 14 15 26t26 12h230
q31 0 26 -38l-31 -228h119q33 0 29 -39l-25 -182q-2 -16 -14 -28t-27 -11h-118l-35 -254q-6 -49 43 -49q18 0 53 8t39 -26l16 -152q3 -37 -25 -54q-28 -16 -98 -34t-139 -18q-102 0 -157 74q-53 75 -35 210l41 295h-70z" />
    <glyph glyph-name="dotlessj" unicode="&#x237;" horiz-adv-x="524" 
d="M178 819h240q14 0 22 -11t6 -28l-137 -968q-29 -215 -147 -331t-309 -116q-66 0 -132 26t-85 49t-3 50l97 164q16 29 45 14q53 -27 96 -26q106 0 131 170l135 968q3 16 15 28t26 11z" />
    <glyph glyph-name="circumflex" unicode="&#x2c6;" horiz-adv-x="688" 
d="M68 1049q-25 -14 -39 8l-56 96q-12 20 17 39l284 213q29 20 50 0l233 -213q20 -20 6 -39l-74 -94q-8 -10 -20 -13t-18 3l-166 122z" />
    <glyph glyph-name="caron" unicode="&#x2c7;" horiz-adv-x="688" 
d="M225 1049l-233 213q-20 20 -6 38l73 95q9 10 21 13t18 -3l166 -123l217 123q25 14 39 -8l55 -97q12 -20 -16 -38l-285 -213q-29 -20 -49 0z" />
    <glyph glyph-name="uni02C9" unicode="&#x2c9;" horiz-adv-x="763" 
d="M53 1153q-33 0 -28 37l10 84q4 39 41 39h473q31 0 29 -39l-13 -84q-4 -37 -39 -37h-473z" />
    <glyph glyph-name="breve" unicode="&#x2d8;" horiz-adv-x="636" 
d="M230 1079q-106 0 -172 71q-67 71 -64 175q0 17 12 31t29 14h88q23 0 28 -34t29 -61q24 -28 58 -28t66 30t46 62t39 31h103q16 0 25 -13t5 -32q-26 -109 -106 -177t-186 -69z" />
    <glyph glyph-name="dotaccent" unicode="&#x2d9;" horiz-adv-x="403" 
d="M102 1067q-64 0 -103 41q-38 42 -38 108t54 121q55 55 119 55t104 -41q40 -42 38 -109q0 -67 -55 -121t-119 -54z" />
    <glyph glyph-name="ring" unicode="&#x2da;" horiz-adv-x="534" 
d="M165 1128q31 0 57 32t26 67t-18 57t-46 23q-28 0 -56 -31t-28 -66q0 -34 18 -58t47 -24zM391 1236q0 -98 -71 -176t-161 -77q-90 0 -146 59t-56 158q0 98 72 176t162 78t145 -60t55 -158z" />
    <glyph glyph-name="ogonek" unicode="&#x2db;" horiz-adv-x="507" 
d="M184 -213q0 -119 117 -119q14 0 52 8t49 -4t8 -30l-11 -68q-4 -31 -34 -39q-43 -16 -128 -16t-155 52t-70 153t63 185t97 107l18 15h140q-16 -12 -41 -35q-25 -22 -65 -88t-40 -121z" />
    <glyph glyph-name="tilde" unicode="&#x2dc;" horiz-adv-x="700" 
d="M196 1413q42 0 100 -48t96 -48t69 57q20 37 51 10l63 -53q24 -17 -28 -99q-75 -117 -180 -120q-51 0 -111 49t-93 49q-34 0 -67 -61q-18 -39 -49 -12l-65 57q-25 25 22 91q85 128 192 128z" />
    <glyph glyph-name="hungarumlaut" unicode="&#x2dd;" horiz-adv-x="722" 
d="M-8 1067q-16 0 -26 12q-9 12 -3 27l86 289q10 39 41 39h197q25 0 31 -16t-7 -36l-182 -284q-18 -31 -45 -31h-92zM299 1067q-16 0 -27 12q-10 12 -4 27l88 289q12 39 47 39h189q25 0 32 -16t-6 -36l-184 -284q-23 -31 -47 -31h-88z" />
    <glyph glyph-name="uni0394" unicode="&#x394;" horiz-adv-x="1454" 
d="M399 295l398 2l-127 512h-2zM-4 0q-83 0 -41 92l752 1340q14 23 32 22h19q25 0 28 -22l373 -1344q10 -36 -4 -62t-45 -26h-1114z" />
    <glyph glyph-name="uni03A9" unicode="&#x3a9;" horiz-adv-x="1599" 
d="M-20 0q-14 0 -24 11q-9 11 -7 28l33 223q2 16 13 28t25 11h154q-51 49 -88 149t-37 199q0 164 66 315q129 296 416 427q140 63 288 63q246 0 409 -174t163 -444q0 -139 -68 -299t-166 -236h135q37 0 33 -39l-33 -223q-2 -15 -14 -27t-27 -12h-518q-35 0 -31 39l19 133
q2 16 6 28t7 24q3 11 29 26q25 14 28 16q135 80 203 228t69 293q0 147 -78 243t-211 96q-176 0 -292 -154t-116 -378q0 -222 148 -328q4 -2 12 -8t12 -8q22 -12 21 -39q0 -26 -20 -172q-1 -15 -13 -27t-26 -12h-520z" />
    <glyph glyph-name="uni03BC" unicode="&#x3bc;" horiz-adv-x="997" 
d="M201 -612h-226q-14 0 -23 11t-7 28l192 1353q1 16 13 28t26 11h227q13 0 23 -11t8 -28l-59 -413q-17 -123 77 -121q46 0 78 39t41 98l58 397q4 23 14 31t39 8h207q14 0 23 -11t8 -28l-105 -741q-2 -15 -14 -27t-27 -12h-98q-20 0 -29 25l-22 79q-104 -125 -277 -124
q-19 0 -29 2l-77 -555q-2 -15 -14 -27t-27 -12z" />
    <glyph glyph-name="pi" unicode="&#x3c0;" horiz-adv-x="1439" 
d="M180 559q-14 0 -23 11t-7 28l26 182q6 39 41 39h1063q35 0 29 -39l-27 -182q-2 -16 -13 -28t-26 -11h-115l-73 -520q-3 -15 -15 -27t-26 -12h-236q-14 0 -22 11t-6 28l73 520h-223l-74 -520q-2 -15 -14 -27t-27 -12h-237q-14 0 -23 11q-8 12 -6 28l74 520h-113z" />
    <glyph glyph-name="Wgrave" unicode="&#x1e80;" horiz-adv-x="1673" 
d="M1120 1561l-321 168q-31 18 -2 61l80 113q20 29 49 6l291 -213q23 -12 6 -39l-49 -78q-21 -34 -54 -18zM453 1434q10 0 19 -10t9 -19l39 -694h8l381 721q12 23 35 22h33q25 0 29 -22l178 -721h6l237 694q12 29 37 29h246q20 0 28 -14t-1 -36l-541 -1376q-10 -29 -37 -28
h-31q-20 0 -28 22l-221 838h-9l-456 -838q-14 -23 -35 -22h-29q-27 -1 -31 28l-153 1376q-2 20 9 34t30 16h248z" />
    <glyph glyph-name="wgrave" unicode="&#x1e81;" horiz-adv-x="1167" 
d="M791 1049l-322 168q-31 18 -2 61l80 113q20 29 49 6l291 -213q23 -12 6 -39l-49 -78q-20 -34 -53 -18zM86 819h184q27 0 31 -24l59 -273h2l211 281q12 16 31 16h21q16 0 24 -16l131 -281h2l127 273q12 24 43 24h195q21 0 29 -15t0 -36l-365 -764q-10 -25 -35 -24h-8
q-18 0 -27 16l-186 393l-293 -393q-10 -16 -33 -16h-8q-24 -1 -28 24l-146 764q-4 20 8 36t31 15z" />
    <glyph glyph-name="Wacute" unicode="&#x1e82;" horiz-adv-x="1673" 
d="M848 1561q-33 -16 -47 18l-37 96q-10 27 16 39l353 213q35 23 51 -14l53 -123q18 -45 -20 -61zM453 1434q10 0 19 -10t9 -19l39 -694h8l381 721q12 23 35 22h33q25 0 29 -22l178 -721h6l237 694q12 29 37 29h246q20 0 28 -14t-1 -36l-541 -1376q-10 -29 -37 -28h-31
q-20 0 -28 22l-221 838h-9l-456 -838q-14 -23 -35 -22h-29q-27 -1 -31 28l-153 1376q-2 20 9 34t30 16h248z" />
    <glyph glyph-name="wacute" unicode="&#x1e83;" horiz-adv-x="1167" 
d="M518 1049q-33 -16 -47 18l-37 96q-10 27 17 39l352 213q35 23 51 -14l53 -123q18 -45 -20 -61zM86 819h184q27 0 31 -24l59 -273h2l211 281q12 16 31 16h21q16 0 24 -16l131 -281h2l127 273q12 24 43 24h195q21 0 29 -15t0 -36l-365 -764q-10 -25 -35 -24h-8
q-18 0 -27 16l-186 393l-293 -393q-10 -16 -33 -16h-8q-24 -1 -28 24l-146 764q-4 20 8 36t31 15z" />
    <glyph glyph-name="Wdieresis" unicode="&#x1e84;" horiz-adv-x="1673" 
d="M737 1573q-53 0 -85 43t-23 102q8 60 51 102t96 42t87 -42t25 -102q-10 -60 -54 -102q-44 -43 -97 -43zM1227 1573q-53 0 -85 43t-24 102q8 60 51 102t97 42t87 -42q35 -42 25 -102t-54 -102q-44 -43 -97 -43zM453 1434q10 0 19 -10t9 -19l39 -694h8l381 721q12 23 35 22
h33q25 0 29 -22l178 -721h6l237 694q12 29 37 29h246q20 0 28 -14t-1 -36l-541 -1376q-10 -29 -37 -28h-31q-20 0 -28 22l-221 838h-9l-456 -838q-14 -23 -35 -22h-29q-27 -1 -31 28l-153 1376q-2 20 9 34t30 16h248z" />
    <glyph glyph-name="wdieresis" unicode="&#x1e85;" horiz-adv-x="1167" 
d="M467 1096q-53 0 -85 43t-24 102t52 101t96 42q53 0 87 -42q35 -42 25 -101t-54 -102t-97 -43zM846 1096q-53 0 -85 43t-24 102t51 101q42 42 96 42t88 -42t24 -101t-53 -102q-44 -43 -97 -43zM86 819h184q27 0 31 -24l59 -273h2l211 281q12 16 31 16h21q16 0 24 -16
l131 -281h2l127 273q12 24 43 24h195q21 0 29 -15t0 -36l-365 -764q-10 -25 -35 -24h-8q-18 0 -27 16l-186 393l-293 -393q-10 -16 -33 -16h-8q-24 -1 -28 24l-146 764q-4 20 8 36t31 15z" />
    <glyph glyph-name="Ygrave" unicode="&#x1ef2;" horiz-adv-x="1105" 
d="M815 1561l-321 168q-31 18 -2 61l79 113q20 29 50 6l290 -213q23 -12 7 -39l-50 -78q-20 -34 -53 -18zM395 1434q20 0 29 -19l170 -420l289 420q14 18 32 19h289q23 0 30 -20t-7 -40l-502 -682l-90 -653q-2 -15 -14 -27t-27 -12h-254q-33 0 -29 39l92 651l-303 684
q-8 20 4 40t33 20h258z" />
    <glyph glyph-name="ygrave" unicode="&#x1ef3;" horiz-adv-x="868" 
d="M633 1049l-322 168q-31 18 -2 61l80 113q20 29 49 6l291 -213q23 -12 6 -39l-49 -78q-20 -34 -53 -18zM78 819h209q23 0 26 -22l90 -375h3l182 375q10 23 35 22h237q20 0 26 -16t-3 -37l-754 -1356q-12 -25 -35 -24h-239q-20 0 -27 14q-6 14 6 37l379 655l-172 682
q-10 45 37 45z" />
    <glyph glyph-name="endash" unicode="&#x2013;" horiz-adv-x="1021" 
d="M119 416q-35 0 -31 37l14 104q6 39 41 39h772q35 0 29 -39l-14 -104q-4 -37 -41 -37h-770z" />
    <glyph glyph-name="emdash" unicode="&#x2014;" horiz-adv-x="1427" 
d="M119 416q-35 0 -31 37l14 104q6 39 41 39h1178q35 0 29 -39l-15 -104q-4 -37 -41 -37h-1175z" />
    <glyph glyph-name="quoteleft" unicode="&#x2018;" horiz-adv-x="405" 
d="M310 1128q52 0 87 -36t35 -98t-52 -110t-116 -48t-110 47q-45 47 -45 143q0 246 229 414q25 18 37 2l28 -39q18 -25 -6 -41t-53 -41t-69 -84t-50 -123h4q29 14 81 14z" />
    <glyph glyph-name="quoteright" unicode="&#x2019;" horiz-adv-x="395" 
d="M248 1161q-52 0 -86 37q-35 38 -35 98t52 109q53 49 117 49t110 -47t45 -143q0 -246 -230 -414q-25 -18 -37 -2l-28 39q-18 25 6 41t53 41t69 84t50 123h-4q-30 -15 -82 -15z" />
    <glyph glyph-name="quotesinglbase" unicode="&#x201a;" horiz-adv-x="452" 
d="M2 114q0 60 52 109t116 49t110 -47t46 -143q0 -246 -230 -414q-25 -18 -37 -2l-28 39q-18 25 6 41t53 41t69 84t50 123l-4 -2q-4 0 -11 -2t-22 -6t-58 -4q-42 0 -77 36q-35 38 -35 98z" />
    <glyph glyph-name="quotedblleft" unicode="&#x201c;" horiz-adv-x="780" 
d="M310 1128q52 0 87 -36t35 -98t-52 -110t-116 -48t-110 47q-45 47 -45 143q0 246 229 414q25 18 37 2l28 -39q18 -25 -6 -41t-53 -41t-69 -84t-50 -123h4q29 14 81 14zM684 1128q52 0 88 -36q35 -36 35 -98t-52 -110q-53 -48 -117 -48t-110 47q-45 47 -45 143
q0 246 230 414q25 18 37 2l28 -39q18 -25 -6 -41t-53 -41t-69 -84t-50 -123h4q28 14 80 14z" />
    <glyph glyph-name="quotedblright" unicode="&#x201d;" horiz-adv-x="770" 
d="M248 1161q-52 0 -86 37q-35 38 -35 98t52 109q53 49 117 49t110 -47t45 -143q0 -246 -230 -414q-25 -18 -37 -2l-28 39q-18 25 6 41t53 41t69 84t50 123h-4q-30 -15 -82 -15zM624 1161q-52 0 -87 37q-35 38 -35 98t52 109t116 49t110 -47q45 -47 45 -143
q0 -246 -229 -414q-25 -18 -37 -2l-29 39q-18 25 6 41t54 41q29 25 68 84q40 59 51 123h-4q-29 -15 -81 -15z" />
    <glyph glyph-name="quotedblbase" unicode="&#x201e;" horiz-adv-x="827" 
d="M2 114q0 60 52 109t116 49t110 -47t46 -143q0 -246 -230 -414q-25 -18 -37 -2l-28 39q-18 25 6 41t53 41t69 84t50 123l-4 -2q-4 0 -11 -2t-22 -6t-58 -4q-42 0 -77 36q-35 38 -35 98zM377 114q0 60 52 109q53 49 117 49t109 -47t45 -143q0 -246 -229 -414
q-25 -18 -37 -2l-28 39q-18 25 6 41t53 41t69 84t50 123l-4 -2q-4 0 -23 -5q-93 -25 -145 29q-35 38 -35 98z" />
    <glyph glyph-name="dagger" unicode="&#x2020;" horiz-adv-x="1138" 
d="M45 537q-14 0 -23 11t-8 27l31 205q2 14 13 26t26 13h274l80 576q8 39 41 39h252q15 0 23 -12t6 -27l-80 -576h291q14 0 22 -11t6 -28l-28 -205q-1 -16 -13 -27t-26 -11h-316l-237 -1119q-8 -33 -39 -32h-45q-12 0 -23 10q-10 10 -8 22l76 1119h-295z" />
    <glyph glyph-name="daggerdbl" unicode="&#x2021;" horiz-adv-x="1138" 
d="M27 2q-14 0 -23 11q-8 11 -6 28l29 205q2 14 14 26t27 13h254l36 530l2 2h-274q-14 0 -23 11q-8 11 -6 28l29 205q2 14 14 26t27 13h272l41 295q8 39 41 39h252q15 0 23 -12t6 -27l-41 -295h291q14 0 22 -11t6 -28l-28 -205q-2 -16 -14 -28t-25 -11h-293l-115 -532h279
q31 0 26 -39l-28 -205q-2 -15 -14 -27t-25 -12h-297l-125 -584q-8 -33 -39 -32h-45q-12 0 -23 10q-10 10 -8 22l37 584h-276z" />
    <glyph glyph-name="bullet" unicode="&#x2022;" horiz-adv-x="747" 
d="M238 170q-114 0 -181 75t-67 193t98 217q98 101 210 101t184 -77q71 -77 71 -195t-100 -217q-101 -97 -215 -97z" />
    <glyph glyph-name="ellipsis" unicode="&#x2026;" horiz-adv-x="1271" 
d="M102 -20q-64 0 -103 42q-38 42 -38 108t54 121q55 54 119 54t104 -41q40 -42 38 -108q0 -66 -55 -121t-119 -55zM397 130q-1 66 53 121q54 54 120 54t104 -41q39 -42 39 -108q1 -66 -55 -121t-120 -55t-103 42q-38 42 -38 108zM817 130q0 66 54 121q55 54 119 54t104 -41
q40 -42 39 -108q1 -66 -55 -121t-120 -55t-103 42q-38 42 -38 108z" />
    <glyph glyph-name="perthousand" unicode="&#x2030;" horiz-adv-x="1816" 
d="M737 242q0 -63 45 -64q27 0 43 25t17 63q0 66 -45 66q-27 0 -43 -26t-17 -64zM1288 242q0 -63 45 -64q27 0 43 25t17 63q0 66 -45 66q-28 0 -44 -26t-16 -64zM539 234q0 114 84 205t206 91q88 0 151 -68q62 -68 62 -184t-84 -207t-189 -91t-168 69q-62 71 -62 185z
M1090 234q0 114 84 205t206 91q88 0 151 -68q62 -68 62 -184t-84 -207t-189 -91t-168 69q-62 71 -62 185zM287 1102q27 0 43 24t16 64q0 66 -45 65q-27 1 -43 -25t-16 -65q0 -63 45 -63zM59 0q-20 0 -28 17t4 38l827 1358q10 20 35 21h121q20 0 28 -18t-6 -38l-827 -1358
q-16 -20 -33 -20h-121zM274 903q-106 0 -169 70q-62 71 -62 185t84 205t207 91q88 0 150 -69t62 -184t-83 -207t-189 -91z" />
    <glyph glyph-name="guilsinglleft" unicode="&#x2039;" horiz-adv-x="552" 
d="M483 774q25 0 30 -19t-9 -44l-164 -305l59 -281q9 -60 -37 -62h-165q-17 1 -25 17l-147 317q-12 23 6 49l233 304q20 25 37 24h182z" />
    <glyph glyph-name="guilsinglright" unicode="&#x203a;" horiz-adv-x="555" 
d="M29 63q-25 -1 -30 19t9 45l164 305l-59 281q-9 61 37 61h165q16 0 25 -16l147 -318q12 -23 -6 -49l-233 -303q-20 -25 -37 -25h-182z" />
    <glyph glyph-name="fraction" unicode="&#x2044;" horiz-adv-x="231" 
d="M-172 0h-121q-20 0 -29 17q-8 17 5 38l827 1358q10 20 35 21h121q20 0 27 -18t-5 -38l-827 -1358q-16 -20 -33 -20z" />
    <glyph glyph-name="zerosuperior" unicode="&#x2070;" horiz-adv-x="667" 
d="M459 1481q-31 1 -55 -63t-24 -146t37 -82q36 0 57 70q22 70 22 146t-37 75zM397 1012q-100 0 -154 68t-55 186q0 182 77 287t214 106q99 0 155 -68t56 -186q0 -181 -78 -287t-215 -106z" />
    <glyph glyph-name="foursuperior" unicode="&#x2074;" horiz-adv-x="690" 
d="M365 1282h94l18 115zM440 1032q-20 0 -16 19l14 96h-231q-18 0 -14 16l18 127l336 342q6 6 16 6h103q18 0 14 -18l-47 -334h69q18 0 15 -16l-15 -105q-4 -18 -18 -18h-72l-12 -96q-4 -18 -20 -19h-140z" />
    <glyph glyph-name="fivesuperior" unicode="&#x2075;" horiz-adv-x="604" 
d="M365 1012q-57 0 -105 26t-65 52q-12 16 2 30l65 76q18 20 44 -2t61 -23t57 17t20 45q0 27 -14 41t-35 14h-131q-12 0 -20 9t-6 22l43 301q4 18 22 18h297q20 0 16 -18l-14 -109q-4 -18 -22 -18h-168l-9 -59h46q78 0 131 -46t53 -142q-1 -96 -71 -164q-70 -70 -197 -70z
" />
    <glyph glyph-name="sixsuperior" unicode="&#x2076;" horiz-adv-x="624" 
d="M406 1169q24 0 38 23q14 22 14 66t-34 45q-23 0 -39 -22t-16 -67t37 -45zM633 1244q1 -92 -69 -162t-170 -70t-154 58q-55 58 -56 149q0 324 375 448q33 8 37 -18l20 -82q0 -27 -22 -35q-47 -14 -105 -50t-82 -81q2 0 21 11q18 11 70 11q53 0 94 -44t41 -135z" />
    <glyph glyph-name="sevensuperior" unicode="&#x2077;" horiz-adv-x="598" 
d="M201 1032q-12 0 -20 4q-7 4 -3 25l248 426h-147q-20 0 -17 16l17 117q4 18 20 18h365q6 0 12 -5t4 -13l-4 -33l-303 -536q-12 -18 -33 -19h-139z" />
    <glyph glyph-name="eightsuperior" unicode="&#x2078;" horiz-adv-x="651" 
d="M417 1157q24 -1 43 17t22 40t-11 39t-38 17t-42 -16t-21 -40q-3 -23 10 -40t37 -17zM465 1509q-21 0 -37 -14t-18 -35q-4 -47 43 -47t53 47q6 49 -41 49zM404 1012q-106 0 -165 44q-58 44 -59 113q0 104 137 174v3q-29 12 -53 45t-24 79q0 84 73 137q74 52 166 52
q91 0 149 -42q58 -41 58 -107t-38 -108t-81 -56v-3q37 -10 67 -44t30 -89q0 -86 -77 -142t-183 -56z" />
    <glyph glyph-name="ninesuperior" unicode="&#x2079;" horiz-adv-x="624" 
d="M424 1368q23 0 39 22t16 66t-37 45q-23 -1 -38 -23t-15 -66t35 -44zM215 1426q0 91 70 162t169 71t154 -58t56 -149q0 -323 -375 -448q-33 -8 -37 18l-21 82q0 27 23 35q46 13 104 49t83 82q-2 0 -22 -12q-19 -12 -70 -11q-52 0 -93 44t-41 135z" />
    <glyph glyph-name="zeroinferior" unicode="&#x2080;" horiz-adv-x="667" 
d="M176 -68q0 -82 36 -82t57 70q22 70 22 146t-37 75q-30 1 -54 -63t-24 -146zM-16 -74q0 182 76 288q77 105 214 105q100 0 156 -67q55 -68 55 -186q0 -180 -77 -287q-78 -106 -215 -107q-101 0 -155 68t-54 186z" />
    <glyph glyph-name="oneinferior" unicode="&#x2081;" horiz-adv-x="471" 
d="M39 88q-12 0 -12 23l14 77q2 12 18 23l156 88h131q18 0 14 -18l-79 -570q-4 -18 -21 -18h-154q-16 0 -16 18l53 377h-104z" />
    <glyph glyph-name="twoinferior" unicode="&#x2082;" horiz-adv-x="583" 
d="M247 319q87 0 136 -46q49 -47 49 -131t-74 -187l-77 -109h86q20 0 16 -18l-16 -117q1 -6 -7 -12t-14 -6h-360q-20 0 -17 18l6 37l218 266q43 50 43 94t-36 44t-66 -25t-40 4l-31 86q-17 34 19 55q78 47 165 47z" />
    <glyph glyph-name="threeinferior" unicode="&#x2083;" horiz-adv-x="581" 
d="M127 70h51q16 0 30 15q13 15 13 42q0 37 -33 37q-20 0 -53 -25q-20 -12 -33 8l-43 80q-12 25 9 43q63 49 157 49t146 -39q51 -40 51 -108q0 -113 -117 -168q90 -41 90 -134q-1 -93 -73 -145q-72 -53 -170 -53t-156 60q-20 20 -2 45l49 65q20 22 46 6t56 -16q51 0 52 59
q0 41 -37 41h-66q-20 0 -16 33l8 70q2 35 41 35z" />
    <glyph glyph-name="fourinferior" unicode="&#x2084;" horiz-adv-x="690" 
d="M160 -57h94l18 114zM358 299h103q18 0 14 -18l-47 -334h70q18 0 14 -17l-14 -104q-4 -18 -19 -19h-71l-13 -96q-4 -18 -20 -18h-139q-20 0 -17 18l14 96h-231q-18 0 -14 17l18 127l336 342q6 6 16 6z" />
    <glyph glyph-name="fiveinferior" unicode="&#x2085;" horiz-adv-x="604" 
d="M98 299h297q20 0 17 -18l-15 -109q-4 -18 -22 -18h-168l-8 -60h45q78 0 131 -46t53 -142t-71 -164q-71 -70 -197 -70q-58 0 -106 26q-93 50 -62 83l65 76q18 19 44 -3t61 -22q34 0 56 17t22 45t-14 40q-14 14 -36 15h-131q-12 -1 -20 9t-6 22l43 301q4 18 22 18z" />
    <glyph glyph-name="sixinferior" unicode="&#x2086;" horiz-adv-x="624" 
d="M219 -37q-23 1 -39 -21t-16 -67t37 -45q23 0 38 23t15 67t-35 43zM-20 -121q0 324 374 449q33 8 37 -19l21 -82q0 -27 -23 -34q-47 -14 -105 -50t-82 -81q5 0 20 11t70 11q54 0 95 -44t41 -135t-70 -162t-169 -71t-154 58t-55 149z" />
    <glyph glyph-name="seveninferior" unicode="&#x2087;" horiz-adv-x="598" 
d="M74 147q-20 0 -17 17l17 117q4 18 20 18h365q6 0 12 -5t4 -13l-4 -33l-303 -537q-12 -18 -33 -18h-139q-12 0 -20 4q-7 4 -3 24l248 426h-147z" />
    <glyph glyph-name="eightinferior" unicode="&#x2088;" horiz-adv-x="651" 
d="M212 -182q24 0 43 17q46 41 11 79q-14 16 -38 16t-42 -16t-21 -39t10 -40t37 -17zM246 74q23 0 38 13t17 34q6 49 -41 49q-20 0 -37 -14q-16 -15 -18 -35q-4 -47 41 -47zM275 319q92 1 149 -41t57 -108t-38 -108t-81 -56v-2q37 -10 67 -44t30 -89q0 -86 -77 -142
q-78 -57 -184 -57t-164 44t-59 114q1 104 138 174v2q-29 12 -54 45t-24 80q0 84 74 136t166 52z" />
    <glyph glyph-name="nineinferior" unicode="&#x2089;" horiz-adv-x="624" 
d="M238 162q-22 0 -38 -22t-16 -67q0 -44 35 -44q23 -1 39 21t16 67t-36 45zM10 87q0 91 70 162t169 71t154 -59q55 -58 56 -148q0 -324 -375 -449q-33 -8 -37 19l-20 81q0 27 22 35q47 13 105 49t82 82q-2 0 -11 -5q-8 -5 -22 -11q-15 -6 -63 -6t-89 44t-41 135z" />
    <glyph glyph-name="Euro" unicode="&#x20ac;" horiz-adv-x="1335" 
d="M82 508q-14 0 -23 11q-8 11 -6 28l4 35q1 16 13 27t26 12h70v4q0 72 8 129h-59q-31 0 -27 39l4 34q2 15 13 27t26 12h66q68 262 268 425q201 163 468 163t431 -190q23 -31 -8 -58l-176 -155q-25 -23 -47 0q-85 94 -209 94t-218 -77t-147 -202h367q14 0 24 -11t6 -28
l-6 -39q-8 -37 -41 -36h-383q-6 -48 -6 -84t2 -47h295q15 1 25 -11t6 -28l-6 -37q-8 -37 -39 -37h-258q31 -92 97 -147q68 -54 166 -54t226 107q10 8 26 8t23 -10l140 -185q18 -27 -11 -55q-207 -193 -462 -192q-207 0 -371 150t-203 378h-94z" />
    <glyph glyph-name="afii61289" unicode="&#x2113;" horiz-adv-x="1034" 
d="M664 1298q-76 0 -162 -152t-166 -417l-27 -94q164 78 273 217t133 317q18 129 -51 129zM301 -20q-125 0 -186 100t-43 239q4 35 20 101q-15 -4 -40 -12q-24 -9 -36 -10q-27 -2 -24 26l6 92q0 35 35 43q63 14 110 31q7 20 23 76t29 90q109 352 223 525q115 173 266 173
q100 0 148 -77t30 -208q-68 -487 -608 -704q-18 -51 -33 -141q-25 -188 94 -189q123 0 275 88q33 18 40 11t13 -21l23 -49q12 -25 10 -34t-23 -28q-79 -57 -177 -90q-97 -32 -175 -32z" />
    <glyph glyph-name="trademark" unicode="&#x2122;" horiz-adv-x="1329" 
d="M104 774q-14 0 -23 11t-5 28l61 442h-106q-15 -1 -23 11t-6 28l14 101q2 14 14 26t27 13h396q14 0 23 -12t7 -27l-14 -101q-6 -39 -41 -39h-106l-62 -442q-2 -15 -14 -27t-27 -12h-115zM494 774q-18 0 -27 14q-8 14 -2 33l178 592q8 31 41 31h6q20 0 29 -23l123 -352
l223 352q14 23 35 23h6q31 0 31 -31l14 -594q0 -17 -12 -31t-29 -14h-113q-29 0 -28 35l4 215l-135 -238q-10 -18 -33 -18h-10q-23 0 -29 20l-68 236l-55 -217q-4 -13 -16 -23t-25 -10h-108z" />
    <glyph glyph-name="Omega" unicode="&#x2126;" horiz-adv-x="1599" 
d="M-20 0q-14 0 -24 11q-9 11 -7 28l33 223q2 16 13 28t25 11h154q-51 49 -88 149t-37 199q0 164 66 315q129 296 416 427q140 63 288 63q246 0 409 -174t163 -444q0 -139 -68 -299t-166 -236h135q37 0 33 -39l-33 -223q-2 -15 -14 -27t-27 -12h-518q-35 0 -31 39l19 133
q2 16 6 28t7 24q3 11 29 26q25 14 28 16q135 80 203 228t69 293q0 147 -78 243t-211 96q-176 0 -292 -154t-116 -378q0 -222 148 -328q4 -2 12 -8t12 -8q22 -12 21 -39q0 -26 -20 -172q-1 -15 -13 -27t-26 -12h-520z" />
    <glyph glyph-name="estimated" unicode="&#x212e;" horiz-adv-x="1685" 
d="M299 786h825l41 291q-49 105 -150 165t-231 61q-279 0 -442 -222zM618 129q190 0 383 162q23 18 33 20t27 -14l37 -53q16 -25 -21 -66q-223 -198 -491 -198t-434 213t-122 523t269 524t503 214t444 -217q165 -217 124 -530q-6 -39 -18 -53t-41 -13h-1032l-41 -289
q51 -104 152 -164t228 -59z" />
    <glyph glyph-name="onethird" unicode="&#x2153;" horiz-adv-x="1228" 
d="M807 199q0 41 -37 41h-65q-20 0 -17 32l8 70q2 35 41 35h51q16 0 30 15q13 15 13 47t-32 32q-20 0 -54 -25q-20 -12 -32 9l-43 80q-12 25 8 43q64 49 158 49t145 -40t51 -108q0 -113 -117 -168q91 -41 91 -134t-73 -145t-171 -52t-156 59q-20 20 -2 45l49 66q20 22 45 6
t58 -17q51 0 51 60zM145 827q-16 0 -16 19l53 377h-104q-12 0 -12 22l14 78q2 12 18 23l156 88h131q18 0 14 -19l-80 -569q-4 -18 -20 -19h-154zM20 0q-20 0 -28 17t4 38l827 1358q10 20 35 21h121q19 0 27 -18t-5 -38l-827 -1358q-14 -20 -33 -20h-121z" />
    <glyph glyph-name="twothirds" unicode="&#x2154;" horiz-adv-x="1228" 
d="M807 199q0 41 -37 41h-65q-20 0 -17 32l8 70q2 35 41 35h51q16 0 30 15q13 15 13 47t-32 32q-20 0 -54 -25q-20 -12 -32 9l-43 80q-12 25 8 43q64 49 158 49t145 -40t51 -108q0 -113 -117 -168q91 -41 91 -134t-73 -145t-171 -52t-156 59q-20 20 -2 45l49 66q20 22 45 6
t58 -17q51 0 51 60zM20 0q-20 0 -28 17t4 38l827 1358q10 20 35 21h121q19 0 27 -18t-5 -38l-827 -1358q-14 -20 -33 -20h-121zM-51 827q-20 0 -17 19l7 37l217 266q43 51 43 94t-36 43t-66 -24t-40 4l-30 86q-16 33 18 55q78 47 165 47t136 -46t49 -131t-73 -187l-78 -109
h86q20 0 16 -18l-16 -117q0 -6 -7 -12t-14 -7h-360z" />
    <glyph glyph-name="oneeighth" unicode="&#x215b;" horiz-adv-x="1228" 
d="M841 233q-23 1 -39 -15t-19 -38t11 -35q14 -14 34 -14q22 0 39 15t19 37t-10 36q-13 14 -35 14zM860 385q47 0 51 43q6 45 -37 45q-18 -1 -34 -13t-17 -32q-4 -43 37 -43zM590 137q0 104 137 174v2q-29 12 -53 45t-25 80q0 84 74 136t166 52t149 -41q58 -41 58 -107
t-38 -108t-81 -57v-2q37 -10 67 -44t29 -89q0 -86 -77 -142t-183 -56q-107 0 -165 44t-58 113zM145 827q-16 0 -16 19l53 377h-104q-12 0 -12 22l14 78q2 12 18 23l156 88h131q18 0 14 -19l-80 -569q-4 -18 -20 -19h-154zM20 0q-20 0 -28 17t4 38l827 1358q10 20 35 21h121
q19 0 27 -18t-5 -38l-827 -1358q-14 -20 -33 -20h-121z" />
    <glyph glyph-name="threeeighths" unicode="&#x215c;" horiz-adv-x="1228" 
d="M841 233q-23 1 -39 -15t-19 -38t11 -35q14 -14 34 -14q22 0 39 15t19 37t-10 36q-13 14 -35 14zM860 385q47 0 51 43q6 45 -37 45q-18 -1 -34 -13t-17 -32q-4 -43 37 -43zM590 137q0 104 137 174v2q-29 12 -53 45t-25 80q0 84 74 136t166 52t149 -41q58 -41 58 -107
t-38 -108t-81 -57v-2q37 -10 67 -44t29 -89q0 -86 -77 -142t-183 -56q-107 0 -165 44t-58 113zM20 0q-20 0 -28 17t4 38l827 1358q10 20 35 21h121q19 0 27 -18t-5 -38l-827 -1358q-14 -20 -33 -20h-121zM118 807q-97 0 -157 59q-20 20 -2 45l49 66q20 23 46 7t57 -17
q51 0 51 59q0 41 -37 41h-66q-20 0 -16 33l8 69q2 35 41 35h51q15 0 29 16t14 42q0 37 -32 36q-20 0 -54 -24q-20 -12 -32 8l-43 80q-12 25 8 43q63 49 157 49t146 -40q51 -40 51 -107q0 -113 -117 -168q90 -41 90 -134t-72 -146q-73 -52 -170 -52z" />
    <glyph glyph-name="fiveeighths" unicode="&#x215d;" horiz-adv-x="1228" 
d="M841 233q-23 1 -39 -15t-19 -38t11 -35q14 -14 34 -14q22 0 39 15t19 37t-10 36q-13 14 -35 14zM860 385q47 0 51 43q6 45 -37 45q-18 -1 -34 -13t-17 -32q-4 -43 37 -43zM590 137q0 104 137 174v2q-29 12 -53 45t-25 80q0 84 74 136t166 52t149 -41q58 -41 58 -107
t-38 -108t-81 -57v-2q37 -10 67 -44t29 -89q0 -86 -77 -142t-183 -56q-107 0 -165 44t-58 113zM109 807q-57 0 -105 26q-94 50 -63 82l65 76q18 19 44 -3t61 -22t57 18q22 17 20 44q0 27 -14 41t-35 14h-131q-12 -1 -20 9t-6 22l43 301q4 18 22 19h297q20 0 16 -19l-14 -108
q-4 -18 -22 -19h-168l-9 -59h46q78 0 131 -46q53 -45 53 -141q-1 -96 -71 -166t-197 -69zM20 0q-20 0 -28 17t4 38l827 1358q10 20 35 21h121q19 0 27 -18t-5 -38l-827 -1358q-14 -20 -33 -20h-121z" />
    <glyph glyph-name="seveneighths" unicode="&#x215e;" horiz-adv-x="1228" 
d="M841 233q-23 1 -39 -15t-19 -38t11 -35q14 -14 34 -14q22 0 39 15t19 37t-10 36q-13 14 -35 14zM860 385q47 0 51 43q6 45 -37 45q-18 -1 -34 -13t-17 -32q-4 -43 37 -43zM590 137q0 104 137 174v2q-29 12 -53 45t-25 80q0 84 74 136t166 52t149 -41q58 -41 58 -107
t-38 -108t-81 -57v-2q37 -10 67 -44t29 -89q0 -86 -77 -142t-183 -56q-107 0 -165 44t-58 113zM-2 827q-12 0 -20 4q-7 4 -3 25l248 426h-147q-20 0 -17 16l17 117q4 18 20 19h365q6 0 12 -6t4 -13l-4 -33l-303 -536q-12 -18 -33 -19h-139zM20 0q-20 0 -28 17t4 38l827 1358
q10 20 35 21h121q19 0 27 -18t-5 -38l-827 -1358q-14 -20 -33 -20h-121z" />
    <glyph glyph-name="partialdiff" unicode="&#x2202;" horiz-adv-x="1167" 
d="M385 433q1 -171 137 -171q70 0 121 72t51 164q0 159 -135 159q-70 -1 -122 -71t-52 -153zM106 379q0 246 130 380t307 134q96 0 155 -49q-11 195 -224 316q-44 26 -83 40q-49 14 -26 60l71 145q20 45 66 31q107 -33 229 -137q74 -62 131 -141t97 -202t40 -259
q-1 -136 -29 -257q-67 -282 -253 -396q-106 -64 -252 -64q-147 0 -253 116t-106 283z" />
    <glyph glyph-name="Delta" unicode="&#x2206;" horiz-adv-x="1454" 
d="M399 295l398 2l-127 512h-2zM-4 0q-83 0 -41 92l752 1340q14 23 32 22h19q25 0 28 -22l373 -1344q10 -36 -4 -62t-45 -26h-1114z" />
    <glyph glyph-name="product" unicode="&#x220f;" horiz-adv-x="1429" 
d="M1333 1434q15 0 23 -12t6 -27l-191 -1356q-2 -15 -14 -27t-27 -12h-243q-33 0 -29 39l154 1094h-477l-154 -1094q-2 -15 -14 -27t-27 -12h-246q-14 0 -22 12t-6 27l190 1356q2 14 14 26t27 13h1036z" />
    <glyph glyph-name="summation" unicode="&#x2211;" horiz-adv-x="1130" 
d="M1047 1434q33 0 28 -39l-31 -224q-2 -16 -14 -27t-26 -11h-316l191 -254q29 -41 18 -115l-14 -90q-8 -57 -47 -96l-256 -277h307q33 0 28 -39l-30 -223q-3 -15 -15 -27t-26 -12h-762q-33 0 -29 39l15 100l540 609l-377 563l13 84q2 16 14 27t27 12h762z" />
    <glyph glyph-name="minus" unicode="&#x2212;" horiz-adv-x="993" 
d="M12 600q-14 0 -22 11t-6 28l20 143q2 16 13 28t26 11h750q31 0 26 -39l-20 -143q-1 -15 -13 -27t-26 -12h-748z" />
    <glyph glyph-name="uni2215" unicode="&#x2215;" horiz-adv-x="231" 
d="M-172 0h-121q-20 0 -29 17q-8 17 5 38l827 1358q10 20 35 21h121q20 0 27 -18t-5 -38l-827 -1358q-16 -20 -33 -20z" />
    <glyph glyph-name="uni2219" unicode="&#x2219;" horiz-adv-x="747" 
d="M335 305q-89 0 -142 56q-53 55 -53 145t74 164q75 74 165 74t144 -58q55 -57 55 -146t-77 -162t-166 -73z" />
    <glyph glyph-name="radical" unicode="&#x221a;" horiz-adv-x="1425" 
d="M248 819h203q25 0 28 -22l58 -217h10l436 831q14 23 35 23h403q37 0 31 -39l-27 -183q-2 -16 -13 -27t-26 -11h-225l-657 -1172q-14 -23 -33 -22h-18q-21 -1 -29 22l-213 764q-6 20 5 36t32 17z" />
    <glyph glyph-name="infinity" unicode="&#x221e;" horiz-adv-x="1200" 
d="M409 528q31 0 55 23t28 57t-14 56t-47 22t-53 -24t-28 -56q-4 -34 12 -56t47 -22zM767 528q31 0 55 23t28 57t-13 56t-47 22t-54 -24t-28 -56q-4 -34 13 -56q16 -22 46 -22zM384 319q-108 0 -179 85q-69 85 -53 207t91 202t197 80q54 0 104 -30t79 -72q85 102 195 102
t178 -84t51 -206t-95 -203t-196 -81q-54 0 -104 29t-81 74q-79 -103 -187 -103z" />
    <glyph glyph-name="integral" unicode="&#x222b;" horiz-adv-x="724" 
d="M737 1454q74 0 127 -24q54 -24 74 -53q20 -28 2 -52l-113 -156q-23 -29 -47 -13t-68 15q-44 0 -82 -43t-50 -120l-168 -1198q-29 -211 -153 -328t-320 -117q-129 0 -201 78q-20 23 -2 51l106 154q16 28 45 14t75 -14t85 43t51 121l168 1198q29 212 153 328t318 116z" />
    <glyph glyph-name="approxequal" unicode="&#x2248;" horiz-adv-x="878" 
d="M306 524q50 0 174 -106q19 -17 57 -18q37 -1 104 89q23 27 43 3l78 -82q10 -25 -4 -41q-113 -168 -250 -168q-46 0 -71 16t-49 38q-75 69 -118 69t-108 -88q-10 -14 -24 -14t-19 9l-82 84q-16 18 4 39q2 2 15 20q105 150 250 150zM563 602q-49 0 -85 26q-11 6 -35 28
q-76 68 -118 69q-42 0 -108 -88q-9 -14 -23 -14t-20 10l-82 84q-16 18 4 39q2 2 16 20q56 78 96 102q74 46 137 47q62 1 144 -69q11 -6 39 -30q28 -25 65 -25q36 0 103 90q23 27 43 2l78 -82q10 -25 -4 -41q-113 -168 -250 -168z" />
    <glyph glyph-name="notequal" unicode="&#x2260;" horiz-adv-x="878" 
d="M61 246q-33 0 -28 39l20 145q1 16 13 28t26 11h225l109 209h-303q-14 0 -24 11q-9 11 -7 28l21 143q2 16 14 28t27 11h401l86 152q16 35 49 18l29 -16q27 -16 10 -49l-57 -105h123q33 0 28 -39l-20 -143q-2 -15 -13 -27t-26 -12h-223l-109 -209h301q13 0 23 -11t8 -28
l-21 -145q-2 -15 -14 -27t-27 -12h-401l-80 -148q-18 -33 -49 -16l-29 16q-31 16 -12 49l53 99h-123z" />
    <glyph glyph-name="lessequal" unicode="&#x2264;" horiz-adv-x="937" 
d="M33 80q-14 0 -24 11q-9 11 -7 28l21 143q2 14 14 26t26 13h691q31 0 26 -39l-20 -143q-5 -39 -37 -39h-690zM109 784q-16 10 -15 35l4 31q2 25 25 35l745 372q23 10 36 1t11 -33l-26 -189q-2 -20 -19 -28l-407 -181l358 -172q14 -6 10 -28l-22 -168q-1 -25 -21 -35t-36 2
z" />
    <glyph glyph-name="greaterequal" unicode="&#x2265;" horiz-adv-x="937" 
d="M25 80q-31 0 -27 39l18 143q2 16 14 28t25 11h690q15 0 23 -11t6 -28l-20 -143q-2 -15 -14 -27t-25 -12h-690zM90 426q-23 -10 -36 -1t-9 34l27 188q2 20 18 29l408 172l-359 180q-14 6 -10 29l23 168q2 25 19 33t36 -1l643 -372q14 -10 12 -35l-4 -31q-2 -23 -22 -35z
" />
    <glyph glyph-name="lozenge" unicode="&#x25ca;" horiz-adv-x="1454" 
d="M680 418h2l264 323l-172 295h-2l-260 -321zM840 1454q14 0 28 -22l361 -613q53 -92 -29 -186l-530 -610q-23 -23 -33 -23h-19q-16 0 -30 23l-367 620q-20 33 -11 83t46 93l530 613q23 23 35 22h19z" />
    <glyph glyph-name="uniF8FF" unicode="&#xf8ff;" horiz-adv-x="1226" 
d="M502 319q0 -41 30 -69t69 -29q40 0 70 29q29 30 29 70t-29 69q-30 29 -70 29q-39 0 -69 -29t-30 -70zM537 643q0 -25 28 -25h74q31 0 31 27v53q0 57 107 124q40 26 74 75t34 109q0 98 -73 162t-193 65q-120 0 -213 -80q-22 -18 -41 -44t-3 -38l46 -45q24 -18 70 33
q45 51 120 51q74 0 108 -31t34 -75t-32 -80q-32 -37 -70 -62q-38 -24 -70 -66t-31 -94v-59zM102 61v1311q0 61 62 62h899q61 0 61 -62v-1311q0 -61 -61 -61h-899q-62 0 -62 61z" />
    <glyph glyph-name="CR" horiz-adv-x="0" 
 />
    <glyph glyph-name="grave.cap" horiz-adv-x="557" 
d="M297 1561l-322 168q-31 18 -2 61l80 113q20 29 49 6l291 -213q23 -12 6 -39l-49 -78q-20 -34 -53 -18z" />
    <glyph glyph-name="acute.cap" horiz-adv-x="557" 
d="M31 1561q-33 -16 -47 18l-37 96q-10 27 16 39l352 213q35 23 52 -14l53 -123q18 -45 -21 -61z" />
    <glyph glyph-name="circumflex.cap" horiz-adv-x="688" 
d="M43 1561q-25 -14 -39 8l-55 96q-12 20 16 39l285 213q29 20 49 0l233 -213q20 -20 7 -39l-74 -94q-9 -10 -21 -13t-18 3l-166 122z" />
    <glyph glyph-name="caron.cap" horiz-adv-x="688" 
d="M207 1561l-234 213q-20 20 -6 38l74 95q8 10 20 13t19 -3l166 -123l217 123q25 14 39 -8l55 -97q12 -20 -16 -38l-285 -213q-29 -20 -49 0z" />
    <glyph glyph-name="caron.alt" horiz-adv-x="688" 
d="M290 1161q-52 0 -87 37q-35 38 -35 98t52 109t116 49t110 -47q45 -47 46 -143q0 -246 -230 -414q-25 -18 -37 -2l-28 39q-18 25 6 41t53 41t69 84t50 123h-4q-29 -15 -81 -15z" />
    <glyph glyph-name="tilde.cap" horiz-adv-x="700" 
d="M173 1884q42 0 100 -48q59 -48 97 -48t68 57q20 37 51 10l64 -53q14 -10 0 -44q-73 -172 -215 -174q-46 0 -106 48q-60 49 -93 49t-65 -61q-18 -39 -49 -12l-66 57q-24 24 23 91q85 128 191 128z" />
    <glyph glyph-name="dieresis.cap" horiz-adv-x="874" 
d="M82 1573q-53 0 -85 43t-24 102q7 60 51 102t97 42t87 -42t24 -102t-53 -102q-44 -43 -97 -43zM571 1573q-53 0 -85 43t-23 102q8 60 51 102t96 42t87 -42t25 -102q-10 -60 -54 -102q-44 -43 -97 -43z" />
    <glyph glyph-name="macron.cap" horiz-adv-x="763" 
d="M33 1640q-35 0 -31 37l12 84q6 39 41 39h475q35 0 29 -39l-14 -84q-8 -37 -41 -37h-471z" />
    <glyph glyph-name="breve.cap" horiz-adv-x="636" 
d="M210 1563q-106 1 -172 71q-67 70 -65 174q1 18 13 32t28 13h88q23 1 28 -33t30 -62q53 -59 123 2q33 30 47 62t39 31h102q15 0 25 -13t6 -32q-26 -109 -106 -177t-186 -68z" />
    <glyph glyph-name="ring.cap" horiz-adv-x="534" 
d="M144 1686q30 0 57 32t27 66q0 36 -18 58q-17 22 -46 22q-28 0 -56 -31t-28 -66t17 -58t47 -23zM139 1540q-90 0 -146 59t-56 158q-1 99 71 177t162 77q90 0 145 -60t55 -158q0 -97 -70 -175q-71 -78 -161 -78z" />
    <glyph glyph-name="hungarumlaut.cap" horiz-adv-x="722" 
d="M-37 1573q-16 0 -25 12t-4 27l86 289q10 39 41 38h197q25 0 32 -15t-7 -36l-183 -284q-18 -31 -47 -31h-90zM270 1573q-16 0 -26 12t-4 27l88 289q12 39 47 38h188q25 0 32 -15t-5 -36l-184 -284q-23 -31 -46 -31h-90z" />
    <glyph glyph-name="dotaccent.cap" horiz-adv-x="403" 
d="M82 1585q-64 0 -104 41q-38 40 -38 108t54 122q52 54 118 55q66 0 105 -42t39 -109t-55 -121t-119 -54z" />
    <glyph glyph-name="cedilla.cap" horiz-adv-x="454" 
d="M379 -285q1 -109 -61 -179t-156 -68q-94 0 -142 71q-16 25 9 49l45 50q18 23 40 1t45 -22q24 0 43 22t19 56q0 61 -108 74q-35 2 -27 36l29 195h143l-16 -106q137 -33 137 -179z" />
    <glyph glyph-name="ogonek.cap" horiz-adv-x="507" 
d="M184 -213q0 -119 117 -119q14 0 52 8t49 -4t8 -30l-11 -68q-4 -31 -34 -39q-43 -16 -128 -16t-155 52t-70 153t63 185t97 107l18 15h140q-16 -12 -41 -35q-25 -22 -65 -88t-40 -121z" />
    <glyph glyph-name="commaaccent" horiz-adv-x="538" 
d="M246 -477q-52 0 -88 37q-35 38 -35 98t52 109q53 49 117 49t109 -47t45 -144q0 -246 -229 -413q-25 -18 -37 -3l-28 39q-18 25 6 41t53 41t69 84t50 123h-4q-28 -14 -80 -14z" />
    <glyph glyph-name="commaaccent.alt" horiz-adv-x="538" 
d="M246 -477q-52 0 -88 37q-35 38 -35 98t52 109q53 49 117 49t109 -47t45 -144q0 -246 -229 -413q-25 -18 -37 -3l-28 39q-18 25 6 41t53 41t69 84t50 123h-4q-28 -14 -80 -14z" />
    <glyph glyph-name="commaaccent.cap" horiz-adv-x="538" 
d="M246 -477q-52 0 -88 37q-35 38 -35 98t52 109q53 49 117 49t109 -47t45 -144q0 -246 -229 -413q-25 -18 -37 -3l-28 39q-18 25 6 41t53 41t69 84t50 123h-4q-28 -14 -80 -14z" />
    <glyph glyph-name="brokenbar.case" horiz-adv-x="604" 
d="M268 385h37q33 0 29 -39l-96 -678q-2 -14 -14 -25t-27 -12h-33q-14 -1 -24 11t-7 26l94 678q3 16 15 28t26 11zM362 1049q-14 0 -23 11t-7 25l96 678q2 15 13 27t26 12h37q33 0 28 -39l-96 -678q-2 -14 -13 -25t-26 -11h-35z" />
    <glyph glyph-name="zero.tf" horiz-adv-x="1146" 
d="M532 293q100 0 161 164q61 165 61 405t-103 240q-98 0 -159 -164t-62 -397q0 -115 26 -181t76 -67zM496 -20q-180 0 -288 150t-108 396q0 406 157 648t431 241q178 0 287 -148t108 -397q0 -403 -159 -647q-160 -243 -428 -243z" />
    <glyph glyph-name="one.tf" horiz-adv-x="1146" 
d="M186 0q-33 0 -28 37l24 186q4 39 41 39h203l98 699h-186q-14 0 -22 12q-7 12 -3 26l23 138q4 18 20 30l303 226h195q31 0 27 -39l-154 -1092h160q33 0 28 -39l-24 -186q-4 -37 -41 -37h-664z" />
    <glyph glyph-name="two.tf" horiz-adv-x="1146" 
d="M727 1008q0 57 -38 90t-89 32q-96 0 -184 -102q-29 -29 -51 0l-119 135q-10 9 -8 25t11 26t20 24q11 13 50 47q84 73 173 101q88 28 157 27q177 0 281 -103q104 -104 104 -272t-170 -393l-282 -383h292q14 0 22 -11t7 -28l-24 -184q-3 -15 -15 -27t-26 -12h-746
q-33 0 -29 39l5 41l544 694q115 147 115 234z" />
    <glyph glyph-name="three.tf" horiz-adv-x="1146" 
d="M448 252q87 0 135 52t48 122t-48 112q-48 44 -126 44h-103q-14 0 -22 11t-6 28l22 170q4 39 39 38h105q92 -1 147 51t55 118t-30 105q-31 38 -80 38q-80 0 -156 -82q-27 -29 -49 -2l-115 137q-23 27 8 53q174 166 379 166q150 0 255 -93q106 -92 106 -228t-75 -238
t-165 -143v-6q68 -33 123 -112t55 -183q0 -186 -130 -308t-361 -122q-139 0 -233 60t-134 122q-16 27 10 51l127 121q25 25 50 0q82 -82 169 -82z" />
    <glyph glyph-name="four.tf" horiz-adv-x="1146" 
d="M344 543h260l53 366zM41 289q-14 0 -24 11q-9 11 -7 28l31 217l754 858q12 12 28 12h154q31 0 29 -39l-115 -839h145q33 0 29 -37l-23 -170q-2 -14 -14 -26t-27 -13h-145l-33 -252q-2 -15 -14 -27t-27 -12h-225q-14 0 -22 12t-7 27l35 250h-522z" />
    <glyph glyph-name="five.tf" horiz-adv-x="1146" 
d="M280 344q14 0 25 -8q80 -80 191 -80q74 0 136 66t62 148t-41 129q-41 48 -108 48h-279q-27 0 -39 23t-8 49l90 635q3 16 15 27t26 12h602q14 1 22 -11t7 -28l-25 -180q-2 -14 -14 -26t-27 -13h-362l-31 -220h115q160 -1 259 -115t99 -286q0 -233 -137 -384t-387 -150
q-115 0 -213 56t-139 114q-27 39 6 69q57 53 131 117q10 8 24 8z" />
    <glyph glyph-name="six.tf" horiz-adv-x="1146" 
d="M558 262q68 0 121 67q54 67 54 149t-37 130q-36 49 -100 49t-114 -51t-60 -138q-10 -86 29 -146t107 -60zM135 435q0 198 64 369q63 170 154 278t204 189q187 134 344 169q39 8 47 -35l37 -152q10 -41 -43 -59q-70 -22 -138 -54t-159 -111q-90 -79 -123 -175
q80 39 172 39q123 -1 217 -107t95 -272q0 -223 -144 -379t-350 -155q-170 0 -274 128t-103 327z" />
    <glyph glyph-name="seven.tf" horiz-adv-x="1146" 
d="M309 1130q-14 0 -23 12t-7 27l26 185q2 14 14 26t27 13h787q33 0 26 -54l-756 -1314q-14 -25 -43 -25h-231q-39 0 -33 35l4 26l600 1069h-391z" />
    <glyph glyph-name="eight.tf" horiz-adv-x="1146" 
d="M418 375q0 -57 31 -91t83 -34t97 47t45 107t-27 102q-27 43 -76 61q-69 -27 -111 -81t-42 -111zM651 1147q-47 0 -88 -46t-41 -108q0 -88 90 -137q137 63 138 180q0 43 -26 77t-73 34zM84 324q0 80 37 156t91 125q101 94 150 116v6q-57 41 -102 111t-45 161
q0 186 129 300t332 114q160 0 274 -91t113 -237q0 -209 -238 -368l-2 -8q181 -125 181 -305t-138 -302t-372 -122q-176 0 -293 98t-117 246z" />
    <glyph glyph-name="nine.tf" horiz-adv-x="1146" 
d="M453 928q0 -82 37 -131q38 -49 100 -49t112 51t62 138q10 87 -29 146t-107 59t-121 -66q-54 -66 -54 -148zM492 512q-123 0 -218 106q-94 106 -94 273q0 223 144 379t350 155q170 0 273 -129q103 -128 103 -326t-62 -369q-64 -171 -155 -279t-204 -188
q-187 -134 -344 -169q-39 -8 -47 35l-37 152q-10 41 43 59q70 23 138 55t159 110q90 79 123 175q-80 -39 -172 -39z" />
    <glyph glyph-name="zero.denom" horiz-adv-x="667" 
d="M315 449q-31 1 -55 -63t-23 -146q0 -82 36 -82t58 70q21 70 21 145q0 76 -37 76zM45 233q0 181 77 287t214 107q100 0 156 -68t55 -186q0 -181 -78 -287t-215 -106q-100 0 -155 68q-54 68 -54 185z" />
    <glyph glyph-name="one.denom" horiz-adv-x="471" 
d="M100 395q-12 0 -12 23l14 78q2 12 19 22l155 88h132q18 0 14 -18l-80 -570q-4 -18 -20 -18h-154q-16 0 -16 18l53 377h-105z" />
    <glyph glyph-name="two.denom" horiz-adv-x="583" 
d="M297 416q0 43 -36 43q-36 -1 -66 -25t-39 4l-31 86q-17 33 18 56q78 47 165 47t136 -46q50 -46 50 -131t-74 -188l-78 -108h86q20 0 16 -19l-16 -117q0 -6 -7 -12t-13 -6h-361q-20 0 -16 18l6 37l217 267q43 51 43 94z" />
    <glyph glyph-name="three.denom" horiz-adv-x="581" 
d="M258 199q0 41 -37 41h-65q-20 0 -17 32l8 70q2 35 41 35h52q16 0 29 15t14 42q0 37 -33 37q-20 0 -53 -25q-20 -12 -33 9l-43 80q-12 25 8 43q63 49 157 49t146 -40q51 -40 51 -108q0 -113 -116 -168q90 -41 90 -134t-73 -145q-72 -52 -170 -52t-157 59q-20 20 -2 45
l49 66q20 22 46 6t57 -17q51 0 51 60z" />
    <glyph glyph-name="four.denom" horiz-adv-x="690" 
d="M221 250h94l19 115zM63 115q-18 0 -14 16l19 127l335 342q6 6 17 6h102q18 0 15 -18l-48 -334h70q18 0 14 -16l-14 -105q-4 -18 -18 -18h-72l-12 -97q-4 -18 -21 -18h-139q-20 0 -16 18l14 97h-232z" />
    <glyph glyph-name="five.denom" horiz-adv-x="604" 
d="M224 139q34 -1 56 17t22 45t-15 41q-14 14 -35 14h-131q-12 0 -21 9q-8 9 -6 22l43 301q4 18 23 18h297q20 0 16 -18l-14 -109q-4 -18 -23 -18h-168l-8 -60h45q78 0 131 -46q53 -45 53 -141q-1 -96 -71 -166t-197 -68q-57 0 -105 25t-65 52q-12 16 2 31l66 76
q18 20 44 -2q27 -22 61 -23z" />
    <glyph glyph-name="six.denom" horiz-adv-x="624" 
d="M281 270q-23 0 -39 -22t-17 -66q0 -45 37 -45q23 0 38 23q15 22 15 66t-34 44zM41 186q0 324 375 449q33 8 37 -19l20 -81q0 -27 -22 -35q-47 -14 -105 -50t-83 -81q1 0 5 2q12 7 28 14q15 6 63 6q47 0 89 -44t42 -135t-70 -162q-70 -70 -169 -70t-155 58q-55 58 -55 148
z" />
    <glyph glyph-name="seven.denom" horiz-adv-x="598" 
d="M135 455q-20 0 -16 16l16 117q4 18 21 18h364q6 0 12 -5t5 -13l-5 -33l-303 -537q-12 -18 -32 -18h-140q-12 0 -19 4t-3 25l248 426h-148z" />
    <glyph glyph-name="eight.denom" horiz-adv-x="651" 
d="M274 125q24 0 42 17q46 41 12 79q-14 17 -38 17t-42 -16t-22 -40q-4 -23 10 -40t38 -17zM307 381q23 0 38 13t17 34q6 49 -40 49q-20 0 -36 -14t-20 -35q-4 -47 41 -47zM37 137q0 104 137 174v2q-30 12 -54 45t-24 80q0 84 74 136t166 52t149 -41t57 -107t-37 -108
q-38 -42 -81 -57v-2q36 -10 66 -44t30 -89q0 -86 -77 -142t-183 -56t-164 44t-59 113z" />
    <glyph glyph-name="nine.denom" horiz-adv-x="624" 
d="M281 336q23 0 39 22t16 66q0 45 -37 45q-23 0 -38 -23q-15 -22 -15 -66t35 -44zM72 394q0 91 69 162t169 71q100 -1 155 -59t55 -148q0 -324 -375 -449q-32 -8 -36 19l-21 82q0 27 23 34q47 14 105 50t82 81q-5 0 -12 -5t-22 -11t-62 -6q-48 0 -89 44t-41 135z" />
    <glyph glyph-name="zero.num" horiz-adv-x="667" 
d="M418 1276q-30 0 -54 -64t-24 -145q0 -82 36 -82t57 70q22 69 22 145t-37 76zM356 807q-100 0 -154 69t-55 185q0 181 77 287t214 106q100 0 156 -68t55 -186q0 -180 -78 -286t-215 -107z" />
    <glyph glyph-name="one.num" horiz-adv-x="471" 
d="M270 827q-16 0 -16 19l53 377h-104q-12 0 -13 22l15 78q2 12 18 23l156 88h131q18 0 14 -19l-80 -569q-4 -18 -20 -19h-154z" />
    <glyph glyph-name="two.num" horiz-adv-x="583" 
d="M150 827q-20 0 -17 19l6 37l217 266q43 51 43 94t-36 43q-35 0 -65 -24t-40 4l-31 86q-17 33 19 55q78 47 165 47t136 -46t49 -131t-74 -187l-78 -109h86q20 0 17 -18l-17 -117q0 -6 -7 -12t-13 -7h-360z" />
    <glyph glyph-name="three.num" horiz-adv-x="581" 
d="M559 1005q0 -93 -73 -145t-170 -53q-97 0 -156 59q-20 20 -2 45l49 66q20 23 46 7t56 -17q51 0 51 59q0 41 -36 41h-66q-20 0 -16 33l8 69q2 35 41 35h51q16 0 30 16t13 42q0 37 -33 36q-20 0 -53 -24q-20 -12 -33 8l-43 80q-12 25 8 43q63 49 157 49t146 -40t52 -107
q0 -113 -117 -168q90 -41 90 -134z" />
    <glyph glyph-name="four.num" horiz-adv-x="690" 
d="M324 1077h94l18 115zM399 827q-20 0 -16 19l14 96h-231q-18 0 -14 16l18 127l336 342q6 6 16 7h103q18 0 14 -19l-47 -334h70q18 0 14 -16l-14 -104q-4 -18 -19 -19h-72l-12 -96q-4 -18 -20 -19h-140z" />
    <glyph glyph-name="five.num" horiz-adv-x="604" 
d="M324 807q-58 0 -106 26q-94 50 -62 82l65 76q18 19 44 -3t61 -22q34 0 56 18q22 17 22 44t-15 41q-14 14 -35 14h-131q-12 -1 -20 9t-6 22l43 301q4 18 22 19h297q20 0 16 -19l-14 -108q-4 -18 -22 -19h-168l-9 -59h46q78 0 131 -46q53 -45 53 -141t-70 -166t-198 -69z
" />
    <glyph glyph-name="six.num" horiz-adv-x="624" 
d="M365 965q51 1 53 89q0 44 -35 44q-23 0 -39 -22t-16 -66t37 -45zM592 1040q0 -91 -70 -162t-168 -71q-100 0 -155 58t-56 149q0 324 375 448q33 8 37 -18l20 -82q0 -27 -22 -35q-47 -13 -105 -49t-82 -82q2 0 22 12q19 12 70 11q52 0 93 -44t41 -135z" />
    <glyph glyph-name="seven.num" horiz-adv-x="598" 
d="M160 827q-12 0 -20 4q-7 4 -3 25l248 426h-147q-20 0 -17 16l17 117q4 18 20 19h365q6 0 12 -6t4 -13l-4 -33l-303 -536q-12 -18 -33 -19h-139z" />
    <glyph glyph-name="eight.num" horiz-adv-x="651" 
d="M376 952q24 0 43 18t23 40q2 23 -12 39t-38 16t-42 -16t-21 -39q-3 -22 10 -40t37 -18zM410 1208q24 0 38 14t17 33q6 49 -41 50q-20 -1 -36 -15t-19 -35q-4 -47 41 -47zM623 1006q0 -86 -77 -142q-78 -56 -184 -57q-106 0 -164 44t-59 114q0 104 137 174v2
q-30 12 -54 45t-23 80q0 84 73 136q74 52 166 52t150 -42t57 -107q0 -65 -38 -107t-81 -57v-2q37 -10 67 -44t30 -89z" />
    <glyph glyph-name="nine.num" horiz-adv-x="624" 
d="M383 1163q23 0 39 22q16 23 16 67t-37 44q-51 0 -53 -89q0 -44 35 -44zM174 1221q0 91 70 162t169 71t154 -58t56 -149q0 -323 -375 -448q-33 -8 -37 18l-21 82q0 27 23 35q47 14 105 50t82 81q-2 1 -21 -11t-71 -12t-93 44t-41 135z" />
    <glyph glyph-name="parenleft.case" horiz-adv-x="673" 
d="M123 483q0 997 610 1030q13 2 23 -9t8 -27l-16 -174q-4 -31 -31 -39q-287 -104 -287 -768q0 -291 131 -346q23 -10 19 -39l-31 -172q-6 -39 -43 -39q-194 14 -299 192q-84 143 -84 391z" />
    <glyph glyph-name="parenright.case" horiz-adv-x="677" 
d="M350 913q0 303 -131 353q-27 8 -20 39l32 172q3 16 17 27t28 9q149 -12 256 -134q126 -143 126 -463q-2 -776 -376 -957q-107 -51 -233 -59q-16 0 -26 11t-9 26l19 176q4 29 30 37q287 109 287 763z" />
    <glyph glyph-name="hyphen.case" horiz-adv-x="690" 
d="M141 549q-33 0 -28 37l24 186q4 39 41 39h430q33 0 29 -39l-25 -186q-4 -37 -41 -37h-430z" />
    <glyph glyph-name="bracketleft.case" horiz-adv-x="704" 
d="M543 -127q14 0 23 -11t7 -26l-24 -166q-2 -14 -14 -26t-27 -13h-477q-13 -1 -23 11t-8 28l279 1970q2 14 13 26t25 13h480q14 0 22 -11t6 -28l-22 -163q-3 -15 -15 -27t-26 -12h-230l-221 -1565h232z" />
    <glyph glyph-name="bracketright.case" horiz-adv-x="704" 
d="M-20 -127h231l219 1565h-229q-14 0 -24 11q-9 11 -7 28l25 163q2 14 13 26t25 13h480q14 0 22 -12t6 -27l-276 -1970q-2 -14 -14 -26t-27 -13h-477q-13 -1 -23 11t-8 28l25 166q2 14 13 26q12 11 26 11z" />
    <glyph glyph-name="braceleft.case" horiz-adv-x="733" 
d="M147 207l29 213q8 61 -28 92t-82 39q-25 4 -21 37l16 119q4 29 31 36q16 5 39 15t64 45t47 71l30 228q23 152 69 264t99 173q53 60 125 98t166 56t107 3q14 -14 12 -31l-16 -174q-2 -29 -31 -39q-207 -57 -252 -350l-29 -187q-10 -71 -58 -137t-91 -94l-43 -31v-8
q68 -33 105 -122q24 -56 16 -124l-25 -192q-39 -293 154 -350q23 -8 18 -39l-33 -172q-8 -39 -41 -35q-156 8 -279 137q-62 66 -90 184t-8 275z" />
    <glyph glyph-name="bar.case" horiz-adv-x="342" 
d="M332 1802h37q33 0 28 -39l-295 -2095q-2 -14 -14 -25t-27 -12h-32q-13 -1 -23 11t-8 26l295 2095q2 15 13 27t26 12z" />
    <glyph glyph-name="braceright.case" horiz-adv-x="731" 
d="M219 207l27 192q14 95 73 157t117 89v8q-16 13 -39 33t-56 89q-34 69 -24 140l27 187q41 293 -154 350q-25 6 -20 39l33 174q2 17 14 27t27 8q157 -8 281 -136q62 -65 90 -185t8 -277l-31 -228q-6 -38 22 -70t58 -46l30 -15q23 -8 19 -36l-16 -119q-3 -12 -13 -24
t-20 -13q-131 -25 -146 -131l-28 -213q-20 -155 -68 -267t-99 -171q-52 -59 -126 -97t-166 -54q-92 -17 -106 -2q-15 15 -13 30l17 172q4 31 32 39q209 59 250 350z" />
    <glyph glyph-name="guilsinglleft.case" horiz-adv-x="552" 
d="M342 1020h182q25 0 30 -20t-9 -44l-164 -305l59 -280q9 -60 -37 -62h-165q-17 1 -25 17l-147 317q-12 23 6 49l233 303q20 25 37 25z" />
    <glyph glyph-name="guilsinglright.case" horiz-adv-x="555" 
d="M70 309q-25 -1 -30 19t9 45l164 305l-59 280q-9 60 36 62h166q16 0 25 -16l147 -318q12 -23 -6 -49l-233 -303q-20 -25 -37 -25h-182z" />
    <glyph glyph-name="guillemotleft.case" horiz-adv-x="978" 
d="M342 1020h182q25 0 30 -20t-9 -44l-164 -305l59 -280q9 -60 -37 -62h-165q-17 1 -25 17l-147 317q-12 23 6 49l233 303q20 25 37 25zM768 1020h182q25 0 30 -20t-9 -44l-164 -305l59 -280q9 -60 -37 -62h-165q-16 0 -25 17l-147 317q-12 23 6 49l233 303q20 25 37 25z
" />
    <glyph glyph-name="guillemotright.case" horiz-adv-x="980" 
d="M70 309q-25 -1 -30 19t9 45l164 305l-59 280q-9 60 36 62h166q16 0 25 -16l147 -318q12 -23 -6 -49l-233 -303q-20 -25 -37 -25h-182zM782 1020q16 0 25 -16l147 -318q12 -23 -6 -49l-233 -303q-20 -25 -37 -25h-182q-25 -1 -30 19t9 45l164 305l-59 280q-9 60 36 62h166
z" />
    <glyph glyph-name="endash.case" horiz-adv-x="1021" 
d="M160 600q-35 0 -31 37l14 104q6 39 41 39h772q35 0 29 -39l-14 -104q-4 -37 -41 -37h-770z" />
    <glyph glyph-name="emdash.case" horiz-adv-x="1427" 
d="M160 600q-35 0 -31 37l14 104q6 39 41 39h1178q35 0 29 -39l-15 -104q-4 -37 -41 -37h-1175z" />
    <glyph glyph-name="bullet.case" horiz-adv-x="747" 
d="M594 668q0 -118 -100 -216t-214 -98t-182 75t-68 193t99 218t211 100t183 -77t71 -195z" />
    <glyph glyph-name="periodcentered.case" horiz-adv-x="563" 
d="M308 489q-89 1 -142 57t-53 145t74 163q75 74 165 74t144 -58t55 -146q0 -89 -77 -162t-166 -73z" />
    </font>
</defs>
</svg>
